<?xml version="1.0" encoding="UTF-8"?>
<svg xmlns="http://www.w3.org/2000/svg" xmlns:xlink="http://www.w3.org/1999/xlink" width="138px" height="45px" viewBox="0 0 137 45" version="1.1">
<g id="surface1">
<path style=" stroke:none;fill-rule:nonzero;fill:rgb(92.941177%,66.274512%,17.254902%);fill-opacity:1;" d="M 20.191406 -0.0117188 C 20.234375 -0.0117188 20.285156 -0.0117188 20.332031 -0.0117188 C 21.109375 -0.0117188 21.867188 0.0234375 22.632812 0.128906 C 22.691406 0.136719 22.746094 0.140625 22.796875 0.152344 C 25.984375 0.601562 29.027344 1.871094 31.578125 3.863281 C 31.601562 3.878906 31.628906 3.894531 31.652344 3.917969 C 31.941406 4.140625 32.222656 4.371094 32.492188 4.621094 C 32.582031 4.699219 32.667969 4.78125 32.757812 4.859375 C 33.242188 5.289062 33.699219 5.738281 34.125 6.21875 C 34.152344 6.253906 34.1875 6.292969 34.222656 6.328125 C 34.464844 6.59375 34.6875 6.878906 34.910156 7.167969 C 34.972656 7.253906 35.039062 7.335938 35.101562 7.417969 C 35.710938 8.203125 36.226562 9.039062 36.710938 9.910156 C 36.730469 9.945312 36.75 9.984375 36.773438 10.023438 C 38.726562 13.597656 39.386719 17.914062 38.285156 24.335938 C 37.578125 26.78125 36.34375 28.992188 34.640625 30.871094 C 34.558594 30.953125 34.488281 31.046875 34.40625 31.136719 C 34.253906 31.3125 34.09375 31.488281 33.933594 31.664062 C 33.90625 31.691406 33.878906 31.71875 33.851562 31.75 C 33.394531 32.242188 33.394531 32.242188 33.152344 32.453125 C 33.003906 32.578125 32.871094 32.710938 32.734375 32.855469 C 32.648438 32.933594 32.566406 33.011719 32.480469 33.085938 C 32.304688 33.238281 32.136719 33.398438 31.972656 33.558594 C 31.730469 33.789062 31.484375 34.015625 31.234375 34.242188 C 31.125 34.351562 31.011719 34.457031 30.898438 34.566406 C 30.824219 34.628906 30.757812 34.695312 30.683594 34.757812 C 30.617188 34.828125 30.542969 34.894531 30.476562 34.964844 C 30.160156 35.273438 29.640625 35.253906 29.21875 35.285156 C 29.191406 35.292969 29.164062 35.292969 29.128906 35.296875 C 28.46875 35.355469 27.804688 35.359375 27.148438 35.359375 C 27.097656 35.359375 27.046875 35.359375 26.996094 35.359375 C 26.121094 35.367188 25.25 35.328125 24.378906 35.191406 C 24.335938 35.183594 24.285156 35.171875 24.238281 35.167969 C 23.6875 35.082031 23.140625 34.996094 22.59375 34.90625 C 22.207031 34.84375 21.8125 34.78125 21.421875 34.726562 C 19.289062 34.40625 19.289062 34.40625 18.695312 34.0625 C 18.679688 34.035156 18.667969 34.003906 18.652344 33.976562 C 18.707031 33.964844 18.707031 33.964844 18.757812 33.960938 C 21.804688 33.539062 24.550781 32.265625 26.964844 30.347656 C 27.054688 30.273438 27.148438 30.207031 27.238281 30.136719 C 27.394531 30.011719 27.550781 29.882812 27.714844 29.757812 C 27.777344 29.707031 27.839844 29.65625 27.90625 29.609375 C 28.679688 29.003906 29.421875 28.328125 30.015625 27.539062 C 30.054688 27.484375 30.097656 27.433594 30.136719 27.375 C 31.820312 25.203125 32.933594 22.410156 32.941406 19.628906 C 32.941406 19.585938 32.941406 19.546875 32.949219 19.507812 C 32.953125 18.21875 32.953125 18.21875 32.808594 16.941406 C 32.800781 16.898438 32.789062 16.847656 32.785156 16.796875 C 32.226562 13.671875 30.605469 10.5625 28.058594 8.625 C 28.015625 8.585938 27.964844 8.546875 27.914062 8.503906 C 26.015625 7.015625 23.75 6.128906 21.367188 5.875 C 21.316406 5.867188 21.265625 5.863281 21.214844 5.859375 C 17.777344 5.539062 14.410156 6.839844 11.785156 9.039062 C 11.746094 9.074219 11.746094 9.074219 11.707031 9.105469 C 11.636719 9.15625 11.578125 9.214844 11.507812 9.265625 C 11.210938 9.507812 10.933594 9.769531 10.664062 10.046875 C 10.589844 10.117188 10.523438 10.191406 10.449219 10.261719 C 10.167969 10.546875 9.914062 10.835938 9.667969 11.152344 C 9.628906 11.199219 9.59375 11.238281 9.554688 11.285156 C 8.808594 12.164062 8.222656 13.148438 7.671875 14.160156 C 7.65625 14.191406 7.632812 14.226562 7.617188 14.265625 C 7.097656 15.21875 6.667969 16.21875 6.316406 17.242188 C 6.304688 17.289062 6.285156 17.328125 6.269531 17.375 C 6.09375 17.902344 5.941406 18.433594 5.8125 18.972656 C 5.800781 19.023438 5.789062 19.074219 5.78125 19.125 C 4.902344 23.023438 5.554688 26.90625 6.828125 30.632812 C 6.832031 30.660156 6.84375 30.6875 6.855469 30.714844 C 7.070312 31.339844 7.296875 31.957031 7.542969 32.570312 C 7.558594 32.609375 7.578125 32.65625 7.59375 32.695312 C 7.609375 32.734375 7.628906 32.769531 7.636719 32.808594 C 7.671875 32.90625 7.671875 32.90625 7.671875 33.03125 C 6.890625 32.660156 6.164062 31.820312 5.640625 31.140625 C 5.59375 31.085938 5.546875 31.027344 5.503906 30.972656 C 3.207031 28.035156 1.882812 24.5625 1.488281 20.851562 C 1.480469 20.804688 1.476562 20.765625 1.46875 20.726562 C 1.347656 19.402344 1.378906 17.996094 1.570312 16.6875 C 1.578125 16.640625 1.578125 16.640625 1.582031 16.597656 C 1.964844 13.921875 2.832031 11.296875 4.28125 9.011719 C 4.296875 8.980469 4.320312 8.949219 4.335938 8.917969 C 4.945312 7.960938 5.644531 7.003906 6.457031 6.210938 C 6.527344 6.128906 6.601562 6.050781 6.667969 5.964844 C 6.8125 5.800781 6.96875 5.652344 7.132812 5.511719 C 7.214844 5.4375 7.296875 5.359375 7.378906 5.285156 C 7.679688 4.996094 7.988281 4.734375 8.320312 4.480469 C 8.394531 4.417969 8.464844 4.355469 8.539062 4.296875 C 11.40625 1.921875 14.972656 0.417969 18.652344 0.046875 C 18.707031 0.0351562 18.707031 0.0351562 18.769531 0.0273438 C 19.242188 -0.0117188 19.714844 -0.0117188 20.191406 -0.0117188 Z M 20.191406 -0.0117188 "/>
<path style=" stroke:none;fill-rule:nonzero;fill:rgb(19.215687%,42.745098%,70.588237%);fill-opacity:1;" d="M 60.488281 22.050781 C 61.328125 22.046875 62.164062 22.046875 63.003906 22.046875 C 63.390625 22.046875 63.78125 22.046875 64.167969 22.039062 C 64.507812 22.039062 64.851562 22.039062 65.1875 22.039062 C 65.367188 22.039062 65.546875 22.039062 65.722656 22.039062 C 68.082031 22.035156 70.5625 22.214844 72.371094 23.929688 C 73.289062 24.910156 73.65625 26.230469 73.644531 27.5625 C 73.605469 28.957031 73.152344 30.210938 72.191406 31.230469 C 72.140625 31.289062 72.140625 31.289062 72.082031 31.347656 C 71.609375 31.851562 70.816406 32.515625 70.109375 32.605469 C 70.222656 32.730469 70.359375 32.8125 70.5 32.910156 C 71.179688 33.382812 71.554688 34.074219 71.96875 34.78125 C 72.101562 35.003906 72.234375 35.222656 72.375 35.445312 C 72.566406 35.761719 72.757812 36.082031 72.949219 36.398438 C 73.140625 36.714844 73.332031 37.027344 73.523438 37.34375 C 73.710938 37.652344 73.902344 37.964844 74.089844 38.273438 C 74.296875 38.621094 74.503906 38.964844 74.714844 39.308594 C 74.757812 39.378906 74.796875 39.453125 74.84375 39.527344 C 75.007812 39.789062 75.007812 39.789062 75.175781 40.050781 C 75.238281 40.152344 75.238281 40.152344 75.238281 40.28125 C 74.726562 40.28125 74.207031 40.28125 73.6875 40.289062 C 73.445312 40.289062 73.203125 40.289062 72.96875 40.289062 C 72.730469 40.289062 72.5 40.289062 72.269531 40.289062 C 72.179688 40.289062 72.09375 40.289062 72.003906 40.289062 C 71.878906 40.292969 71.757812 40.292969 71.632812 40.292969 C 71.59375 40.292969 71.558594 40.292969 71.519531 40.292969 C 71.175781 40.289062 70.84375 40.242188 70.527344 40.082031 C 70.488281 40.066406 70.449219 40.050781 70.410156 40.027344 C 70.058594 39.785156 69.859375 39.433594 69.660156 39.058594 C 69.609375 38.960938 69.558594 38.863281 69.503906 38.769531 C 69.480469 38.722656 69.453125 38.671875 69.425781 38.621094 C 69.304688 38.40625 69.179688 38.191406 69.058594 37.972656 C 68.84375 37.601562 68.628906 37.226562 68.414062 36.855469 C 68.171875 36.421875 67.925781 35.984375 67.675781 35.546875 C 67.554688 35.335938 67.433594 35.121094 67.3125 34.902344 C 67.273438 34.828125 67.226562 34.746094 67.1875 34.675781 C 67.132812 34.578125 67.082031 34.480469 67.03125 34.386719 C 66.769531 33.921875 66.574219 33.75 66.042969 33.589844 C 65.59375 33.574219 65.148438 33.5625 64.6875 33.546875 C 64.6875 35.769531 64.6875 37.992188 64.6875 40.28125 C 62.367188 40.28125 62.367188 40.28125 61.832031 39.992188 C 61.789062 39.96875 61.789062 39.96875 61.746094 39.949219 C 61.121094 39.609375 60.738281 39.027344 60.527344 38.347656 C 60.488281 38.183594 60.484375 38.03125 60.484375 37.859375 C 60.484375 37.804688 60.484375 37.746094 60.484375 37.683594 C 60.484375 37.621094 60.484375 37.558594 60.484375 37.5 C 60.484375 37.4375 60.484375 37.367188 60.484375 37.300781 C 60.484375 37.117188 60.484375 36.9375 60.484375 36.75 C 60.484375 36.558594 60.484375 36.359375 60.484375 36.160156 C 60.484375 35.820312 60.484375 35.472656 60.484375 35.132812 C 60.484375 34.640625 60.484375 34.148438 60.484375 33.652344 C 60.484375 32.847656 60.484375 32.050781 60.484375 31.25 C 60.484375 30.46875 60.484375 29.691406 60.484375 28.914062 C 60.484375 28.863281 60.484375 28.816406 60.484375 28.765625 C 60.484375 28.523438 60.484375 28.285156 60.484375 28.046875 C 60.488281 26.042969 60.488281 24.046875 60.488281 22.050781 Z M 64.6875 25.265625 C 64.6875 27.023438 64.6875 28.777344 64.6875 30.585938 C 66.894531 30.703125 66.894531 30.703125 68.804688 29.792969 C 69.351562 29.203125 69.535156 28.414062 69.519531 27.625 C 69.480469 27.09375 69.324219 26.640625 69.007812 26.207031 C 68.980469 26.167969 68.945312 26.125 68.910156 26.078125 C 68.398438 25.527344 67.738281 25.398438 67.019531 25.265625 C 66.246094 25.265625 65.476562 25.265625 64.6875 25.265625 Z M 64.6875 25.265625 "/>
<path style=" stroke:none;fill-rule:nonzero;fill:rgb(19.215687%,42.745098%,70.588237%);fill-opacity:1;" d="M 87.523438 22.726562 C 88.082031 23.269531 88.304688 24.003906 88.578125 24.71875 C 88.617188 24.808594 88.648438 24.902344 88.683594 24.996094 C 88.757812 25.1875 88.832031 25.386719 88.902344 25.578125 C 89.0625 25.988281 89.21875 26.394531 89.375 26.808594 C 89.425781 26.941406 89.476562 27.070312 89.527344 27.207031 C 89.738281 27.75 89.953125 28.300781 90.160156 28.851562 C 90.507812 29.753906 90.859375 30.660156 91.203125 31.5625 C 91.355469 31.957031 91.507812 32.355469 91.65625 32.753906 C 91.742188 32.96875 91.828125 33.1875 91.90625 33.402344 C 91.941406 33.496094 91.972656 33.578125 92.007812 33.671875 C 92.074219 33.847656 92.144531 34.023438 92.210938 34.191406 C 92.238281 34.261719 92.238281 34.261719 92.261719 34.328125 C 92.292969 34.414062 92.328125 34.503906 92.363281 34.589844 C 92.445312 34.808594 92.53125 35.027344 92.617188 35.246094 C 92.769531 35.644531 92.921875 36.039062 93.070312 36.4375 C 93.414062 37.332031 93.757812 38.234375 94.101562 39.132812 C 94.121094 39.171875 94.136719 39.210938 94.148438 39.25 C 94.1875 39.351562 94.234375 39.460938 94.273438 39.5625 C 94.285156 39.597656 94.292969 39.625 94.304688 39.660156 C 94.351562 39.777344 94.402344 39.898438 94.453125 40.011719 C 94.484375 40.113281 94.484375 40.113281 94.484375 40.28125 C 94.035156 40.28125 93.589844 40.28125 93.144531 40.289062 C 92.9375 40.289062 92.726562 40.289062 92.519531 40.289062 C 92.324219 40.289062 92.121094 40.289062 91.921875 40.289062 C 91.84375 40.289062 91.769531 40.289062 91.691406 40.289062 C 91.585938 40.292969 91.476562 40.292969 91.371094 40.292969 C 91.335938 40.292969 91.308594 40.292969 91.273438 40.292969 C 90.832031 40.289062 90.46875 40.167969 90.125 39.875 C 89.78125 39.511719 89.667969 38.933594 89.511719 38.46875 C 89.488281 38.40625 89.472656 38.34375 89.449219 38.28125 C 89.40625 38.15625 89.367188 38.027344 89.320312 37.902344 C 89.269531 37.734375 89.214844 37.570312 89.15625 37.40625 C 89.117188 37.28125 89.074219 37.15625 89.03125 37.027344 C 89.011719 36.972656 88.988281 36.910156 88.972656 36.851562 C 88.941406 36.765625 88.914062 36.679688 88.886719 36.597656 C 88.871094 36.550781 88.851562 36.5 88.835938 36.453125 C 88.800781 36.335938 88.800781 36.335938 88.800781 36.207031 C 86.554688 36.222656 84.300781 36.234375 81.980469 36.25 C 81.671875 37.167969 81.367188 38.085938 81.046875 39.035156 C 80.8125 39.609375 80.644531 39.949219 80.097656 40.195312 C 79.863281 40.28125 79.632812 40.289062 79.382812 40.289062 C 79.347656 40.289062 79.316406 40.289062 79.28125 40.289062 C 79.167969 40.289062 79.058594 40.289062 78.949219 40.289062 C 78.871094 40.289062 78.792969 40.289062 78.714844 40.289062 C 78.511719 40.28125 78.308594 40.28125 78.105469 40.28125 C 77.894531 40.28125 77.6875 40.28125 77.480469 40.28125 C 77.074219 40.28125 76.664062 40.28125 76.257812 40.28125 C 76.28125 40.128906 76.308594 39.988281 76.363281 39.84375 C 76.382812 39.800781 76.382812 39.800781 76.398438 39.75 C 76.414062 39.710938 76.425781 39.675781 76.441406 39.640625 C 76.453125 39.601562 76.472656 39.566406 76.488281 39.527344 C 76.515625 39.441406 76.550781 39.363281 76.582031 39.285156 C 76.652344 39.101562 76.71875 38.925781 76.792969 38.75 C 76.824219 38.65625 76.859375 38.5625 76.898438 38.472656 C 77.089844 37.984375 77.277344 37.5 77.460938 37.003906 C 77.496094 36.917969 77.53125 36.828125 77.5625 36.742188 C 77.632812 36.566406 77.699219 36.390625 77.765625 36.210938 C 77.917969 35.820312 78.070312 35.421875 78.222656 35.03125 C 78.300781 34.808594 78.386719 34.589844 78.472656 34.375 C 78.503906 34.28125 78.539062 34.199219 78.570312 34.105469 C 78.589844 34.066406 78.605469 34.023438 78.621094 33.976562 C 78.773438 33.585938 78.773438 33.585938 78.824219 33.457031 C 78.859375 33.363281 78.894531 33.28125 78.925781 33.1875 C 79.007812 32.972656 79.089844 32.753906 79.175781 32.53125 C 79.328125 32.132812 79.480469 31.738281 79.632812 31.339844 C 79.976562 30.445312 80.320312 29.546875 80.664062 28.65625 C 80.863281 28.136719 81.0625 27.613281 81.265625 27.09375 C 81.382812 26.785156 81.5 26.476562 81.621094 26.164062 C 81.714844 25.917969 81.8125 25.667969 81.902344 25.421875 C 81.964844 25.273438 82.019531 25.125 82.074219 24.976562 C 82.097656 24.910156 82.125 24.84375 82.148438 24.773438 C 82.359375 24.234375 82.578125 23.679688 82.988281 23.261719 C 83.015625 23.226562 83.015625 23.226562 83.050781 23.191406 C 84.214844 21.988281 86.175781 21.570312 87.523438 22.726562 Z M 85.371094 25.953125 C 85.355469 26.003906 85.335938 26.0625 85.320312 26.113281 C 85.027344 27.058594 84.71875 27.996094 84.390625 28.929688 C 84.136719 29.65625 83.890625 30.386719 83.640625 31.125 C 83.609375 31.226562 83.574219 31.328125 83.539062 31.429688 C 83.488281 31.578125 83.445312 31.71875 83.394531 31.867188 C 83.382812 31.90625 83.367188 31.953125 83.347656 31.996094 C 83.257812 32.277344 83.1875 32.546875 83.289062 32.835938 C 83.421875 33.035156 83.558594 33.195312 83.792969 33.273438 C 83.921875 33.296875 84.046875 33.296875 84.175781 33.296875 C 84.207031 33.296875 84.234375 33.296875 84.261719 33.296875 C 84.359375 33.296875 84.453125 33.296875 84.550781 33.296875 C 84.601562 33.300781 84.601562 33.300781 84.652344 33.300781 C 84.820312 33.300781 84.992188 33.300781 85.167969 33.300781 C 85.34375 33.300781 85.523438 33.300781 85.699219 33.308594 C 85.839844 33.308594 85.972656 33.308594 86.109375 33.308594 C 86.175781 33.308594 86.246094 33.308594 86.304688 33.308594 C 86.730469 33.3125 87.035156 33.308594 87.359375 33 C 87.476562 32.808594 87.550781 32.609375 87.523438 32.382812 C 87.496094 32.285156 87.46875 32.195312 87.433594 32.101562 C 87.421875 32.066406 87.410156 32.03125 87.398438 31.992188 C 87.359375 31.878906 87.320312 31.765625 87.28125 31.644531 C 87.253906 31.566406 87.226562 31.480469 87.195312 31.402344 C 87.140625 31.230469 87.085938 31.054688 87.027344 30.886719 C 86.941406 30.636719 86.859375 30.386719 86.78125 30.136719 C 86.503906 29.308594 86.226562 28.476562 85.945312 27.648438 C 85.753906 27.085938 85.574219 26.527344 85.410156 25.953125 C 85.398438 25.953125 85.382812 25.953125 85.371094 25.953125 Z M 85.371094 25.953125 "/>
<path style=" stroke:none;fill-rule:nonzero;fill:rgb(19.215687%,42.745098%,70.588237%);fill-opacity:1;" d="M 111.757812 22.039062 C 111.800781 22.039062 111.847656 22.039062 111.894531 22.039062 C 112.042969 22.039062 112.195312 22.039062 112.347656 22.039062 C 112.457031 22.039062 112.5625 22.039062 112.675781 22.039062 C 112.90625 22.039062 113.144531 22.039062 113.375 22.039062 C 113.710938 22.039062 114.050781 22.039062 114.386719 22.039062 C 114.941406 22.039062 115.488281 22.039062 116.039062 22.039062 C 116.566406 22.046875 117.101562 22.046875 117.636719 22.046875 C 117.667969 22.046875 117.699219 22.046875 117.734375 22.046875 C 117.898438 22.046875 118.066406 22.046875 118.230469 22.046875 C 119.597656 22.046875 120.96875 22.046875 122.332031 22.050781 C 122.335938 22.238281 122.34375 22.433594 122.34375 22.625 C 122.34375 22.6875 122.34375 22.753906 122.347656 22.816406 C 122.359375 23.339844 122.320312 23.832031 122.015625 24.28125 C 121.992188 24.316406 121.964844 24.355469 121.941406 24.386719 C 121.578125 24.898438 121.074219 25.214844 120.464844 25.335938 C 120.242188 25.371094 120.019531 25.363281 119.796875 25.363281 C 119.71875 25.363281 119.71875 25.363281 119.636719 25.363281 C 119.496094 25.363281 119.351562 25.363281 119.210938 25.363281 C 119.058594 25.363281 118.910156 25.363281 118.757812 25.363281 C 118.476562 25.359375 118.195312 25.359375 117.914062 25.359375 C 117.53125 25.359375 117.148438 25.359375 116.765625 25.359375 C 116.164062 25.359375 115.558594 25.351562 114.957031 25.351562 C 114.957031 26.742188 114.957031 28.125 114.957031 29.554688 C 116.816406 29.554688 118.679688 29.554688 120.597656 29.554688 C 120.597656 30.589844 120.597656 31.625 120.597656 32.691406 C 118.738281 32.691406 116.871094 32.691406 114.957031 32.691406 C 114.957031 34.101562 114.957031 35.519531 114.957031 36.976562 C 115.351562 36.976562 115.738281 36.976562 116.144531 36.972656 C 116.394531 36.972656 116.640625 36.972656 116.890625 36.972656 C 117.285156 36.972656 117.679688 36.972656 118.074219 36.972656 C 118.367188 36.964844 118.652344 36.964844 118.941406 36.964844 C 119.09375 36.964844 119.242188 36.964844 119.394531 36.964844 C 119.566406 36.964844 119.734375 36.964844 119.902344 36.964844 C 119.953125 36.964844 120.003906 36.964844 120.054688 36.960938 C 120.707031 36.964844 121.25 37.148438 121.726562 37.605469 C 122.140625 38.035156 122.347656 38.507812 122.34375 39.109375 C 122.34375 39.160156 122.34375 39.160156 122.34375 39.210938 C 122.34375 39.316406 122.335938 39.425781 122.335938 39.527344 C 122.335938 39.601562 122.335938 39.675781 122.335938 39.75 C 122.335938 39.925781 122.335938 40.105469 122.332031 40.28125 C 121.175781 40.28125 120.019531 40.289062 118.871094 40.289062 C 118.332031 40.289062 117.796875 40.289062 117.261719 40.292969 C 116.792969 40.292969 116.324219 40.292969 115.859375 40.292969 C 115.609375 40.292969 115.363281 40.292969 115.113281 40.292969 C 114.882812 40.292969 114.652344 40.292969 114.417969 40.292969 C 114.332031 40.292969 114.246094 40.292969 114.164062 40.300781 C 113.492188 40.300781 112.84375 40.277344 112.242188 39.9375 C 112.207031 39.917969 112.167969 39.898438 112.128906 39.875 C 111.453125 39.476562 111.023438 38.875 110.789062 38.121094 C 110.738281 37.910156 110.714844 37.703125 110.714844 37.480469 C 110.714844 37.429688 110.710938 37.378906 110.710938 37.324219 C 110.710938 37.265625 110.710938 37.203125 110.710938 37.148438 C 110.710938 37.085938 110.710938 37.023438 110.710938 36.960938 C 110.710938 36.789062 110.710938 36.613281 110.710938 36.445312 C 110.710938 36.261719 110.710938 36.074219 110.710938 35.886719 C 110.710938 35.445312 110.710938 34.996094 110.710938 34.550781 C 110.710938 34.339844 110.710938 34.128906 110.710938 33.921875 C 110.710938 33.21875 110.703125 32.519531 110.703125 31.820312 C 110.703125 31.640625 110.703125 31.460938 110.703125 31.277344 C 110.703125 31.210938 110.703125 31.210938 110.703125 31.140625 C 110.703125 30.410156 110.703125 29.679688 110.703125 28.945312 C 110.703125 28.199219 110.699219 27.449219 110.699219 26.703125 C 110.699219 26.277344 110.699219 25.855469 110.699219 25.4375 C 110.699219 25.074219 110.699219 24.71875 110.699219 24.359375 C 110.699219 24.179688 110.699219 23.996094 110.699219 23.808594 C 110.699219 23.644531 110.699219 23.476562 110.699219 23.3125 C 110.699219 23.25 110.699219 23.1875 110.699219 23.128906 C 110.691406 22.5625 110.691406 22.5625 110.890625 22.308594 C 111.15625 22.046875 111.402344 22.035156 111.757812 22.039062 Z M 111.757812 22.039062 "/>
<path style=" stroke:none;fill-rule:nonzero;fill:rgb(19.215687%,42.745098%,70.588237%);fill-opacity:1;" d="M 91.011719 22.050781 C 91.476562 22.046875 91.945312 22.046875 92.414062 22.046875 C 92.632812 22.046875 92.847656 22.046875 93.066406 22.039062 C 93.273438 22.039062 93.488281 22.039062 93.699219 22.039062 C 93.777344 22.039062 93.859375 22.039062 93.941406 22.039062 C 94.050781 22.039062 94.164062 22.039062 94.277344 22.039062 C 94.324219 22.039062 94.324219 22.039062 94.375 22.039062 C 94.8125 22.039062 95.210938 22.148438 95.535156 22.464844 C 95.839844 22.847656 95.96875 23.355469 96.125 23.808594 C 96.152344 23.890625 96.183594 23.96875 96.210938 24.046875 C 96.242188 24.132812 96.273438 24.21875 96.300781 24.296875 C 96.363281 24.480469 96.425781 24.65625 96.492188 24.832031 C 96.496094 24.859375 96.507812 24.886719 96.519531 24.921875 C 96.542969 24.976562 96.566406 25.039062 96.582031 25.097656 C 96.617188 25.1875 96.648438 25.277344 96.675781 25.363281 C 96.851562 25.851562 97.027344 26.332031 97.203125 26.820312 C 97.253906 26.96875 97.308594 27.121094 97.359375 27.269531 C 97.375 27.308594 97.386719 27.347656 97.402344 27.386719 C 97.613281 27.964844 97.820312 28.542969 98.03125 29.128906 C 98.253906 29.765625 98.480469 30.398438 98.710938 31.027344 C 98.886719 31.511719 99.054688 31.996094 99.230469 32.480469 C 99.269531 32.59375 99.3125 32.710938 99.351562 32.824219 C 99.65625 33.671875 99.929688 34.519531 100.164062 35.390625 C 100.230469 35.265625 100.269531 35.152344 100.304688 35.015625 C 100.828125 32.90625 101.644531 30.871094 102.378906 28.832031 C 102.648438 28.085938 102.914062 27.332031 103.179688 26.582031 C 103.210938 26.484375 103.25 26.382812 103.285156 26.28125 C 103.335938 26.132812 103.386719 25.988281 103.441406 25.839844 C 103.617188 25.339844 103.792969 24.84375 103.964844 24.347656 C 104 24.253906 104.035156 24.160156 104.066406 24.070312 C 104.625 22.488281 104.625 22.488281 105.171875 22.199219 C 105.449219 22.070312 105.683594 22.039062 105.988281 22.046875 C 106.046875 22.046875 106.046875 22.046875 106.097656 22.046875 C 106.214844 22.046875 106.332031 22.046875 106.449219 22.046875 C 106.53125 22.046875 106.613281 22.046875 106.691406 22.046875 C 106.90625 22.046875 107.121094 22.046875 107.335938 22.046875 C 107.554688 22.046875 107.773438 22.046875 107.996094 22.046875 C 108.421875 22.046875 108.851562 22.046875 109.277344 22.050781 C 109.207031 22.3125 109.121094 22.566406 109.015625 22.816406 C 108.984375 22.886719 108.957031 22.953125 108.933594 23.023438 C 108.917969 23.0625 108.902344 23.09375 108.890625 23.136719 C 108.800781 23.34375 108.714844 23.554688 108.632812 23.765625 C 108.601562 23.832031 108.601562 23.832031 108.574219 23.90625 C 108.328125 24.507812 108.089844 25.113281 107.855469 25.722656 C 107.730469 26.03125 107.605469 26.34375 107.480469 26.660156 C 107.464844 26.695312 107.453125 26.730469 107.4375 26.769531 C 107.054688 27.746094 106.664062 28.71875 106.277344 29.703125 C 106.238281 29.792969 106.203125 29.882812 106.164062 29.972656 C 106.015625 30.351562 105.863281 30.726562 105.71875 31.101562 C 105.414062 31.875 105.105469 32.644531 104.800781 33.414062 C 104.613281 33.878906 104.429688 34.351562 104.242188 34.820312 C 104.167969 34.996094 104.101562 35.171875 104.027344 35.355469 C 104.007812 35.417969 104.007812 35.417969 103.976562 35.484375 C 103.769531 36 103.566406 36.523438 103.359375 37.042969 C 103.289062 37.21875 103.222656 37.390625 103.15625 37.566406 C 103.089844 37.742188 103.015625 37.917969 102.945312 38.09375 C 102.789062 38.5 102.632812 38.894531 102.367188 39.25 C 102.34375 39.285156 102.320312 39.3125 102.300781 39.347656 C 101.90625 39.855469 101.257812 40.175781 100.632812 40.269531 C 99.785156 40.351562 99.027344 40.207031 98.339844 39.679688 C 98.277344 39.628906 98.277344 39.628906 98.210938 39.585938 C 97.730469 39.121094 97.488281 38.492188 97.253906 37.878906 C 97.230469 37.820312 97.207031 37.757812 97.179688 37.703125 C 97.132812 37.570312 97.082031 37.445312 97.03125 37.316406 C 96.949219 37.105469 96.863281 36.898438 96.785156 36.6875 C 96.765625 36.648438 96.757812 36.613281 96.738281 36.574219 C 96.710938 36.5 96.675781 36.425781 96.648438 36.347656 C 96.605469 36.234375 96.558594 36.113281 96.515625 36 C 96.152344 35.09375 95.796875 34.1875 95.4375 33.285156 C 95.34375 33.050781 95.253906 32.820312 95.160156 32.585938 C 95.027344 32.257812 94.898438 31.925781 94.769531 31.59375 C 94.527344 30.996094 94.289062 30.386719 94.046875 29.785156 C 94.011719 29.695312 93.972656 29.605469 93.941406 29.515625 C 93.777344 29.105469 93.617188 28.703125 93.457031 28.296875 C 93.363281 28.066406 93.273438 27.847656 93.183594 27.621094 C 93.164062 27.550781 93.164062 27.550781 93.132812 27.484375 C 92.878906 26.847656 92.628906 26.214844 92.375 25.578125 C 92.234375 25.222656 92.085938 24.859375 91.945312 24.5 C 91.828125 24.207031 91.707031 23.910156 91.597656 23.617188 C 91.523438 23.4375 91.449219 23.253906 91.375 23.074219 C 91.34375 22.988281 91.308594 22.910156 91.273438 22.824219 C 91.230469 22.703125 91.183594 22.589844 91.140625 22.476562 C 91.117188 22.425781 91.117188 22.425781 91.101562 22.375 C 91.011719 22.144531 91.011719 22.144531 91.011719 22.050781 Z M 91.011719 22.050781 "/>
<path style=" stroke:none;fill-rule:nonzero;fill:rgb(22.745098%,45.882353%,72.941178%);fill-opacity:1;" d="M 6.105469 20.890625 C 6.117188 20.890625 6.132812 20.890625 6.144531 20.890625 C 6.144531 20.917969 6.152344 20.941406 6.152344 20.964844 C 6.304688 23.691406 7.351562 26.363281 8.984375 28.527344 C 9.007812 28.550781 9.023438 28.578125 9.046875 28.601562 C 9.292969 28.941406 9.558594 29.253906 9.847656 29.558594 C 9.941406 29.660156 10.03125 29.769531 10.121094 29.871094 C 10.332031 30.117188 10.5625 30.335938 10.804688 30.550781 C 10.867188 30.601562 10.929688 30.660156 10.984375 30.714844 C 11.316406 31.027344 11.675781 31.300781 12.039062 31.574219 C 12.066406 31.589844 12.089844 31.613281 12.117188 31.628906 C 15 33.796875 18.515625 34.921875 27.96875 35.945312 C 28.003906 35.9375 28.035156 35.9375 28.070312 35.933594 C 28.695312 35.882812 29.292969 35.773438 29.902344 35.625 C 30.007812 35.605469 30.109375 35.597656 30.222656 35.605469 C 30.046875 35.859375 29.851562 36.074219 29.628906 36.289062 C 29.433594 36.488281 29.242188 36.6875 29.0625 36.902344 C 28.972656 37.003906 28.875 37.09375 28.78125 37.191406 C 28.65625 37.316406 28.539062 37.441406 28.417969 37.578125 C 28.273438 37.753906 28.117188 37.910156 27.953125 38.078125 C 27.839844 38.191406 27.730469 38.316406 27.632812 38.4375 C 27.511719 38.570312 27.390625 38.6875 27.265625 38.8125 C 27.179688 38.898438 27.101562 38.984375 27.027344 39.082031 C 26.875 39.25 26.71875 39.414062 26.554688 39.574219 C 26.441406 39.691406 26.335938 39.8125 26.226562 39.9375 C 26.117188 40.074219 25.992188 40.191406 25.867188 40.316406 C 25.785156 40.402344 25.703125 40.488281 25.625 40.578125 C 25.480469 40.753906 25.316406 40.917969 25.152344 41.074219 C 25.039062 41.195312 24.9375 41.3125 24.832031 41.4375 C 24.714844 41.570312 24.589844 41.695312 24.464844 41.820312 C 24.378906 41.902344 24.300781 41.988281 24.226562 42.085938 C 24.117188 42.210938 24.003906 42.328125 23.886719 42.449219 C 23.765625 42.566406 23.660156 42.679688 23.550781 42.8125 C 23.402344 42.988281 23.238281 43.144531 23.078125 43.308594 C 22.964844 43.421875 22.859375 43.546875 22.753906 43.671875 C 22.640625 43.804688 22.515625 43.921875 22.390625 44.046875 C 22.308594 44.132812 22.230469 44.222656 22.148438 44.3125 C 21.980469 44.511719 21.800781 44.6875 21.621094 44.871094 C 21.574219 44.914062 21.535156 44.953125 21.492188 45 C 21.242188 44.796875 20.996094 44.585938 20.746094 44.375 C 20.582031 44.234375 20.414062 44.09375 20.238281 43.949219 C 20.046875 43.785156 19.851562 43.621094 19.660156 43.457031 C 19.519531 43.332031 19.371094 43.214844 19.226562 43.089844 C 19.027344 42.929688 18.835938 42.765625 18.644531 42.601562 C 18.5 42.476562 18.351562 42.351562 18.207031 42.234375 C 18.007812 42.074219 17.816406 41.910156 17.625 41.746094 C 17.480469 41.621094 17.339844 41.496094 17.1875 41.375 C 16.996094 41.210938 16.804688 41.046875 16.613281 40.882812 C 16.464844 40.757812 16.320312 40.640625 16.171875 40.515625 C 15.976562 40.355469 15.785156 40.191406 15.59375 40.027344 C 15.445312 39.902344 15.300781 39.785156 15.152344 39.660156 C 14.960938 39.5 14.765625 39.335938 14.574219 39.171875 C 14.433594 39.046875 14.285156 38.921875 14.140625 38.800781 C 13.941406 38.636719 13.75 38.480469 13.558594 38.308594 C 13.414062 38.191406 13.265625 38.066406 13.121094 37.945312 C 12.90625 37.765625 12.699219 37.589844 12.488281 37.40625 C 12.394531 37.328125 12.296875 37.242188 12.203125 37.164062 C 11.851562 36.867188 11.527344 36.558594 11.203125 36.226562 C 11.132812 36.152344 11.050781 36.074219 10.972656 35.996094 C 10.726562 35.746094 10.484375 35.492188 10.257812 35.21875 C 10.234375 35.191406 10.214844 35.167969 10.191406 35.140625 C 8.457031 33.0625 7.40625 30.699219 6.699219 28.097656 C 6.6875 28.050781 6.667969 28 6.660156 27.949219 C 6.230469 26.371094 6.011719 24.773438 6.015625 23.140625 C 6.015625 23.101562 6.015625 23.0625 6.015625 23.023438 C 6.015625 22.503906 6.023438 21.988281 6.039062 21.46875 C 6.039062 21.417969 6.042969 21.359375 6.042969 21.304688 C 6.054688 20.941406 6.054688 20.941406 6.105469 20.890625 Z M 6.105469 20.890625 "/>
<path style=" stroke:none;fill-rule:nonzero;fill:rgb(91.37255%,68.627453%,18.039216%);fill-opacity:1;" d="M 70.808594 4.773438 C 70.859375 4.78125 70.910156 4.785156 70.960938 4.792969 C 71.609375 4.859375 71.609375 4.859375 71.824219 5.082031 C 71.925781 5.25 71.9375 5.386719 71.9375 5.578125 C 71.941406 5.625 71.941406 5.671875 71.941406 5.714844 C 71.941406 5.765625 71.941406 5.8125 71.941406 5.863281 C 71.941406 5.941406 71.941406 5.941406 71.941406 6.023438 C 71.941406 6.164062 71.941406 6.3125 71.941406 6.453125 C 71.941406 6.613281 71.941406 6.765625 71.941406 6.921875 C 71.941406 7.265625 71.941406 7.605469 71.941406 7.945312 C 71.941406 8.152344 71.941406 8.371094 71.941406 8.578125 C 71.941406 9.167969 71.941406 9.757812 71.941406 10.34375 C 71.941406 10.382812 71.941406 10.421875 71.941406 10.457031 C 71.941406 10.496094 71.941406 10.535156 71.941406 10.574219 C 71.941406 10.648438 71.941406 10.726562 71.941406 10.800781 C 71.941406 10.839844 71.941406 10.875 71.941406 10.914062 C 71.941406 11.535156 71.941406 12.144531 71.949219 12.757812 C 71.949219 13.394531 71.949219 14.023438 71.949219 14.652344 C 71.949219 15.007812 71.949219 15.359375 71.949219 15.71875 C 71.949219 16.019531 71.949219 16.320312 71.949219 16.621094 C 71.949219 16.777344 71.949219 16.933594 71.949219 17.085938 C 71.949219 17.25 71.949219 17.417969 71.949219 17.582031 C 71.949219 17.65625 71.949219 17.65625 71.949219 17.730469 C 71.949219 17.988281 71.929688 18.179688 71.808594 18.40625 C 71.519531 18.679688 71.058594 18.679688 70.679688 18.667969 C 69.863281 18.621094 68.808594 18.519531 68.160156 17.976562 C 67.9375 17.714844 67.746094 17.4375 67.558594 17.140625 C 67.503906 17.054688 67.453125 16.972656 67.394531 16.886719 C 67.375 16.851562 67.375 16.851562 67.351562 16.8125 C 67.113281 16.449219 66.878906 16.082031 66.640625 15.71875 C 66.5625 15.59375 66.476562 15.472656 66.398438 15.351562 C 66.179688 15.015625 65.964844 14.679688 65.746094 14.351562 C 65.492188 13.972656 65.242188 13.585938 64.996094 13.207031 C 64.917969 13.082031 64.832031 12.957031 64.753906 12.832031 C 64.726562 12.792969 64.703125 12.753906 64.675781 12.707031 C 64.617188 12.628906 64.566406 12.546875 64.515625 12.46875 C 64.40625 12.300781 64.296875 12.128906 64.191406 11.953125 C 64.171875 11.929688 64.15625 11.902344 64.140625 11.875 C 64.09375 11.800781 64.050781 11.730469 64.011719 11.660156 C 63.878906 11.488281 63.75 11.339844 63.539062 11.300781 C 63.367188 11.335938 63.3125 11.402344 63.199219 11.539062 C 63.171875 11.667969 63.171875 11.667969 63.175781 11.8125 C 63.175781 11.890625 63.175781 11.890625 63.175781 11.976562 C 63.175781 12.03125 63.175781 12.09375 63.175781 12.152344 C 63.175781 12.214844 63.175781 12.28125 63.175781 12.34375 C 63.175781 12.480469 63.175781 12.617188 63.175781 12.753906 C 63.175781 12.96875 63.175781 13.183594 63.175781 13.398438 C 63.175781 13.820312 63.175781 14.234375 63.175781 14.652344 C 63.175781 15.183594 63.175781 15.71875 63.175781 16.25 C 63.175781 16.464844 63.175781 16.675781 63.175781 16.890625 C 63.183594 17.027344 63.175781 17.160156 63.175781 17.292969 C 63.175781 17.355469 63.175781 17.414062 63.183594 17.476562 C 63.183594 17.816406 63.175781 18.070312 62.992188 18.359375 C 62.78125 18.53125 62.625 18.582031 62.359375 18.582031 C 62.304688 18.582031 62.304688 18.582031 62.242188 18.582031 C 62.175781 18.582031 62.175781 18.582031 62.113281 18.582031 C 62.066406 18.582031 62.023438 18.582031 61.972656 18.582031 C 61.882812 18.582031 61.785156 18.582031 61.6875 18.582031 C 61.542969 18.582031 61.402344 18.582031 61.253906 18.582031 C 61.164062 18.582031 61.070312 18.585938 60.980469 18.585938 C 60.933594 18.585938 60.894531 18.585938 60.851562 18.585938 C 60.179688 18.582031 60.179688 18.582031 59.9375 18.382812 C 59.824219 18.234375 59.800781 18.167969 59.800781 17.988281 C 59.800781 17.941406 59.800781 17.902344 59.800781 17.855469 C 59.800781 17.804688 59.800781 17.757812 59.800781 17.707031 C 59.800781 17.65625 59.800781 17.605469 59.800781 17.554688 C 59.800781 17.414062 59.800781 17.277344 59.800781 17.136719 C 59.796875 16.984375 59.796875 16.828125 59.796875 16.683594 C 59.796875 16.347656 59.796875 16.019531 59.792969 15.683594 C 59.792969 15.480469 59.792969 15.269531 59.792969 15.066406 C 59.792969 14.488281 59.785156 13.914062 59.785156 13.34375 C 59.785156 13.308594 59.785156 13.269531 59.785156 13.230469 C 59.785156 13.195312 59.785156 13.15625 59.785156 13.121094 C 59.785156 13.046875 59.78125 12.96875 59.78125 12.894531 C 59.78125 12.859375 59.78125 12.820312 59.78125 12.78125 C 59.78125 12.1875 59.773438 11.585938 59.773438 10.984375 C 59.769531 10.371094 59.769531 9.753906 59.769531 9.140625 C 59.761719 8.792969 59.761719 8.449219 59.761719 8.101562 C 59.757812 7.808594 59.757812 7.511719 59.757812 7.21875 C 59.757812 7.070312 59.757812 6.921875 59.757812 6.769531 C 59.757812 6.605469 59.75 6.445312 59.75 6.28125 C 59.75 6.238281 59.75 6.1875 59.75 6.140625 C 59.75 5.816406 59.757812 5.414062 59.960938 5.148438 C 60.410156 4.699219 61.175781 4.785156 61.75 4.792969 C 62.640625 4.8125 63.277344 5.207031 63.886719 5.839844 C 64.140625 6.140625 64.316406 6.488281 64.5 6.828125 C 64.996094 7.710938 65.542969 8.554688 66.101562 9.402344 C 66.257812 9.632812 66.410156 9.867188 66.5625 10.097656 C 66.613281 10.179688 66.667969 10.257812 66.71875 10.34375 C 67.101562 10.921875 67.101562 10.921875 67.484375 11.5 C 67.515625 11.542969 67.542969 11.585938 67.570312 11.628906 C 67.621094 11.710938 67.675781 11.789062 67.726562 11.867188 C 67.761719 11.917969 67.761719 11.917969 67.796875 11.976562 C 67.8125 12.003906 67.835938 12.03125 67.851562 12.066406 C 67.992188 12.265625 68.152344 12.328125 68.371094 12.394531 C 68.445312 11.691406 68.464844 10.988281 68.464844 10.28125 C 68.464844 10.179688 68.464844 10.078125 68.464844 9.980469 C 68.460938 9.714844 68.460938 9.453125 68.460938 9.191406 C 68.460938 8.773438 68.460938 8.351562 68.453125 7.933594 C 68.453125 7.785156 68.453125 7.644531 68.453125 7.496094 C 68.449219 5.464844 68.449219 5.464844 68.929688 4.921875 C 69.492188 4.59375 70.191406 4.710938 70.808594 4.773438 Z M 70.808594 4.773438 "/>
<path style=" stroke:none;fill-rule:nonzero;fill:rgb(91.37255%,68.627453%,18.039216%);fill-opacity:1;" d="M 50.710938 4.707031 C 50.738281 4.707031 50.773438 4.707031 50.804688 4.707031 C 52.882812 4.683594 54.75 5.234375 56.257812 6.726562 C 57.285156 7.773438 57.875 9.191406 58.074219 10.636719 C 58.078125 10.664062 58.078125 10.695312 58.085938 10.722656 C 58.320312 12.554688 57.882812 14.511719 56.777344 15.996094 C 56.652344 16.160156 56.519531 16.3125 56.378906 16.464844 C 56.304688 16.546875 56.238281 16.625 56.167969 16.710938 C 55.996094 16.921875 55.78125 17.078125 55.570312 17.242188 C 55.515625 17.292969 55.515625 17.292969 55.453125 17.339844 C 54.015625 18.484375 52.117188 18.875 50.328125 18.667969 C 48.503906 18.421875 46.804688 17.5625 45.667969 16.074219 C 45.246094 15.496094 44.925781 14.875 44.675781 14.199219 C 44.660156 14.160156 44.660156 14.160156 44.648438 14.121094 C 44.171875 12.796875 44.140625 11.226562 44.46875 9.867188 C 44.472656 9.832031 44.480469 9.796875 44.492188 9.765625 C 44.773438 8.597656 45.390625 7.5625 46.203125 6.691406 C 46.230469 6.664062 46.253906 6.632812 46.28125 6.605469 C 47.386719 5.4375 49.121094 4.722656 50.710938 4.707031 Z M 49.003906 8.578125 C 48.976562 8.601562 48.945312 8.617188 48.917969 8.640625 C 48.179688 9.230469 47.824219 10.230469 47.71875 11.148438 C 47.601562 12.277344 47.859375 13.363281 48.535156 14.285156 C 48.5625 14.324219 48.5625 14.324219 48.59375 14.367188 C 49.09375 15.027344 49.945312 15.429688 50.742188 15.542969 C 51.605469 15.640625 52.523438 15.46875 53.222656 14.917969 C 53.378906 14.789062 53.519531 14.648438 53.660156 14.5 C 53.695312 14.472656 53.730469 14.4375 53.757812 14.402344 C 54.46875 13.652344 54.738281 12.582031 54.730469 11.574219 C 54.6875 10.460938 54.292969 9.425781 53.492188 8.648438 C 53.132812 8.328125 52.722656 8.089844 52.265625 7.9375 C 52.226562 7.921875 52.1875 7.910156 52.148438 7.894531 C 51.078125 7.585938 49.847656 7.847656 49.003906 8.578125 Z M 49.003906 8.578125 "/>
<path style=" stroke:none;fill-rule:nonzero;fill:rgb(19.215687%,42.745098%,70.588237%);fill-opacity:1;" d="M 46.664062 22.046875 C 46.746094 22.046875 46.746094 22.046875 46.816406 22.046875 C 46.964844 22.046875 47.105469 22.046875 47.246094 22.046875 C 47.398438 22.046875 47.550781 22.046875 47.703125 22.046875 C 47.96875 22.046875 48.230469 22.046875 48.496094 22.046875 C 48.878906 22.046875 49.261719 22.046875 49.644531 22.046875 C 50.265625 22.046875 50.886719 22.046875 51.503906 22.046875 C 52.105469 22.046875 52.710938 22.046875 53.3125 22.046875 C 53.351562 22.046875 53.386719 22.046875 53.425781 22.046875 C 53.613281 22.046875 53.796875 22.046875 53.984375 22.046875 C 55.53125 22.046875 57.074219 22.046875 58.625 22.050781 C 58.625 23.167969 58.625 24.285156 58.625 25.4375 C 56.957031 25.4375 55.296875 25.4375 53.578125 25.4375 C 53.578125 30.335938 53.578125 35.234375 53.578125 40.28125 C 50.726562 40.28125 50.726562 40.28125 49.988281 39.574219 C 49.480469 39.019531 49.324219 38.382812 49.332031 37.644531 C 49.332031 37.589844 49.332031 37.539062 49.332031 37.488281 C 49.332031 37.339844 49.332031 37.199219 49.332031 37.050781 C 49.332031 36.898438 49.332031 36.738281 49.332031 36.585938 C 49.332031 36.3125 49.332031 36.046875 49.332031 35.773438 C 49.332031 35.382812 49.332031 34.992188 49.332031 34.605469 C 49.332031 33.972656 49.335938 33.335938 49.335938 32.699219 C 49.335938 32.089844 49.335938 31.476562 49.335938 30.859375 C 49.335938 30.820312 49.335938 30.785156 49.335938 30.746094 C 49.335938 30.550781 49.335938 30.363281 49.335938 30.171875 C 49.335938 28.59375 49.339844 27.011719 49.339844 25.4375 C 47.675781 25.4375 46.011719 25.4375 44.292969 25.4375 C 44.292969 23.304688 44.292969 23.304688 44.902344 22.660156 C 45.414062 22.164062 45.972656 22.039062 46.664062 22.046875 Z M 46.664062 22.046875 "/>
<path style=" stroke:none;fill-rule:nonzero;fill:rgb(19.215687%,42.745098%,70.588237%);fill-opacity:1;" d="M 124.664062 22.050781 C 124.898438 22.046875 125.136719 22.046875 125.371094 22.039062 C 125.453125 22.039062 125.535156 22.039062 125.617188 22.039062 C 126.21875 22.03125 126.796875 22.039062 127.34375 22.335938 C 127.390625 22.359375 127.390625 22.359375 127.429688 22.382812 C 128.109375 22.75 128.578125 23.332031 128.808594 24.078125 C 128.90625 24.410156 128.910156 24.738281 128.910156 25.078125 C 128.910156 25.132812 128.910156 25.183594 128.910156 25.234375 C 128.910156 25.375 128.910156 25.511719 128.910156 25.652344 C 128.90625 25.800781 128.90625 25.953125 128.90625 26.105469 C 128.90625 26.363281 128.90625 26.621094 128.90625 26.882812 C 128.90625 27.261719 128.90625 27.636719 128.90625 28.011719 C 128.90625 28.625 128.90625 29.238281 128.90625 29.84375 C 128.90625 30.4375 128.90625 31.027344 128.90625 31.625 C 128.90625 31.664062 128.90625 31.699219 128.90625 31.738281 C 128.90625 31.917969 128.90625 32.101562 128.90625 32.285156 C 128.90625 33.808594 128.90625 35.328125 128.90625 36.851562 C 128.957031 36.851562 129.007812 36.847656 129.0625 36.847656 C 129.5625 36.847656 130.066406 36.847656 130.5625 36.839844 C 130.820312 36.839844 131.078125 36.839844 131.332031 36.839844 C 131.582031 36.839844 131.828125 36.835938 132.082031 36.835938 C 132.171875 36.835938 132.269531 36.835938 132.363281 36.835938 C 132.988281 36.828125 133.597656 36.828125 134.167969 37.128906 C 134.195312 37.148438 134.222656 37.15625 134.25 37.175781 C 134.871094 37.515625 135.289062 38.078125 135.492188 38.75 C 135.539062 38.960938 135.5625 39.148438 135.5625 39.363281 C 135.5625 39.414062 135.5625 39.472656 135.5625 39.527344 C 135.5625 39.578125 135.5625 39.636719 135.558594 39.691406 C 135.558594 39.75 135.558594 39.804688 135.558594 39.863281 C 135.558594 40.003906 135.558594 40.140625 135.558594 40.28125 C 134.566406 40.28125 133.570312 40.289062 132.578125 40.289062 C 132.117188 40.289062 131.652344 40.289062 131.191406 40.292969 C 130.792969 40.292969 130.386719 40.292969 129.988281 40.292969 C 129.773438 40.292969 129.558594 40.292969 129.351562 40.292969 C 129.148438 40.292969 128.945312 40.292969 128.746094 40.292969 C 128.675781 40.292969 128.601562 40.292969 128.527344 40.300781 C 127.414062 40.304688 126.449219 40.050781 125.632812 39.246094 C 124.886719 38.492188 124.65625 37.527344 124.65625 36.496094 C 124.65625 36.433594 124.65625 36.371094 124.65625 36.308594 C 124.65625 36.136719 124.65625 35.96875 124.65625 35.792969 C 124.65625 35.609375 124.65625 35.421875 124.65625 35.242188 C 124.65625 34.917969 124.65625 34.601562 124.65625 34.28125 C 124.65625 33.816406 124.65625 33.359375 124.65625 32.894531 C 124.65625 32.144531 124.664062 31.398438 124.664062 30.648438 C 124.664062 29.921875 124.664062 29.191406 124.664062 28.464844 C 124.664062 28.417969 124.664062 28.375 124.664062 28.328125 C 124.664062 28.101562 124.664062 27.875 124.664062 27.65625 C 124.664062 25.78125 124.664062 23.917969 124.664062 22.050781 Z M 124.664062 22.050781 "/>
<path style=" stroke:none;fill-rule:nonzero;fill:rgb(18.82353%,42.352942%,70.19608%);fill-opacity:1;" d="M 28.429688 11.597656 C 28.570312 11.75 28.617188 11.890625 28.609375 12.09375 C 28.519531 12.363281 28.363281 12.546875 28.171875 12.746094 C 28.144531 12.773438 28.117188 12.804688 28.085938 12.835938 C 27.589844 13.359375 27.085938 13.863281 26.578125 14.375 C 26.464844 14.492188 26.351562 14.605469 26.234375 14.726562 C 26.121094 14.839844 26.015625 14.945312 25.902344 15.058594 C 25.84375 15.117188 25.792969 15.167969 25.742188 15.226562 C 25.25 15.722656 25.25 15.722656 24.988281 15.945312 C 24.90625 16.019531 24.832031 16.09375 24.757812 16.171875 C 24.644531 16.285156 24.539062 16.386719 24.421875 16.488281 C 24.246094 16.640625 24.085938 16.808594 23.925781 16.972656 C 23.816406 17.078125 23.703125 17.175781 23.585938 17.265625 C 23.433594 17.425781 23.421875 17.640625 23.40625 17.84375 C 23.402344 17.878906 23.402344 17.90625 23.394531 17.933594 C 23.382812 18.042969 23.378906 18.144531 23.367188 18.246094 C 23.359375 18.320312 23.351562 18.394531 23.34375 18.472656 C 23.21875 19.761719 23.113281 21.054688 23.007812 22.339844 C 22.984375 22.613281 22.960938 22.878906 22.9375 23.144531 C 22.921875 23.289062 22.910156 23.425781 22.898438 23.566406 C 22.816406 24.558594 22.816406 24.558594 22.742188 25.019531 C 22.734375 25.046875 22.734375 25.074219 22.730469 25.109375 C 22.589844 25.917969 22.144531 26.660156 21.492188 27.15625 C 21.371094 27.222656 21.332031 27.242188 21.191406 27.242188 C 21.058594 27.007812 21.023438 26.769531 20.984375 26.503906 C 20.972656 26.453125 20.96875 26.40625 20.960938 26.355469 C 20.9375 26.21875 20.917969 26.082031 20.894531 25.949219 C 20.875 25.835938 20.859375 25.722656 20.84375 25.601562 C 20.78125 25.214844 20.71875 24.824219 20.664062 24.433594 C 20.644531 24.320312 20.625 24.207031 20.605469 24.085938 C 20.492188 23.355469 20.382812 22.617188 20.269531 21.886719 C 20.257812 21.808594 20.246094 21.734375 20.234375 21.65625 C 20.210938 21.511719 20.195312 21.371094 20.171875 21.222656 C 20.160156 21.160156 20.148438 21.097656 20.140625 21.03125 C 20.132812 20.976562 20.121094 20.921875 20.117188 20.867188 C 20.097656 20.742188 20.078125 20.625 20.046875 20.503906 C 19.835938 20.664062 19.636719 20.828125 19.441406 21.003906 C 19.128906 21.269531 18.808594 21.519531 18.484375 21.769531 C 18.351562 21.863281 18.230469 21.96875 18.105469 22.070312 C 17.613281 22.460938 17.125 22.847656 16.628906 23.21875 C 16.464844 23.34375 16.300781 23.46875 16.144531 23.59375 C 14.371094 24.976562 14.371094 24.976562 13.226562 24.882812 C 12.777344 24.78125 12.433594 24.523438 12.121094 24.195312 C 12.039062 24.109375 11.953125 24.03125 11.871094 23.957031 C 11.757812 23.859375 11.65625 23.765625 11.554688 23.65625 C 11.453125 23.554688 11.34375 23.457031 11.238281 23.363281 C 11.109375 23.253906 10.992188 23.136719 10.871094 23.015625 C 10.757812 22.898438 10.648438 22.789062 10.523438 22.679688 C 10.359375 22.539062 10.207031 22.390625 10.050781 22.238281 C 10.015625 22.199219 10.015625 22.199219 9.976562 22.164062 C 9.824219 22.011719 9.71875 21.882812 9.699219 21.65625 C 9.722656 21.410156 9.777344 21.273438 9.960938 21.105469 C 10.445312 20.859375 10.90625 20.941406 11.402344 21.097656 C 11.75 21.21875 12.101562 21.347656 12.445312 21.496094 C 12.855469 21.671875 13.222656 21.761719 13.660156 21.621094 C 13.929688 21.496094 14.140625 21.328125 14.347656 21.121094 C 14.453125 21.019531 14.5625 20.929688 14.675781 20.839844 C 14.933594 20.628906 15.171875 20.402344 15.414062 20.167969 C 15.542969 20.042969 15.675781 19.925781 15.8125 19.804688 C 15.925781 19.703125 16.039062 19.601562 16.152344 19.496094 C 16.320312 19.339844 16.488281 19.1875 16.65625 19.042969 C 16.765625 18.945312 16.871094 18.84375 16.980469 18.746094 C 17.136719 18.597656 17.300781 18.453125 17.464844 18.308594 C 17.609375 18.179688 17.757812 18.042969 17.902344 17.90625 C 18 17.820312 18.089844 17.738281 18.183594 17.65625 C 18.324219 17.527344 18.464844 17.398438 18.605469 17.265625 C 18.777344 17.109375 18.945312 16.953125 19.121094 16.808594 C 19.289062 16.652344 19.457031 16.5 19.625 16.34375 C 19.734375 16.246094 19.839844 16.148438 19.941406 16.054688 C 20.015625 15.992188 20.089844 15.921875 20.160156 15.859375 C 20.320312 15.710938 20.476562 15.566406 20.640625 15.421875 C 20.773438 15.304688 20.910156 15.179688 21.046875 15.054688 C 21.210938 14.90625 21.367188 14.761719 21.535156 14.617188 C 21.703125 14.464844 21.875 14.3125 22.042969 14.160156 C 22.339844 13.886719 22.632812 13.613281 22.9375 13.355469 C 22.988281 13.308594 23.039062 13.269531 23.089844 13.222656 C 23.128906 13.1875 23.128906 13.1875 23.167969 13.15625 C 23.332031 13.011719 23.496094 12.867188 23.652344 12.71875 C 24.742188 11.699219 26.996094 10.433594 28.429688 11.597656 Z M 28.429688 11.597656 "/>
<path style=" stroke:none;fill-rule:nonzero;fill:rgb(91.37255%,68.627453%,18.039216%);fill-opacity:1;" d="M 75.078125 4.835938 C 75.109375 4.835938 75.136719 4.835938 75.164062 4.835938 C 75.261719 4.835938 75.359375 4.835938 75.457031 4.835938 C 75.523438 4.835938 75.59375 4.835938 75.664062 4.835938 C 75.851562 4.832031 76.042969 4.832031 76.230469 4.832031 C 76.347656 4.832031 76.464844 4.832031 76.582031 4.832031 C 76.996094 4.832031 77.40625 4.832031 77.816406 4.832031 C 78.199219 4.832031 78.589844 4.832031 78.972656 4.832031 C 79.300781 4.824219 79.632812 4.824219 79.957031 4.824219 C 80.15625 4.824219 80.351562 4.824219 80.550781 4.824219 C 80.734375 4.824219 80.921875 4.824219 81.101562 4.824219 C 81.167969 4.824219 81.238281 4.824219 81.308594 4.824219 C 81.945312 4.820312 81.945312 4.820312 82.234375 5.019531 C 82.4375 5.234375 82.453125 5.421875 82.464844 5.710938 C 82.464844 5.761719 82.464844 5.761719 82.464844 5.8125 C 82.464844 5.886719 82.46875 5.953125 82.46875 6.027344 C 82.476562 6.140625 82.476562 6.25 82.480469 6.355469 C 82.488281 6.429688 82.488281 6.5 82.488281 6.566406 C 82.492188 6.617188 82.492188 6.617188 82.492188 6.667969 C 82.5 6.96875 82.46875 7.308594 82.277344 7.546875 C 82.015625 7.707031 81.792969 7.730469 81.496094 7.722656 C 81.460938 7.722656 81.421875 7.722656 81.390625 7.722656 C 81.308594 7.722656 81.230469 7.722656 81.15625 7.722656 C 81.035156 7.722656 80.910156 7.722656 80.785156 7.71875 C 80.4375 7.71875 80.085938 7.71875 79.734375 7.710938 C 79.519531 7.710938 79.304688 7.710938 79.089844 7.710938 C 79.011719 7.710938 78.925781 7.710938 78.847656 7.710938 C 78.734375 7.707031 78.617188 7.707031 78.503906 7.707031 C 78.453125 7.707031 78.453125 7.707031 78.402344 7.707031 C 78.171875 7.707031 77.953125 7.746094 77.738281 7.847656 C 77.550781 8.082031 77.523438 8.265625 77.519531 8.554688 C 77.519531 8.585938 77.519531 8.617188 77.519531 8.652344 C 77.519531 8.714844 77.519531 8.785156 77.519531 8.851562 C 77.519531 8.953125 77.519531 9.050781 77.511719 9.152344 C 77.511719 9.21875 77.511719 9.28125 77.511719 9.34375 C 77.511719 9.390625 77.511719 9.390625 77.511719 9.433594 C 77.511719 9.703125 77.570312 9.941406 77.742188 10.136719 C 78.085938 10.335938 78.480469 10.304688 78.859375 10.296875 C 78.960938 10.296875 79.066406 10.296875 79.167969 10.296875 C 79.457031 10.292969 79.75 10.292969 80.042969 10.285156 C 80.222656 10.285156 80.398438 10.285156 80.578125 10.28125 C 80.644531 10.28125 80.710938 10.28125 80.78125 10.28125 C 81.445312 10.269531 81.445312 10.269531 81.726562 10.46875 C 81.929688 10.785156 81.902344 11.125 81.90625 11.492188 C 81.90625 11.589844 81.90625 11.6875 81.90625 11.78125 C 81.914062 12.527344 81.914062 12.527344 81.710938 12.765625 C 81.496094 12.957031 81.320312 12.960938 81.046875 12.957031 C 81 12.957031 81 12.957031 80.953125 12.957031 C 80.894531 12.957031 80.832031 12.957031 80.761719 12.957031 C 80.664062 12.957031 80.5625 12.957031 80.460938 12.949219 C 80.171875 12.949219 79.878906 12.949219 79.59375 12.945312 C 79.410156 12.945312 79.238281 12.945312 79.058594 12.945312 C 78.996094 12.945312 78.925781 12.945312 78.859375 12.945312 C 78.269531 12.917969 78.269531 12.917969 77.765625 13.183594 C 77.523438 13.597656 77.5625 14.109375 77.558594 14.566406 C 77.558594 14.617188 77.550781 14.667969 77.550781 14.71875 C 77.550781 15.027344 77.574219 15.230469 77.738281 15.484375 C 77.996094 15.691406 78.25 15.707031 78.566406 15.703125 C 78.640625 15.703125 78.714844 15.703125 78.785156 15.703125 C 78.824219 15.703125 78.863281 15.703125 78.910156 15.703125 C 79.601562 15.695312 80.300781 15.703125 81 15.710938 C 81.085938 15.710938 81.167969 15.710938 81.253906 15.71875 C 81.367188 15.71875 81.484375 15.71875 81.601562 15.722656 C 81.636719 15.722656 81.671875 15.722656 81.710938 15.722656 C 81.957031 15.730469 82.125 15.792969 82.328125 15.945312 C 82.5 16.171875 82.5 16.472656 82.5 16.746094 C 82.5 16.777344 82.5 16.8125 82.5 16.847656 C 82.503906 16.914062 82.503906 16.984375 82.503906 17.050781 C 82.5 17.160156 82.503906 17.261719 82.503906 17.363281 C 82.503906 18.167969 82.503906 18.167969 82.261719 18.421875 C 82.046875 18.546875 81.890625 18.585938 81.640625 18.585938 C 81.609375 18.585938 81.582031 18.585938 81.550781 18.585938 C 81.449219 18.585938 81.355469 18.585938 81.257812 18.585938 C 81.1875 18.585938 81.117188 18.585938 81.046875 18.585938 C 80.855469 18.585938 80.664062 18.585938 80.46875 18.585938 C 80.3125 18.585938 80.148438 18.585938 79.992188 18.585938 C 79.613281 18.585938 79.238281 18.585938 78.859375 18.585938 C 78.472656 18.585938 78.082031 18.585938 77.695312 18.585938 C 77.359375 18.59375 77.027344 18.59375 76.691406 18.59375 C 76.492188 18.59375 76.296875 18.59375 76.09375 18.59375 C 75.90625 18.59375 75.722656 18.59375 75.53125 18.59375 C 75.460938 18.59375 75.394531 18.59375 75.328125 18.59375 C 74.574219 18.59375 74.574219 18.59375 74.269531 18.347656 C 74.058594 18.082031 74.082031 17.792969 74.082031 17.46875 C 74.082031 17.390625 74.082031 17.390625 74.082031 17.316406 C 74.082031 17.175781 74.082031 17.035156 74.082031 16.890625 C 74.082031 16.738281 74.082031 16.585938 74.082031 16.433594 C 74.082031 16.132812 74.082031 15.832031 74.082031 15.535156 C 74.082031 15.292969 74.082031 15.050781 74.082031 14.804688 C 74.082031 14.113281 74.078125 13.421875 74.078125 12.734375 C 74.078125 12.695312 74.078125 12.660156 74.078125 12.621094 C 74.078125 12.582031 74.078125 12.546875 74.078125 12.507812 C 74.078125 11.90625 74.078125 11.300781 74.078125 10.699219 C 74.078125 10.082031 74.078125 9.457031 74.078125 8.839844 C 74.078125 8.496094 74.078125 8.144531 74.078125 7.796875 C 74.070312 7.5 74.070312 7.203125 74.078125 6.90625 C 74.078125 6.757812 74.078125 6.605469 74.070312 6.453125 C 74.070312 6.289062 74.070312 6.128906 74.078125 5.964844 C 74.070312 5.914062 74.070312 5.867188 74.070312 5.816406 C 74.078125 5.488281 74.128906 5.246094 74.363281 5 C 74.589844 4.863281 74.816406 4.835938 75.078125 4.835938 Z M 75.078125 4.835938 "/>
<path style=" stroke:none;fill-rule:nonzero;fill:rgb(88.235295%,59.607846%,5.490196%);fill-opacity:1;" d="M 32.46875 22.738281 C 32.488281 22.738281 32.5 22.738281 32.515625 22.738281 C 32.554688 26.132812 32.019531 29.507812 30.476562 34.449219 C 30.457031 34.492188 30.457031 34.492188 30.449219 34.539062 C 30.417969 34.625 30.386719 34.703125 30.359375 34.789062 C 30.347656 34.832031 30.328125 34.882812 30.3125 34.929688 C 30.265625 35.046875 30.265625 35.046875 30.183594 35.179688 C 30.070312 35.203125 30.070312 35.203125 29.933594 35.214844 C 29.882812 35.21875 29.832031 35.222656 29.78125 35.230469 C 29.730469 35.234375 29.675781 35.242188 29.621094 35.246094 C 29.570312 35.253906 29.519531 35.257812 29.46875 35.265625 C 29.308594 35.273438 29.152344 35.292969 28.996094 35.304688 C 28.949219 35.308594 28.902344 35.316406 28.851562 35.320312 C 28.359375 35.359375 27.855469 35.355469 27.355469 35.355469 C 27.195312 35.355469 27.046875 35.355469 26.894531 35.359375 C 26.046875 35.359375 25.214844 35.320312 24.378906 35.191406 C 24.335938 35.183594 24.285156 35.171875 24.238281 35.167969 C 23.6875 35.082031 23.140625 34.996094 22.59375 34.90625 C 22.207031 34.84375 21.8125 34.78125 21.421875 34.726562 C 19.289062 34.40625 19.289062 34.40625 18.695312 34.0625 C 18.679688 34.035156 18.667969 34.003906 18.652344 33.976562 C 18.683594 33.972656 18.726562 33.964844 18.757812 33.960938 C 21.804688 33.539062 24.550781 32.265625 26.964844 30.347656 C 27.054688 30.273438 27.148438 30.207031 27.238281 30.136719 C 27.394531 30.011719 27.550781 29.882812 27.714844 29.757812 C 27.777344 29.707031 27.839844 29.65625 27.90625 29.609375 C 28.679688 29.003906 29.421875 28.328125 30.015625 27.539062 C 30.054688 27.484375 30.097656 27.433594 30.136719 27.375 C 31.21875 25.988281 31.96875 24.421875 32.46875 22.738281 Z M 32.46875 22.738281 "/>
<path style=" stroke:none;fill-rule:nonzero;fill:rgb(96.862745%,68.627453%,15.686275%);fill-opacity:1;" d="M 8.265625 4.503906 C 8.265625 4.683594 8.191406 4.722656 8.066406 4.855469 C 7.769531 5.171875 7.507812 5.523438 7.25 5.875 C 7.234375 5.902344 7.210938 5.929688 7.195312 5.953125 C 6.738281 6.570312 6.34375 7.222656 5.976562 7.898438 C 5.9375 7.976562 5.890625 8.050781 5.851562 8.125 C 4.765625 10.121094 4.179688 12.378906 3.898438 14.628906 C 3.890625 14.675781 3.886719 14.726562 3.882812 14.777344 C 3.417969 18.453125 3.988281 22.25 5.425781 27.457031 C 5.4375 27.488281 5.449219 27.523438 5.457031 27.558594 C 6 29.230469 6.628906 30.859375 7.386719 32.441406 C 7.445312 32.566406 7.496094 32.691406 7.546875 32.8125 C 7.578125 32.8125 7.597656 32.8125 7.632812 32.8125 C 7.644531 32.886719 7.660156 32.957031 7.671875 33.03125 C 6.890625 32.660156 6.164062 31.820312 5.640625 31.140625 C 5.59375 31.085938 5.546875 31.027344 5.503906 30.972656 C 3.207031 28.035156 1.882812 24.5625 1.488281 20.851562 C 1.480469 20.804688 1.476562 20.765625 1.46875 20.726562 C 1.347656 19.402344 1.378906 17.996094 1.570312 16.6875 C 1.578125 16.640625 1.578125 16.640625 1.582031 16.597656 C 1.964844 13.921875 2.832031 11.296875 4.28125 9.011719 C 4.296875 8.980469 4.320312 8.949219 4.335938 8.917969 C 4.945312 7.960938 5.644531 7.003906 6.457031 6.210938 C 6.527344 6.128906 6.601562 6.050781 6.667969 5.964844 C 6.8125 5.800781 6.96875 5.660156 7.132812 5.511719 C 7.238281 5.414062 7.347656 5.3125 7.453125 5.214844 C 7.71875 4.96875 7.980469 4.730469 8.265625 4.503906 Z M 8.265625 4.503906 "/>
<path style=" stroke:none;fill-rule:nonzero;fill:rgb(19.215687%,42.745098%,70.588237%);fill-opacity:1;" d="M 117.503906 4.796875 C 117.539062 4.792969 117.570312 4.792969 117.597656 4.792969 C 118.304688 4.785156 118.980469 4.785156 119.660156 4.980469 C 119.699219 4.984375 119.734375 4.996094 119.773438 5.007812 C 120.566406 5.226562 121.316406 5.597656 121.953125 6.136719 C 121.988281 6.164062 121.988281 6.164062 122.027344 6.199219 C 122.320312 6.441406 122.605469 6.683594 122.84375 6.992188 C 122.871094 7.03125 122.898438 7.066406 122.929688 7.105469 C 123.902344 8.371094 123.902344 8.371094 123.902344 8.878906 C 123.445312 9.050781 122.996094 9.0625 122.546875 8.878906 C 122.191406 8.664062 121.960938 8.359375 121.734375 8.011719 C 121.070312 7.027344 120.105469 6.441406 118.957031 6.199219 C 117.597656 5.941406 116.113281 6.175781 114.957031 6.953125 C 114.792969 7.070312 114.640625 7.203125 114.488281 7.335938 C 114.46875 7.355469 114.4375 7.378906 114.410156 7.394531 C 113.476562 8.132812 112.953125 9.488281 112.789062 10.636719 C 112.6875 11.5 112.679688 12.453125 112.878906 13.296875 C 112.890625 13.34375 112.890625 13.34375 112.902344 13.386719 C 113.207031 14.699219 113.992188 15.882812 115.125 16.597656 C 115.871094 17.050781 116.714844 17.339844 117.589844 17.375 C 117.621094 17.375 117.660156 17.378906 117.699219 17.378906 C 119.046875 17.40625 120.296875 16.921875 121.285156 15.996094 C 121.542969 15.742188 121.746094 15.445312 121.953125 15.144531 C 122.171875 14.816406 122.40625 14.578125 122.796875 14.5 C 122.882812 14.492188 122.972656 14.492188 123.058594 14.492188 C 123.109375 14.492188 123.152344 14.492188 123.203125 14.492188 C 123.28125 14.5 123.28125 14.5 123.363281 14.5 C 123.441406 14.5 123.441406 14.5 123.519531 14.5 C 123.644531 14.5 123.773438 14.5 123.902344 14.5 C 123.75 15.304688 123.214844 16.058594 122.675781 16.640625 C 122.652344 16.664062 122.628906 16.695312 122.605469 16.714844 C 121.796875 17.601562 120.765625 18.183594 119.605469 18.484375 C 119.578125 18.492188 119.542969 18.503906 119.507812 18.507812 C 118.984375 18.632812 118.457031 18.679688 117.921875 18.671875 C 117.890625 18.671875 117.863281 18.671875 117.835938 18.671875 C 116.027344 18.667969 114.4375 18.019531 113.136719 16.75 C 112.753906 16.347656 112.433594 15.894531 112.15625 15.402344 C 112.144531 15.378906 112.128906 15.351562 112.117188 15.328125 C 111.167969 13.597656 111.058594 11.410156 111.570312 9.519531 C 111.832031 8.609375 112.230469 7.761719 112.839844 7.035156 C 112.855469 7.015625 112.878906 6.992188 112.894531 6.964844 C 114.011719 5.640625 115.78125 4.8125 117.503906 4.796875 Z M 117.503906 4.796875 "/>
<path style=" stroke:none;fill-rule:nonzero;fill:rgb(19.215687%,42.745098%,70.588237%);fill-opacity:1;" d="M 90.847656 4.792969 C 90.898438 4.792969 90.898438 4.792969 90.941406 4.792969 C 92.578125 4.796875 94.085938 5.339844 95.292969 6.476562 C 95.347656 6.527344 95.347656 6.527344 95.402344 6.582031 C 96.046875 7.203125 96.558594 8.019531 96.8125 8.878906 C 96.382812 9.023438 95.832031 9.054688 95.421875 8.851562 C 95.101562 8.648438 94.914062 8.386719 94.707031 8.074219 C 93.984375 6.984375 92.902344 6.417969 91.65625 6.152344 C 90.4375 5.914062 89.050781 6.191406 88.007812 6.882812 C 87.699219 7.09375 87.417969 7.332031 87.152344 7.59375 C 87.125 7.621094 87.09375 7.644531 87.066406 7.671875 C 86.234375 8.460938 85.777344 9.640625 85.664062 10.769531 C 85.664062 10.796875 85.660156 10.824219 85.660156 10.851562 C 85.5 12.503906 85.839844 14.3125 86.898438 15.617188 C 86.925781 15.648438 86.953125 15.691406 86.988281 15.730469 C 87.742188 16.632812 88.980469 17.199219 90.144531 17.324219 C 90.773438 17.375 91.410156 17.363281 92.023438 17.203125 C 92.050781 17.191406 92.082031 17.1875 92.109375 17.179688 C 93.332031 16.859375 94.226562 16.105469 94.980469 15.105469 C 95.210938 14.804688 95.410156 14.554688 95.796875 14.5 C 96.140625 14.476562 96.472656 14.488281 96.8125 14.542969 C 96.789062 14.753906 96.722656 14.929688 96.625 15.117188 C 96.605469 15.164062 96.605469 15.164062 96.582031 15.207031 C 96.316406 15.71875 96.023438 16.183594 95.628906 16.601562 C 95.585938 16.660156 95.535156 16.714844 95.488281 16.773438 C 94.476562 17.941406 92.871094 18.570312 91.367188 18.695312 C 91.273438 18.695312 91.183594 18.699219 91.09375 18.699219 C 91.054688 18.707031 91.023438 18.707031 90.980469 18.707031 C 89.296875 18.75 87.589844 18.167969 86.355469 16.992188 C 86.296875 16.933594 86.234375 16.875 86.175781 16.816406 C 86.136719 16.785156 86.105469 16.75 86.0625 16.714844 C 85.023438 15.707031 84.429688 14.25 84.226562 12.828125 C 84.222656 12.796875 84.214844 12.773438 84.210938 12.746094 C 84.171875 12.417969 84.171875 12.09375 84.171875 11.765625 C 84.171875 11.714844 84.171875 11.714844 84.171875 11.667969 C 84.171875 11.148438 84.207031 10.636719 84.3125 10.121094 C 84.316406 10.085938 84.324219 10.054688 84.328125 10.019531 C 84.710938 8.273438 85.714844 6.753906 87.207031 5.785156 C 88.304688 5.09375 89.558594 4.785156 90.847656 4.792969 Z M 90.847656 4.792969 "/>
<path style=" stroke:none;fill-rule:nonzero;fill:rgb(19.215687%,42.745098%,70.588237%);fill-opacity:1;" d="M 127.847656 5.101562 C 127.957031 5.261719 127.988281 5.371094 127.988281 5.5625 C 127.988281 5.613281 127.988281 5.660156 127.988281 5.710938 C 127.988281 5.761719 127.988281 5.816406 127.988281 5.867188 C 127.988281 5.953125 127.988281 5.953125 127.992188 6.039062 C 127.992188 6.191406 127.992188 6.351562 127.992188 6.503906 C 127.992188 6.664062 127.992188 6.820312 127.992188 6.984375 C 128 7.285156 128 7.59375 128 7.894531 C 128 8.238281 128.003906 8.585938 128.003906 8.929688 C 128.007812 9.644531 128.007812 10.355469 128.015625 11.070312 C 128.121094 10.957031 128.222656 10.835938 128.332031 10.722656 C 128.363281 10.695312 128.390625 10.660156 128.421875 10.625 C 128.617188 10.417969 128.816406 10.207031 129.007812 9.996094 C 129.226562 9.757812 129.445312 9.519531 129.664062 9.289062 C 129.886719 9.050781 130.105469 8.8125 130.324219 8.578125 C 130.363281 8.535156 130.363281 8.535156 130.402344 8.488281 C 130.53125 8.351562 130.664062 8.210938 130.792969 8.070312 C 131.125 7.710938 131.457031 7.359375 131.800781 7.019531 C 132.003906 6.816406 132.195312 6.613281 132.378906 6.390625 C 132.398438 6.367188 132.414062 6.34375 132.4375 6.324219 C 132.488281 6.261719 132.539062 6.199219 132.589844 6.136719 C 132.605469 6.113281 132.628906 6.09375 132.644531 6.074219 C 132.753906 5.941406 132.855469 5.804688 132.949219 5.671875 C 133.257812 5.269531 133.691406 5.070312 134.179688 4.996094 C 134.589844 4.957031 134.984375 5 135.390625 5.0625 C 135.269531 5.257812 135.136719 5.414062 134.972656 5.574219 C 134.804688 5.738281 134.644531 5.910156 134.488281 6.089844 C 134.363281 6.238281 134.226562 6.378906 134.09375 6.519531 C 134.03125 6.589844 133.976562 6.652344 133.914062 6.714844 C 133.886719 6.746094 133.851562 6.78125 133.824219 6.808594 C 133.691406 6.953125 133.5625 7.09375 133.433594 7.234375 C 133.410156 7.257812 133.382812 7.285156 133.359375 7.316406 C 133.308594 7.367188 133.265625 7.417969 133.214844 7.472656 C 133.066406 7.632812 132.921875 7.792969 132.769531 7.949219 C 132.644531 8.089844 132.515625 8.226562 132.390625 8.363281 C 132.363281 8.390625 132.335938 8.425781 132.308594 8.453125 C 132.261719 8.503906 132.210938 8.5625 132.160156 8.613281 C 132.046875 8.738281 131.929688 8.863281 131.804688 8.980469 C 131.703125 9.089844 131.609375 9.199219 131.511719 9.304688 C 131.332031 9.519531 131.136719 9.714844 130.9375 9.910156 C 130.796875 10.046875 130.664062 10.191406 130.53125 10.34375 C 130.363281 10.542969 130.171875 10.722656 129.980469 10.910156 C 129.75 11.132812 129.535156 11.398438 129.507812 11.730469 C 129.546875 12.253906 130.058594 12.640625 130.402344 12.980469 C 130.515625 13.09375 130.625 13.199219 130.734375 13.308594 C 130.757812 13.335938 130.785156 13.359375 130.816406 13.386719 C 130.96875 13.539062 131.113281 13.699219 131.253906 13.871094 C 131.367188 14 131.492188 14.121094 131.613281 14.242188 C 131.792969 14.425781 131.96875 14.605469 132.136719 14.804688 C 132.261719 14.945312 132.398438 15.078125 132.53125 15.207031 C 132.644531 15.328125 132.753906 15.453125 132.859375 15.578125 C 132.960938 15.695312 133.074219 15.804688 133.1875 15.917969 C 133.292969 16.023438 133.394531 16.144531 133.492188 16.261719 C 133.585938 16.371094 133.6875 16.464844 133.789062 16.570312 C 133.890625 16.675781 133.984375 16.789062 134.085938 16.902344 C 134.15625 16.984375 134.226562 17.0625 134.308594 17.136719 C 134.410156 17.238281 134.503906 17.34375 134.601562 17.460938 C 134.703125 17.578125 134.808594 17.691406 134.921875 17.804688 C 135.125 18.003906 135.316406 18.207031 135.472656 18.445312 C 135.035156 18.644531 134.425781 18.648438 133.96875 18.503906 C 133.421875 18.285156 133 17.914062 132.621094 17.460938 C 132.539062 17.363281 132.449219 17.261719 132.363281 17.164062 C 132.269531 17.054688 132.171875 16.949219 132.078125 16.839844 C 131.8125 16.546875 131.546875 16.25 131.277344 15.957031 C 131.253906 15.929688 131.226562 15.90625 131.203125 15.878906 C 131.125 15.792969 131.046875 15.707031 130.96875 15.621094 C 130.945312 15.59375 130.921875 15.570312 130.894531 15.542969 C 130.753906 15.382812 130.605469 15.234375 130.453125 15.082031 C 130.386719 15.007812 130.320312 14.9375 130.25 14.855469 C 130.117188 14.699219 129.964844 14.542969 129.8125 14.390625 C 129.644531 14.222656 129.480469 14.050781 129.320312 13.863281 C 129.1875 13.710938 129.039062 13.5625 128.894531 13.417969 C 128.742188 13.261719 128.589844 13.105469 128.453125 12.941406 C 128.433594 12.917969 128.414062 12.894531 128.390625 12.871094 C 128.375 12.84375 128.359375 12.820312 128.339844 12.792969 C 128.261719 12.722656 128.261719 12.722656 128.132812 12.757812 C 128.09375 12.769531 128.054688 12.773438 128.015625 12.78125 C 128.015625 12.808594 128.015625 12.835938 128.015625 12.867188 C 128.007812 13.546875 128.007812 14.226562 128.003906 14.902344 C 128 15.230469 128 15.558594 128 15.886719 C 128 16.171875 128 16.460938 127.992188 16.746094 C 127.992188 16.898438 127.992188 17.050781 127.992188 17.199219 C 127.992188 17.367188 127.992188 17.539062 127.988281 17.707031 C 127.988281 17.757812 127.988281 17.804688 127.988281 17.863281 C 127.988281 17.90625 127.988281 17.953125 127.988281 17.996094 C 127.988281 18.058594 127.988281 18.058594 127.988281 18.121094 C 127.964844 18.253906 127.925781 18.339844 127.847656 18.445312 C 127.648438 18.574219 127.472656 18.59375 127.25 18.59375 C 127.214844 18.59375 127.1875 18.59375 127.160156 18.59375 C 126.96875 18.59375 126.847656 18.566406 126.695312 18.445312 C 126.578125 18.316406 126.554688 18.230469 126.554688 18.054688 C 126.554688 18.007812 126.554688 17.964844 126.554688 17.917969 C 126.554688 17.867188 126.554688 17.816406 126.554688 17.765625 C 126.554688 17.714844 126.554688 17.65625 126.554688 17.605469 C 126.554688 17.460938 126.554688 17.3125 126.554688 17.164062 C 126.554688 17.011719 126.554688 16.851562 126.554688 16.695312 C 126.554688 16.382812 126.554688 16.074219 126.554688 15.761719 C 126.554688 15.515625 126.554688 15.265625 126.554688 15.007812 C 126.554688 14.976562 126.554688 14.941406 126.554688 14.902344 C 126.554688 14.832031 126.554688 14.761719 126.554688 14.6875 C 126.554688 14.003906 126.554688 13.324219 126.554688 12.644531 C 126.554688 12.054688 126.554688 11.472656 126.554688 10.886719 C 126.554688 10.210938 126.554688 9.53125 126.554688 8.851562 C 126.554688 8.785156 126.554688 8.710938 126.554688 8.636719 C 126.554688 8.601562 126.554688 8.5625 126.554688 8.527344 C 126.554688 8.277344 126.554688 8.027344 126.554688 7.773438 C 126.554688 7.46875 126.554688 7.160156 126.554688 6.855469 C 126.554688 6.703125 126.554688 6.542969 126.554688 6.390625 C 126.554688 6.21875 126.554688 6.050781 126.554688 5.878906 C 126.554688 5.835938 126.554688 5.785156 126.554688 5.734375 C 126.554688 5.496094 126.554688 5.308594 126.695312 5.101562 C 127.039062 4.886719 127.496094 4.917969 127.847656 5.101562 Z M 127.847656 5.101562 "/>
<path style=" stroke:none;fill-rule:nonzero;fill:rgb(19.215687%,42.745098%,70.588237%);fill-opacity:1;" d="M 100.714844 5.101562 C 100.855469 5.289062 100.863281 5.464844 100.863281 5.6875 C 100.863281 5.726562 100.863281 5.765625 100.863281 5.800781 C 100.863281 5.929688 100.863281 6.054688 100.863281 6.179688 C 100.863281 6.269531 100.863281 6.363281 100.867188 6.453125 C 100.867188 6.707031 100.867188 6.957031 100.867188 7.210938 C 100.875 7.421875 100.875 7.636719 100.875 7.847656 C 100.886719 9.144531 100.886719 10.449219 100.886719 11.75 C 100.878906 11.9375 100.878906 12.125 100.878906 12.308594 C 100.878906 12.496094 100.878906 12.683594 100.878906 12.867188 C 100.878906 12.90625 100.878906 12.941406 100.878906 12.980469 C 100.878906 13.421875 100.878906 13.863281 100.875 14.304688 C 100.875 14.585938 100.875 14.867188 100.875 15.144531 C 100.875 15.339844 100.875 15.535156 100.875 15.730469 C 100.867188 15.878906 100.867188 16.023438 100.867188 16.171875 C 100.867188 16.222656 100.867188 16.273438 100.867188 16.332031 C 100.867188 16.609375 100.890625 16.816406 101.007812 17.074219 C 101.183594 17.242188 101.320312 17.292969 101.550781 17.292969 C 101.59375 17.292969 101.632812 17.292969 101.675781 17.289062 C 101.71875 17.289062 101.765625 17.289062 101.808594 17.289062 C 101.910156 17.289062 102.007812 17.289062 102.101562 17.289062 C 102.179688 17.289062 102.179688 17.289062 102.261719 17.289062 C 103.03125 17.285156 103.796875 17.285156 104.570312 17.292969 C 104.648438 17.292969 104.722656 17.292969 104.792969 17.292969 C 104.894531 17.292969 104.996094 17.300781 105.097656 17.300781 C 105.144531 17.300781 105.144531 17.300781 105.1875 17.300781 C 105.351562 17.304688 105.414062 17.328125 105.542969 17.429688 C 105.679688 17.601562 105.679688 17.738281 105.683594 17.945312 C 105.683594 17.996094 105.683594 18.042969 105.691406 18.09375 C 105.671875 18.246094 105.644531 18.320312 105.550781 18.445312 C 105.390625 18.554688 105.289062 18.59375 105.105469 18.59375 C 105.058594 18.59375 105.015625 18.59375 104.964844 18.59375 C 104.914062 18.59375 104.863281 18.59375 104.8125 18.59375 C 104.761719 18.59375 104.703125 18.59375 104.652344 18.59375 C 104.507812 18.59375 104.359375 18.59375 104.21875 18.59375 C 104.066406 18.59375 103.917969 18.59375 103.765625 18.59375 C 103.503906 18.59375 103.25 18.59375 102.996094 18.59375 C 102.703125 18.59375 102.40625 18.59375 102.113281 18.59375 C 101.859375 18.59375 101.605469 18.59375 101.351562 18.59375 C 101.199219 18.59375 101.046875 18.59375 100.902344 18.59375 C 100.734375 18.59375 100.5625 18.59375 100.394531 18.59375 C 100.34375 18.59375 100.292969 18.59375 100.242188 18.59375 C 99.796875 18.585938 99.796875 18.585938 99.613281 18.445312 C 99.449219 18.203125 99.464844 17.957031 99.472656 17.675781 C 99.472656 17.617188 99.472656 17.566406 99.472656 17.515625 C 99.464844 17.367188 99.464844 17.222656 99.472656 17.078125 C 99.472656 16.921875 99.472656 16.761719 99.464844 16.609375 C 99.464844 16.300781 99.464844 15.996094 99.464844 15.683594 C 99.472656 15.433594 99.472656 15.183594 99.472656 14.9375 C 99.464844 14.902344 99.464844 14.867188 99.464844 14.828125 C 99.464844 14.761719 99.464844 14.6875 99.464844 14.613281 C 99.464844 13.9375 99.464844 13.261719 99.472656 12.589844 C 99.472656 12.003906 99.472656 11.425781 99.472656 10.839844 C 99.464844 10.171875 99.464844 9.496094 99.464844 8.824219 C 99.464844 8.75 99.464844 8.679688 99.472656 8.609375 C 99.472656 8.574219 99.472656 8.535156 99.472656 8.5 C 99.472656 8.25 99.464844 8 99.464844 7.75 C 99.464844 7.449219 99.464844 7.144531 99.472656 6.84375 C 99.472656 6.683594 99.472656 6.53125 99.472656 6.378906 C 99.464844 6.210938 99.472656 6.039062 99.472656 5.875 C 99.472656 5.824219 99.472656 5.773438 99.472656 5.726562 C 99.472656 5.683594 99.472656 5.636719 99.472656 5.589844 C 99.472656 5.550781 99.472656 5.511719 99.472656 5.472656 C 99.492188 5.300781 99.574219 5.1875 99.695312 5.074219 C 99.996094 4.886719 100.421875 4.925781 100.714844 5.101562 Z M 100.714844 5.101562 "/>
<path style=" stroke:none;fill-rule:nonzero;fill:rgb(19.215687%,42.745098%,70.588237%);fill-opacity:1;" d="M 108.726562 5.0625 C 108.914062 5.25 108.941406 5.410156 108.945312 5.664062 C 108.945312 5.710938 108.945312 5.753906 108.945312 5.800781 C 108.945312 5.847656 108.945312 5.898438 108.945312 5.949219 C 108.945312 6 108.945312 6.050781 108.945312 6.101562 C 108.945312 6.25 108.945312 6.390625 108.945312 6.53125 C 108.945312 6.683594 108.945312 6.84375 108.945312 6.996094 C 108.945312 7.335938 108.945312 7.671875 108.945312 8.011719 C 108.945312 8.222656 108.945312 8.433594 108.945312 8.640625 C 108.945312 9.226562 108.945312 9.808594 108.945312 10.394531 C 108.945312 10.449219 108.945312 10.449219 108.945312 10.507812 C 108.945312 10.5625 108.945312 10.5625 108.945312 10.625 C 108.945312 10.699219 108.945312 10.773438 108.945312 10.851562 C 108.945312 10.886719 108.945312 10.925781 108.945312 10.964844 C 108.945312 11.574219 108.945312 12.1875 108.953125 12.796875 C 108.953125 13.421875 108.953125 14.050781 108.953125 14.675781 C 108.953125 15.027344 108.953125 15.382812 108.953125 15.734375 C 108.953125 16.03125 108.953125 16.332031 108.953125 16.632812 C 108.953125 16.785156 108.953125 16.9375 108.953125 17.089844 C 108.953125 17.253906 108.953125 17.417969 108.953125 17.589844 C 108.953125 17.636719 108.953125 17.6875 108.953125 17.730469 C 108.953125 17.992188 108.933594 18.179688 108.8125 18.40625 C 108.625 18.582031 108.429688 18.585938 108.179688 18.585938 C 108.152344 18.585938 108.125 18.59375 108.097656 18.59375 C 107.875 18.59375 107.746094 18.554688 107.582031 18.40625 C 107.464844 18.15625 107.488281 17.902344 107.488281 17.636719 C 107.488281 17.582031 107.488281 17.53125 107.488281 17.476562 C 107.488281 17.335938 107.488281 17.191406 107.488281 17.046875 C 107.488281 16.890625 107.488281 16.738281 107.480469 16.582031 C 107.480469 16.28125 107.480469 15.972656 107.480469 15.671875 C 107.480469 15.421875 107.480469 15.179688 107.480469 14.929688 C 107.480469 14.894531 107.480469 14.863281 107.480469 14.824219 C 107.480469 14.753906 107.480469 14.679688 107.480469 14.613281 C 107.480469 13.945312 107.480469 13.273438 107.480469 12.605469 C 107.480469 11.992188 107.480469 11.378906 107.480469 10.769531 C 107.480469 10.136719 107.480469 9.507812 107.480469 8.878906 C 107.480469 8.527344 107.480469 8.175781 107.480469 7.824219 C 107.480469 7.523438 107.480469 7.222656 107.480469 6.921875 C 107.480469 6.769531 107.480469 6.617188 107.480469 6.464844 C 107.480469 6.292969 107.480469 6.128906 107.480469 5.964844 C 107.480469 5.914062 107.480469 5.867188 107.480469 5.816406 C 107.480469 5.5625 107.5 5.375 107.621094 5.148438 C 107.898438 4.886719 108.394531 4.917969 108.726562 5.0625 Z M 108.726562 5.0625 "/>
<path style=" stroke:none;fill-rule:nonzero;fill:rgb(18.82353%,42.352942%,70.19608%);fill-opacity:1;" d="M 19.457031 15.570312 C 19.394531 15.703125 19.339844 15.785156 19.238281 15.882812 C 19.199219 15.917969 19.199219 15.917969 19.160156 15.957031 C 19.128906 15.984375 19.097656 16.007812 19.070312 16.035156 C 19.039062 16.0625 19.011719 16.09375 18.984375 16.113281 C 18.820312 16.269531 18.652344 16.421875 18.484375 16.570312 C 18.339844 16.695312 18.207031 16.816406 18.070312 16.949219 C 18.007812 17.003906 17.949219 17.0625 17.890625 17.117188 C 17.855469 17.148438 17.824219 17.179688 17.796875 17.214844 C 17.464844 17.417969 16.972656 17.242188 16.625 17.167969 C 16.5625 17.160156 16.5 17.148438 16.445312 17.136719 C 16.3125 17.109375 16.191406 17.085938 16.066406 17.054688 C 15.902344 17.023438 15.746094 16.988281 15.585938 16.960938 C 15.464844 16.933594 15.332031 16.910156 15.210938 16.878906 C 15.152344 16.871094 15.097656 16.859375 15.035156 16.847656 C 14.394531 16.714844 14.394531 16.714844 14.117188 16.601562 C 14.101562 16.558594 14.089844 16.519531 14.070312 16.472656 C 14.285156 16.09375 14.738281 15.859375 15.128906 15.742188 C 15.328125 15.710938 15.515625 15.695312 15.710938 15.683594 C 15.761719 15.683594 15.816406 15.679688 15.875 15.679688 C 15.929688 15.671875 15.992188 15.671875 16.050781 15.667969 C 16.109375 15.667969 16.171875 15.660156 16.234375 15.660156 C 16.363281 15.65625 16.492188 15.648438 16.625 15.644531 C 16.753906 15.640625 16.882812 15.632812 17.011719 15.621094 C 17.828125 15.585938 18.640625 15.558594 19.457031 15.570312 Z M 19.457031 15.570312 "/>
<path style=" stroke:none;fill-rule:nonzero;fill:rgb(15.294118%,34.509805%,55.686277%);fill-opacity:1;" d="M 23.316406 17.84375 C 23.328125 17.84375 23.34375 17.84375 23.355469 17.84375 C 23.367188 18.214844 23.339844 18.570312 23.308594 18.933594 C 23.304688 18.996094 23.300781 19.050781 23.292969 19.113281 C 23.277344 19.277344 23.265625 19.445312 23.25 19.601562 C 23.238281 19.746094 23.226562 19.878906 23.214844 20.015625 C 23.1875 20.339844 23.15625 20.664062 23.128906 20.984375 C 23.097656 21.320312 23.066406 21.648438 23.039062 21.984375 C 23.015625 22.265625 22.988281 22.558594 22.964844 22.839844 C 22.949219 23.011719 22.9375 23.179688 22.921875 23.355469 C 22.683594 26.09375 22.683594 26.09375 21.609375 27.070312 C 21.492188 27.15625 21.382812 27.199219 21.238281 27.242188 C 21.261719 27.019531 21.300781 26.804688 21.351562 26.582031 C 21.355469 26.554688 21.359375 26.527344 21.367188 26.492188 C 21.390625 26.394531 21.410156 26.304688 21.433594 26.207031 C 21.457031 26.105469 21.480469 26.003906 21.503906 25.902344 C 21.519531 25.835938 21.535156 25.765625 21.550781 25.699219 C 21.621094 25.378906 21.695312 25.058594 21.765625 24.738281 C 21.867188 24.285156 21.96875 23.832031 22.070312 23.378906 C 22.238281 22.660156 22.398438 21.933594 22.5625 21.207031 C 22.707031 20.527344 22.859375 19.851562 23.015625 19.171875 C 23.117188 18.730469 23.21875 18.285156 23.316406 17.84375 Z M 23.316406 17.84375 "/>
<path style=" stroke:none;fill-rule:nonzero;fill:rgb(15.294118%,34.509805%,55.686277%);fill-opacity:1;" d="M 19.242188 15.742188 C 19.289062 15.761719 19.289062 15.761719 19.328125 15.785156 C 18.742188 16.34375 18.742188 16.34375 18.484375 16.570312 C 18.339844 16.695312 18.207031 16.816406 18.070312 16.949219 C 18.007812 17.003906 17.949219 17.0625 17.890625 17.117188 C 17.855469 17.148438 17.824219 17.179688 17.796875 17.214844 C 17.453125 17.425781 16.960938 17.238281 16.589844 17.160156 C 16.535156 17.148438 16.472656 17.136719 16.414062 17.125 C 16.269531 17.089844 16.121094 17.0625 15.980469 17.027344 C 15.980469 17.015625 15.980469 17 15.980469 16.988281 C 16.039062 16.984375 16.089844 16.976562 16.144531 16.972656 C 17.191406 16.847656 18.207031 16.464844 19.074219 15.855469 C 19.128906 15.816406 19.1875 15.78125 19.242188 15.742188 Z M 19.242188 15.742188 "/>
</g>
</svg>
