<?xml version="1.0" encoding="UTF-8"?>
<svg version="1.1" xmlns="http://www.w3.org/2000/svg" width="3164" height="1049">
<path d="M0 0 C1.08641785 -0.00067474 2.17283569 -0.00134949 3.29217529 -0.00204468 C21.6106046 0.01595844 39.51960965 0.78708668 57.6875 3.25 C58.96641113 3.42160645 60.24532227 3.59321289 61.56298828 3.77001953 C136.76517716 14.19639165 208.53851627 43.88515838 268.6875 90.25 C269.25210938 90.683125 269.81671875 91.11625 270.3984375 91.5625 C277.2230322 96.80760335 283.88293466 102.13960147 290.2109375 107.984375 C292.28094337 109.87807122 294.37586909 111.72907435 296.4921875 113.5703125 C307.88798861 123.51805775 318.60203426 133.98148842 328.6875 145.25 C329.46351563 146.08789062 330.23953125 146.92578125 331.0390625 147.7890625 C336.79058944 154.02835144 342.02610615 160.60589258 347.19873047 167.32421875 C348.71650591 169.28752028 350.24975273 171.23796363 351.78515625 173.1875 C366.10659553 191.48455854 378.34756728 210.9881329 389.6875 231.25 C390.17847168 232.12591797 390.66944336 233.00183594 391.17529297 233.90429688 C437.39104983 317.17880527 452.90163761 417.78784879 426.875 567.625 C410.19366249 624.60093563 381.16867643 676.13277214 340.8828125 719.84375 C339.02365832 721.88154177 337.20721114 723.94512132 335.3984375 726.02734375 C331.7500289 730.20766987 327.98921825 734.27170462 324.1875 738.3125 C323.56230469 738.98087891 322.93710937 739.64925781 322.29296875 740.33789062 C311.46112768 751.87615611 311.46112768 751.87615611 305.75 756.6875 C302.30328784 759.65605556 299.09639141 762.79079104 295.9375 766.0625 C293.9804236 767.96521316 291.98164693 769.75773004 289.921875 771.546875 C285.83117701 775.10021951 281.87444596 778.7779475 277.9375 782.5 C272.20739042 787.89480536 266.44549476 793.24883312 260.6328125 798.5546875 C257.93971092 801.0191969 255.25936482 803.49653927 252.58398438 805.98022461 C250.92345151 807.51764083 249.25547425 809.04659262 247.5859375 810.57421875 C245.91991426 812.11225907 244.26892015 813.66777179 242.6640625 815.26953125 C235.15002437 822.51899058 222.94706906 821.98165784 213.0625 822.875 C212.34072571 822.94036957 211.61895142 823.00573914 210.87530518 823.0730896 C195.28791524 824.42392425 179.7000106 824.5518309 164.0625 824.5625 C162.89096375 824.56590393 161.71942749 824.56930786 160.51239014 824.57281494 C139.87649908 824.60712443 119.29628038 823.70264804 98.875 820.5625 C97.75778564 820.39733887 96.64057129 820.23217773 95.48950195 820.06201172 C82.54426212 818.12465227 69.61938508 816.04419578 56.69702148 813.96044922 C47.48396961 812.47664256 38.26919051 811.02354605 29.03515625 809.67578125 C-21.27402603 802.30534058 -21.27402603 802.30534058 -35.3125 794.25 C-35.6425 793.59 -35.9725 792.93 -36.3125 792.25 C-35.03294434 792.07778931 -35.03294434 792.07778931 -33.72753906 791.90209961 C38.15139294 782.05889826 102.86383827 752.33825971 159.87255859 707.67041016 C161.96972724 706.0291232 164.07249326 704.39515614 166.17578125 702.76171875 C169.94991771 699.83026818 173.72195535 696.89615087 177.49145508 693.95874023 C178.99748672 692.7868986 180.50522692 691.61725044 182.0144043 690.44946289 C200.20348975 676.36223104 217.78106495 660.66386151 231.6875 642.25 C232.69492664 640.9687231 233.7042006 639.68889756 234.71484375 638.41015625 C274.44915147 587.78162005 300.56982847 522.59370957 300.890625 457.80859375 C300.89768463 456.85121811 300.90474426 455.89384247 300.91201782 454.90745544 C301.11824554 424.95540416 301.11824554 424.95540416 297.6875 395.25 C297.48882324 394.11079102 297.29014648 392.97158203 297.08544922 391.79785156 C284.00466551 318.87860633 245.73755408 246.47810843 185.6875 201.25 C184.50323773 200.32637737 183.31969741 199.40182862 182.13671875 198.4765625 C137.3377572 163.78347885 83.93116465 143.07511237 27.6875 137.25 C26.50285156 137.11851562 25.31820313 136.98703125 24.09765625 136.8515625 C-56.95899808 129.43723318 -136.43395717 159.67948057 -198.3359375 210.94921875 C-199.27348877 211.73280762 -199.27348877 211.73280762 -200.22998047 212.53222656 C-201.73065749 213.7700652 -203.24740978 214.98850639 -204.77392578 216.19433594 C-211.88864279 221.85877995 -218.3594014 227.9876551 -224.75634766 234.43310547 C-226.43564428 236.12313242 -228.12538969 237.80217764 -229.81640625 239.48046875 C-236.43953654 246.09554892 -242.49802156 252.90539565 -248.3125 260.25 C-249.17561168 261.27778236 -250.04401639 262.3011907 -250.921875 263.31640625 C-268.42414341 283.72507325 -282.35200318 306.77734223 -295.3125 330.25 C-295.7751123 331.08724609 -296.23772461 331.92449219 -296.71435547 332.78710938 C-308.90430488 355.0293316 -318.9537252 378.31386594 -327.3125 402.25 C-327.65764648 403.23613281 -328.00279297 404.22226562 -328.35839844 405.23828125 C-332.59993434 417.52081338 -336.13140693 429.92021529 -339.125 442.5625 C-339.4029541 443.72861816 -339.6809082 444.89473633 -339.96728516 446.09619141 C-360.68110942 536.90670641 -345.2851459 627.49422169 -315.3125 714.25 C-315.08522217 714.90907349 -314.85794434 715.56814697 -314.6237793 716.24719238 C-309.58808891 730.83368078 -304.25847022 745.26304883 -298.35888672 759.52416992 C-297.95943848 760.49717041 -297.55999023 761.4701709 -297.1484375 762.47265625 C-296.79313965 763.32609619 -296.4378418 764.17953613 -296.07177734 765.05883789 C-295.3125 767.25 -295.3125 767.25 -295.3125 770.25 C-313.78476204 761.65155286 -331.00002935 742.05762361 -343.3125 726.25 C-344.36915174 724.92136582 -345.42649583 723.59328209 -346.484375 722.265625 C-400.76628288 653.77487755 -431.9073483 572.82625353 -441.3125 486.25 C-441.41852539 485.28835938 -441.52455078 484.32671875 -441.63378906 483.3359375 C-444.50786701 452.55548984 -443.79757473 419.83152031 -439.3125 389.25 C-439.16684601 388.24208405 -439.16684601 388.24208405 -439.01824951 387.21380615 C-429.94329461 324.75083575 -409.49991324 263.59119355 -375.3125 210.25 C-374.88130859 209.57485352 -374.45011719 208.89970703 -374.00585938 208.20410156 C-359.62232805 185.83340192 -343.22198339 163.52083394 -324.0625 145 C-322.2440887 143.1815887 -320.59551828 141.2775587 -318.9375 139.3125 C-315.60159006 135.443145 -311.93507855 132.09681377 -308.1015625 128.7265625 C-306.12806554 126.97418565 -304.19108086 125.20947782 -302.2734375 123.3984375 C-295.18172526 116.70822528 -287.8271506 110.58198099 -280.09960938 104.64306641 C-278.31077919 103.24865861 -276.55076105 101.82476905 -274.796875 100.38671875 C-207.27572354 45.08262665 -123.06296727 10.00456483 -36.3125 1.25 C-34.94460327 1.10643066 -34.94460327 1.10643066 -33.54907227 0.95996094 C-22.39247469 -0.06184972 -11.19382394 0.00625946 0 0 Z " fill="#EDA92C" transform="translate(442.3125,-0.25)"/>
<path d="M0 0 C19.76044062 -0.04701492 39.52086968 -0.08213173 59.2813549 -0.10362434 C68.45939901 -0.11387524 77.63740809 -0.12781498 86.81542969 -0.15087891 C94.82815043 -0.17100464 102.84084576 -0.18376118 110.85359108 -0.18817699 C115.08430961 -0.19075242 119.31495556 -0.1966713 123.54565048 -0.21146011 C179.11822675 -0.3977988 237.64484708 3.93407687 280.25 43.8125 C301.97165304 66.69449775 310.62293823 97.45892929 310.35351562 128.47314453 C309.45500519 161.12116305 298.70900271 190.31183631 276 214 C274.78763672 215.32451172 274.78763672 215.32451172 273.55078125 216.67578125 C262.40343006 228.45631532 243.62054033 243.86998901 227 246 C229.66524198 248.96345087 232.81065057 250.93893974 236.125 253.125 C252.32364619 264.18759963 261.05307374 280.25096562 270.87109375 296.76953125 C273.97954791 301.98795461 277.167422 307.15457101 280.375 312.3125 C284.95681139 319.68434528 289.49563754 327.08057365 294 334.5 C298.46599333 341.85477482 302.96152076 349.18973027 307.5 356.5 C311.97398494 363.70729635 316.408556 370.93719523 320.8125 378.1875 C325.71000339 386.24806102 330.62386635 394.29828929 335.56259155 402.33364868 C336.59952479 404.02104433 337.63534775 405.70912211 338.67114258 407.3972168 C342.44557681 413.55645535 342.44557681 413.55645535 346.4609375 419.55859375 C348 422 348 422 348 425 C335.78626178 425.04644327 323.57254475 425.08193004 311.35873604 425.10362434 C305.68671666 425.11403914 300.01475792 425.12815617 294.34277344 425.15087891 C288.86386396 425.17268955 283.38501264 425.18458594 277.90606308 425.18975449 C275.82100383 425.19343551 273.73594758 425.20062348 271.65091324 425.21146011 C268.71919246 425.22608434 265.78770871 425.22797339 262.85595703 425.22705078 C262.00358963 425.23424133 261.15122223 425.24143188 260.27302551 425.24884033 C252.11962986 425.22127102 244.25564541 424.0455871 236.875 420.4375 C235.94429687 420.00308594 235.01359375 419.56867188 234.0546875 419.12109375 C225.78897684 413.38160412 221.0259975 405.15212323 216.375 396.4375 C215.15297447 394.20206733 213.92896538 391.96771801 212.703125 389.734375 C212.08759766 388.60837891 211.47207031 387.48238281 210.83789062 386.32226562 C208.01908012 381.22683877 205.07753378 376.20626059 202.125 371.1875 C197.04743409 362.5319898 192.03224877 353.84276201 187.0625 345.125 C181.26802469 334.96300148 175.46074223 324.80881982 169.58984375 314.69067383 C166.69406987 309.69615263 163.81766673 304.69367196 161.01335144 299.64727783 C160.01573199 297.85407885 159.01187667 296.0645154 158.00610352 294.27587891 C156.74934047 292.0364064 155.50419788 289.7903554 154.27319336 287.53662109 C148.13500469 276.66049918 143.51668448 272.75500535 131 269 C120.44 268.67 109.88 268.34 99 268 C99 319.81 99 371.62 99 425 C44.21436959 425 44.21436959 425 31.6875 418.3125 C30.67997681 417.78595825 30.67997681 417.78595825 29.65209961 417.2487793 C14.86216252 409.24672773 5.83234462 395.87770376 1 380 C0.06696097 376.11907728 -0.12437937 372.5162218 -0.12304783 368.52824688 C-0.12503888 367.2120183 -0.12702993 365.89578971 -0.12908131 364.53967541 C-0.1262284 363.08054251 -0.12328281 361.62140978 -0.12025452 360.16227722 C-0.12069056 358.61116163 -0.12156609 357.06004611 -0.12284368 355.50893098 C-0.12508206 351.24462815 -0.12107631 346.98035038 -0.11606562 342.71605074 C-0.11175191 338.118277 -0.1132082 333.52050469 -0.1139679 328.92272949 C-0.11449254 320.95610913 -0.11135189 312.98949695 -0.10573006 305.02287865 C-0.09760709 293.50444947 -0.09499902 281.98602425 -0.09374207 270.46759252 C-0.0915528 251.78023196 -0.08489611 233.09287577 -0.07543945 214.40551758 C-0.06626209 196.25122093 -0.05918284 178.09692546 -0.05493164 159.94262695 C-0.05466892 158.82381723 -0.05440619 157.7050075 -0.05413551 156.55229446 C-0.05283048 150.93962091 -0.05156677 145.32694737 -0.05032361 139.71427381 C-0.03995491 93.14284619 -0.02233999 46.57142332 0 0 Z M99 75 C99 115.92 99 156.84 99 199 C151.15862159 201.82656617 151.15862159 201.82656617 196.1875 180.4375 C209.02597002 166.72907205 213.400369 148.37198881 213 130 C212.11782273 117.56808649 208.46093721 106.9674988 201 97 C200.2575 95.96875 199.515 94.9375 198.75 93.875 C186.55573677 81.12645208 171.03624307 78.00639584 154 75 C135.85 75 117.7 75 99 75 Z " fill="#FFFFFF" transform="translate(1393,514)"/>
<path d="M0 0 C13.19045825 12.66192073 18.55793181 29.6695019 24.9296875 46.33984375 C25.7653955 48.51261468 26.60175248 50.68513609 27.4387207 52.85742188 C29.17652396 57.36931094 30.91154369 61.88225526 32.64453125 66.39599609 C36.32141227 75.96697367 40.0298551 85.52569193 43.73916626 95.08413696 C44.93503538 98.16612627 46.13008309 101.24843302 47.32495117 104.33081055 C52.28019944 117.11138109 57.25403759 129.88458225 62.2421875 142.65234375 C70.4727774 163.71951509 78.64755306 184.80820949 86.81884766 205.8984375 C90.39662952 215.13230462 93.97726283 224.36506602 97.55770874 233.59790039 C99.53598775 238.6993352 101.51407797 243.80084322 103.4921875 248.90234375 C104.28385326 250.94401077 105.07551993 252.98567743 105.8671875 255.02734375 C107.45052083 259.11067708 109.03385417 263.19401042 110.6171875 267.27734375 C111.20497734 268.79322083 111.20497734 268.79322083 111.80464172 270.33972168 C112.59646459 272.38179385 113.38828384 274.42386742 114.18009949 276.46594238 C116.15684677 281.56391635 118.13365637 286.66186613 120.1105957 291.75976562 C123.70195406 301.02092286 127.29282255 310.28226869 130.88142395 319.54449463 C139.00247182 340.50494291 147.13202996 361.46195451 155.3046875 382.40234375 C155.64688324 383.27922852 155.98907898 384.15611328 156.34164429 385.05957031 C157.29904741 387.51249883 158.25683433 389.96527697 159.21484375 392.41796875 C159.49411713 393.13325745 159.7733905 393.84854614 160.06112671 394.58551025 C161.14937382 397.37001469 162.23856005 400.14400605 163.43139648 402.88574219 C164.2421875 405.15234375 164.2421875 405.15234375 164.2421875 409.15234375 C153.7061707 409.19879667 143.1701785 409.23427863 132.63407993 409.25596809 C127.74112377 409.26638082 122.84823795 409.28049396 117.95532227 409.30322266 C113.22854361 409.32504083 108.5018324 409.33693125 103.77500725 409.34209824 C101.97660194 409.34577793 100.17820009 409.35296326 98.37982368 409.36380386 C95.85022283 409.37843825 93.32089651 409.38031674 90.79125977 409.37939453 C90.05685669 409.38658508 89.32245361 409.39377563 88.5657959 409.40118408 C78.07502851 409.36011726 69.49858598 406.4935049 61.453125 399.625 C53.36088996 391.13852787 50.6055128 377.7381845 46.94140625 366.8671875 C46.45554146 365.43412968 45.96943763 364.00115288 45.48310852 362.56825256 C44.47451383 359.59338032 43.46894755 356.617507 42.46557617 353.64086914 C41.17927444 349.82578134 39.88498664 346.01345726 38.58845806 342.20183468 C37.5875072 339.25618269 36.59085391 336.30909075 35.59549904 333.36154366 C35.11960235 331.95405729 34.64233669 330.54703301 34.16367149 329.14048576 C33.4988368 327.18487241 32.83984392 325.22738634 32.18237305 323.26928711 C31.80662643 322.15742538 31.43087982 321.04556366 31.04374695 319.90000916 C30.2421875 317.15234375 30.2421875 317.15234375 30.2421875 314.15234375 C-22.8878125 314.48234375 -76.0178125 314.81234375 -130.7578125 315.15234375 C-138.0178125 336.60234375 -145.2778125 358.05234375 -152.7578125 380.15234375 C-158.28278192 393.41227036 -162.21876049 401.31980283 -175.16015625 407.25390625 C-180.68448825 409.16457747 -186.1744455 409.29381285 -191.96630859 409.26586914 C-192.76697754 409.26601517 -193.56764648 409.26616119 -194.39257812 409.26631165 C-197.02216359 409.26561855 -199.651677 409.25785451 -202.28125 409.25 C-204.11113445 409.24813368 -205.94101941 409.24671079 -207.77090454 409.24571228 C-212.57457878 409.24190398 -217.37822253 409.23208815 -222.18188477 409.2210083 C-227.08870023 409.21075786 -231.99552065 409.20620689 -236.90234375 409.20117188 C-246.52084669 409.19046431 -256.13932705 409.17340822 -265.7578125 409.15234375 C-265.22977486 405.60762728 -264.6153885 402.35872961 -263.29345703 399.02612305 C-262.84384361 397.8796228 -262.84384361 397.8796228 -262.38514709 396.70996094 C-262.0569548 395.89043945 -261.72876251 395.07091797 -261.390625 394.2265625 C-261.04450668 393.34814697 -260.69838837 392.46973145 -260.34178162 391.56469727 C-259.5896322 389.65763072 -258.83482395 387.75161116 -258.07766724 385.8465271 C-256.43972151 381.7248678 -254.81484052 377.59809618 -253.18904114 373.47163391 C-252.33471029 371.30363901 -251.47970893 369.13590823 -250.62406921 366.96842957 C-246.14198184 355.61059752 -241.72767037 344.22683547 -237.3203125 332.83984375 C-236.52627743 330.7899294 -235.73216898 328.74004348 -234.93798828 326.69018555 C-233.34131608 322.56880799 -231.74499474 318.4472948 -230.14892578 314.32568359 C-226.58370353 305.11990617 -223.01383057 295.91593212 -219.44430542 286.71182251 C-217.46528369 281.60873689 -215.48656336 276.50553441 -213.5078125 271.40234375 C-212.71614728 269.36067652 -211.92448061 267.31900986 -211.1328125 265.27734375 C-210.7409375 264.26671875 -210.3490625 263.25609375 -209.9453125 262.21484375 C-206.38281248 253.0273437 -206.38281248 253.0273437 -205.19535828 249.96496582 C-204.40353541 247.92289365 -203.61171616 245.88082008 -202.81990051 243.83874512 C-200.84315323 238.74077115 -198.86634363 233.64282137 -196.8894043 228.54492188 C-193.2979592 219.28354095 -189.70700287 210.02197186 -186.11831665 200.75952148 C-178.03176121 179.88811074 -169.93614243 159.02044986 -161.78875732 138.17269897 C-157.05047526 126.04758798 -152.33695063 113.91308861 -147.63793945 101.77270508 C-144.83388277 94.52899117 -142.02198457 87.28832784 -139.20875549 80.048172 C-136.97346272 74.29293444 -134.74840731 68.53390013 -132.53276062 62.77107239 C-131.19851017 59.307123 -129.85509943 55.84677828 -128.50930786 52.38729858 C-127.89699682 50.807636 -127.28847364 49.22649836 -126.68429565 47.64370728 C-121.88003453 35.06614036 -116.59368123 22.09893081 -107.0078125 12.33984375 C-106.24549316 11.54477417 -106.24549316 11.54477417 -105.46777344 10.73364258 C-77.99494632 -17.21737762 -31.68899272 -27.06551673 0 0 Z M-50.7578125 75.15234375 C-51.14710938 76.39242187 -51.53640625 77.6325 -51.9375 78.91015625 C-58.8688966 100.89700385 -66.18746218 122.74042872 -73.82418823 144.49093628 C-79.79554942 161.51301445 -85.69399207 178.56046907 -91.46704102 195.65087891 C-92.280598 198.05290144 -93.09889786 200.45332321 -93.92211914 202.85205078 C-95.07715701 206.22128425 -96.21446397 209.59602277 -97.34765625 212.97265625 C-97.6937645 213.97088409 -98.03987274 214.96911194 -98.39646912 215.99758911 C-100.5502341 222.49813176 -102.25623487 228.92891434 -99.875 235.640625 C-96.70968718 240.2890561 -93.54232133 243.88797944 -88.00201416 245.73893738 C-84.95356001 246.30049581 -82.01304361 246.304501 -78.91308594 246.3293457 C-78.23284866 246.3359169 -77.55261139 246.3424881 -76.85176086 246.34925842 C-74.60690181 246.3689223 -72.36210947 246.38063909 -70.1171875 246.390625 C-68.96269985 246.39673829 -68.96269985 246.39673829 -67.78488922 246.40297508 C-63.71027396 246.42380733 -59.63569209 246.43812078 -55.56103516 246.44750977 C-51.36690554 246.45856269 -47.17330812 246.49295738 -42.9793663 246.53268147 C-39.74156757 246.55890984 -36.50389445 246.56720712 -33.26599884 246.57079124 C-31.72073018 246.57564189 -30.17546655 246.58721226 -28.63030243 246.60582924 C-18.67953632 246.7182613 -11.48278204 246.5691631 -3.8828125 239.46484375 C-1.02253133 235.00617017 0.64633179 230.37325546 -0.02780151 225.00061035 C-0.61197065 222.7671235 -1.31958227 220.62274375 -2.09765625 218.44921875 C-2.37021744 217.63047272 -2.64277863 216.81172668 -2.92359924 215.96817017 C-3.82663053 213.27199907 -4.76078692 210.58774372 -5.6953125 207.90234375 C-6.34198913 205.9911217 -6.98647927 204.0791586 -7.62890625 202.16650391 C-8.97569356 198.16669362 -10.33451209 194.17127176 -11.70263672 190.17871094 C-13.68547908 184.38220761 -15.62159674 178.5710337 -17.54296875 172.75390625 C-23.95624177 153.35665528 -30.50600442 134.00935621 -37.14752197 114.68917847 C-41.64443584 101.59276225 -45.90716498 88.45589665 -49.7578125 75.15234375 C-50.0878125 75.15234375 -50.4178125 75.15234375 -50.7578125 75.15234375 Z " fill="#FFFFFF" transform="translate(2030.7578125,529.84765625)"/>
<path d="M0 0 C1.06599574 -0.00170885 2.13199148 -0.0034177 3.23029011 -0.00517833 C6.80790692 -0.00847673 10.38533683 0.00253641 13.9629364 0.01345825 C16.52521765 0.01402229 19.08749922 0.01370595 21.64978027 0.01257324 C27.16911516 0.01211757 32.68838969 0.01779624 38.20771217 0.02904892 C46.18769825 0.04530776 54.16766146 0.05051232 62.1476623 0.0530249 C75.09488903 0.0574014 88.04209055 0.07070929 100.98930359 0.08963013 C113.5657997 0.10799009 126.14228897 0.12214603 138.71879578 0.13064575 C139.49410101 0.1311712 140.26940624 0.13169665 141.06820557 0.13223802 C144.95771088 0.1348481 148.84721624 0.13737552 152.73672163 0.13986182 C185.00054006 0.16059292 217.2643275 0.19581723 249.52812195 0.24050903 C249.62844361 4.70212223 249.70025958 9.1631047 249.74784851 13.6255188 C249.76772632 15.13735415 249.79483868 16.64911513 249.82987976 18.16067505 C250.10482539 30.34319226 249.1804863 41.83706997 242.02812195 52.24050903 C241.46093445 53.08613403 240.89374695 53.93175903 240.30937195 54.80300903 C231.66770984 66.62844139 219.81305372 74.01807659 205.43655777 76.81542587 C200.21232121 77.57897547 195.00465988 77.50046574 189.73466492 77.46755981 C187.87441933 77.46799789 187.87441933 77.46799789 185.97659302 77.46844482 C182.60735941 77.46729791 179.23837704 77.4573324 175.86918783 77.44329691 C172.33649036 77.43071484 168.80378881 77.4296132 165.27107239 77.42724609 C158.59546382 77.42105314 151.91992149 77.4046722 145.24434197 77.38454711 C136.21368038 77.3579185 127.18300042 77.3471978 118.15230942 77.33554268 C103.9441974 77.31678979 89.73622511 77.27692969 75.52812195 77.24050903 C75.52812195 109.58050903 75.52812195 141.92050903 75.52812195 175.24050903 C119.41812195 175.24050903 163.30812195 175.24050903 208.52812195 175.24050903 C208.52812195 199.33050903 208.52812195 223.42050903 208.52812195 248.24050903 C164.63812195 248.24050903 120.74812195 248.24050903 75.52812195 248.24050903 C75.52812195 281.24050903 75.52812195 314.24050903 75.52812195 348.24050903 C84.7732782 348.20570435 94.01843445 348.17089966 103.54374695 348.13504028 C109.41354115 348.11970509 115.28332075 348.10513824 121.15312195 348.09402466 C130.46241745 348.07625686 139.77163121 348.05542353 149.08085632 348.01419067 C155.8621635 347.98416906 162.64340405 347.96490592 169.42477584 347.95824355 C173.01123163 347.95435276 176.59749692 347.94529106 180.1838913 347.92331886 C184.20008583 347.89891598 188.21595495 347.89854716 192.23222351 347.89993286 C193.40467621 347.88914703 194.57712891 347.87836121 195.78511047 347.86724854 C211.27464298 347.92477952 223.97168291 352.21587865 235.27030945 362.91238403 C244.9714886 372.91567603 249.91682206 383.91775943 249.72343445 397.89675903 C249.71918961 399.07836609 249.71918961 399.07836609 249.71485901 400.28384399 C249.70377363 402.76956167 249.67869205 405.25490253 249.65312195 407.74050903 C249.64307705 409.43842045 249.63395386 411.13633759 249.6257782 412.83425903 C249.60387266 416.96981817 249.5694252 421.10509999 249.52812195 425.24050903 C222.29348933 425.31071959 195.05887037 425.36355614 167.82416534 425.39594555 C155.17743903 425.41138702 142.5307691 425.4324244 129.88407898 425.46682739 C118.85588272 425.49681317 107.8277273 425.51610378 96.79949141 425.52277452 C90.96499033 425.52667125 85.13060606 425.53577209 79.29614258 425.5576992 C73.79356844 425.57820955 68.29115816 425.58431367 62.78854942 425.57983208 C60.77956435 425.58065081 58.77057324 425.58652908 56.76162148 425.59812546 C40.93624259 425.68491895 25.7076526 425.10605415 11.52812195 417.24050903 C10.63866882 416.75968872 9.7492157 416.27886841 8.83280945 415.78347778 C-7.13812553 406.43297311 -17.28722662 392.4982302 -22.7804718 374.95925903 C-24.05494246 369.94778119 -24.59743108 365.17630922 -24.60609913 360.00884342 C-24.61055697 358.77157538 -24.61501482 357.53430735 -24.61960775 356.25954634 C-24.61951846 354.89464445 -24.61932864 353.52974256 -24.61904907 352.1648407 C-24.62235061 350.70859569 -24.62607679 349.2523516 -24.63019055 347.79610866 C-24.64018486 343.7984221 -24.64392316 339.80075054 -24.64657986 335.80305326 C-24.6504903 331.49009464 -24.6600678 327.17714783 -24.66879272 322.86419678 C-24.6885314 312.45352788 -24.6986179 302.04285804 -24.70752051 291.63217512 C-24.71190577 286.72930504 -24.71727178 281.82643604 -24.72250938 276.92356682 C-24.73951548 260.62703075 -24.7540114 244.33049534 -24.76125813 228.03395176 C-24.76316799 223.8074754 -24.76508833 219.58099904 -24.76704407 215.35452271 C-24.76776968 213.77883596 -24.76776968 213.77883596 -24.76850995 212.17131715 C-24.776817 195.14033004 -24.80216808 178.10941301 -24.83462474 161.07845653 C-24.86767514 143.59354949 -24.88570487 126.10867811 -24.88890237 108.62373966 C-24.89106882 98.80624506 -24.89983787 88.9888528 -24.92536354 79.17138863 C-24.94704254 70.81422605 -24.9551346 62.4571907 -24.94539676 54.10000319 C-24.94084455 49.83580872 -24.94279175 45.57187692 -24.9621582 41.30771828 C-24.97973634 37.40366557 -24.97883607 33.50006822 -24.96326091 29.59601104 C-24.96087673 28.18422579 -24.96525035 26.77240944 -24.97708956 25.36067183 C-25.08039539 12.22821093 -25.08039539 12.22821093 -20.47187805 6.24050903 C-14.1172639 0.21177253 -8.36803351 -0.04889216 0 0 Z " fill="#FFFFFF" transform="translate(2602.471878051758,513.7594909667969)"/>
<path d="M0 0 C11.05755294 -0.04644194 22.11508248 -0.08192936 33.17271328 -0.10362434 C38.30780431 -0.11403944 43.44282837 -0.12815698 48.57788086 -0.15087891 C53.53807797 -0.17268853 58.49821085 -0.18458572 63.45845222 -0.18975449 C65.3461718 -0.1934357 67.23388806 -0.20062404 69.12158012 -0.21146011 C71.7757094 -0.22608305 74.42957684 -0.22797345 77.08374023 -0.22705078 C78.24144928 -0.23783661 78.24144928 -0.23783661 79.42254639 -0.24884033 C89.81822305 -0.2100067 99.17974552 2.30682532 106.7890625 9.75 C113.89720452 18.49848248 117.00027457 30.50472256 120.73828125 40.96875 C121.40891618 42.83381931 122.07955229 44.69888819 122.75023842 46.56393909 C123.45555736 48.52703736 124.15941341 50.49065426 124.86282349 52.45443726 C126.33758883 56.57143358 127.81664035 60.68688151 129.29663086 64.80200195 C129.54445092 65.49109178 129.79227098 66.1801816 130.04760075 66.89015293 C130.54771631 68.28075374 131.04784503 69.67134982 131.54798698 71.06194115 C132.29639255 73.14318959 133.04442476 75.2245719 133.79237366 77.3059845 C137.85505044 88.60981791 141.94972773 99.90180344 146.0625 111.1875 C147.34018173 114.69518949 148.61749663 118.20301237 149.89453125 121.7109375 C150.21784927 122.59906631 150.5411673 123.48719513 150.87428284 124.40223694 C155.79639233 137.92948428 160.68848614 151.46763252 165.58544922 165.0039978 C170.93511592 179.79095445 176.29693016 194.57336 181.68159485 209.34761047 C185.78142872 220.59719376 189.86972385 231.85093455 193.95056152 243.10742188 C194.92794334 245.80138949 195.90748333 248.49456114 196.88769531 251.1875 C204.06289198 270.92094848 210.41916422 290.75553966 216 311 C217.56468397 308.10520987 218.51968698 305.37897753 219.3046875 302.1875 C231.75400633 253.08207961 250.91938398 205.60647234 268.24578857 158.08300781 C274.60458087 140.64103805 280.8911285 123.17449588 287.125 105.6875 C287.95254031 103.36685662 288.78009557 101.04621857 289.60766602 98.72558594 C290.83887777 95.27288722 292.07008498 91.8201869 293.30122375 88.36746216 C297.44412323 76.75070015 301.5943915 65.13660583 305.76141357 53.5284729 C306.53391062 51.37505069 307.30530763 49.22123348 308.07550049 47.06698608 C321.25724931 10.20339778 321.25724931 10.20339778 334.1875 3.5 C340.70369499 0.42551743 346.30818396 -0.1462409 353.4621582 -0.11352539 C354.721464 -0.11374443 354.721464 -0.11374443 356.00621033 -0.1139679 C358.77109392 -0.11327326 361.53590948 -0.10550188 364.30078125 -0.09765625 C366.22177595 -0.09579048 368.14277113 -0.09436732 370.06376648 -0.09336853 C375.11240967 -0.08955591 380.16102396 -0.07973633 385.20965576 -0.06866455 C390.36437591 -0.05842345 395.51910073 -0.05386513 400.67382812 -0.04882812 C410.78256476 -0.03811294 420.89127997 -0.02105158 431 0 C429.24701445 6.1398944 427.29987516 12.0801568 424.82421875 17.96484375 C424.1717689 19.54214472 423.51934537 21.11945658 422.86694336 22.69677734 C422.51598602 23.54020691 422.16502869 24.38363647 421.80343628 25.25262451 C419.76642837 30.15354288 417.75024067 35.06301128 415.734375 39.97265625 C415.05930153 41.61663391 415.05930153 41.61663391 414.37059021 43.29382324 C408.61429913 57.34173456 402.99535612 71.44460857 397.36776733 85.54442596 C394.44990269 92.85447474 391.52975575 100.16361237 388.609375 107.47265625 C388.26963654 108.32299438 387.92989807 109.17333252 387.5798645 110.04943848 C378.48232571 132.81714287 369.33498 155.5648259 360.1875 178.3125 C359.32178615 180.46542303 358.45607367 182.61834662 357.59036255 184.77127075 C354.07747724 193.507266 350.56442432 202.24319382 347.05104065 210.97898865 C339.81940225 228.96027243 332.59194299 246.94323375 325.3664093 264.92697144 C320.97566007 275.85481366 316.58330634 286.78200515 312.18676758 297.70751953 C310.52025691 301.84924839 308.8538497 305.99101887 307.1875 310.1328125 C306.58490891 311.63045828 306.58490891 311.63045828 305.97014427 313.15835953 C301.09545046 325.275439 296.24008567 337.39989944 291.41505051 349.53683662 C289.80015197 353.59581814 288.17979253 357.65262242 286.55895424 361.70923519 C284.92969516 365.78920096 283.31561805 369.8749675 281.70458984 373.9621582 C277.89111188 383.55099279 274.23823416 392.69077722 268 401 C267.45633789 401.7307373 266.91267578 402.46147461 266.35253906 403.21435547 C257.10334559 415.17473024 241.75161136 422.49566218 227.06640625 424.71875 C207.08444749 426.55149017 189.17957739 423.31790125 173 411 C171.453125 409.88625 171.453125 409.88625 169.875 408.75 C158.56805106 397.93465754 152.92740906 383.29000988 147.29296875 369.0078125 C146.74317413 367.62619014 146.1928635 366.24477302 145.64208984 364.86354065 C144.45026939 361.8721096 143.26157194 358.87946416 142.07528687 355.88583374 C140.1324988 350.98385881 138.18191431 346.08500945 136.22973633 341.18676758 C135.89059299 340.33579656 135.55144964 339.48482553 135.20202923 338.60806751 C134.50223755 336.85224477 133.80241535 335.0964342 133.10256386 333.3406353 C132.01658401 330.61554177 130.93124155 327.89019503 129.84599304 325.16481018 C121.43949151 304.05877718 112.96039325 282.98196453 104.48166275 261.90486908 C102.30134368 256.48446028 100.12176748 251.0637528 97.94213867 245.64306641 C94.84011595 237.92857191 91.73788368 230.21416175 88.63537502 222.49986267 C82.99106217 208.4653677 77.34861141 194.4301249 71.70703125 180.39453125 C70.85373012 178.27168239 70.00042812 176.14883388 69.14712524 174.02598572 C65.33930722 164.55274177 61.53178009 155.07938113 57.72517204 145.6056509 C55.62032569 140.36724507 53.51528808 135.12891611 51.41015625 129.890625 C50.78331499 128.33080493 50.78331499 128.33080493 50.14381027 126.73947334 C44.19038124 111.92608745 38.22806887 97.11629936 32.26022339 82.30871582 C28.88066792 73.92316272 25.50333499 65.53671502 22.12650871 57.15006256 C19.36042145 50.28084501 16.59132015 43.41285254 13.82000637 36.54574203 C12.11861666 32.32777551 10.42007065 28.10866835 8.72233772 23.88922882 C7.93128441 21.92492177 7.13901828 19.96110267 6.34548759 17.9977951 C5.26483919 15.32368476 4.188403 12.64791779 3.11303711 9.97167969 C2.63443111 8.79178719 2.63443111 8.79178719 2.14615631 7.58805847 C0 2.2281822 0 2.2281822 0 0 Z " fill="#FFFFFF" transform="translate(2113,514)"/>
<path d="M0 0 C0.33 0 0.66 0 1 0 C1.02916504 0.56468994 1.05833008 1.12937988 1.08837891 1.71118164 C4.67666118 65.30492639 29.43900906 127.55377213 68 178 C68.44698242 178.59119629 68.89396484 179.18239258 69.35449219 179.79150391 C75.27845851 187.61122475 81.55071207 194.95429255 88.27734375 202.09375 C90.51300655 204.48016768 92.6814579 206.89593536 94.8125 209.375 C99.76734404 215.08384204 105.13754237 220.21705162 110.8671875 225.140625 C112.30989552 226.39837046 113.73153876 227.6806258 115.1328125 228.984375 C122.96214663 236.2563667 131.43469142 242.63112993 140 249 C140.60360352 249.45020508 141.20720703 249.90041016 141.82910156 250.36425781 C209.85383699 300.82921002 292.79247356 327.1521923 515.875 350.875 C516.65481232 350.81363861 517.43462463 350.75227722 518.23806763 350.6890564 C532.92704636 349.49808847 547.0154158 346.97074605 561.34155273 343.50317383 C563.96343986 343.00691987 566.33895067 342.90671988 569 343 C564.84431803 348.90611452 560.24273303 353.9814961 555.0625 359 C550.36480197 363.57701502 545.86649253 368.21483625 541.58764648 373.1875 C539.49866566 375.57233678 537.27086666 377.78889299 535 380 C532.04816975 382.91626603 529.19611141 385.84605835 526.5 389 C523.01667458 393.0748335 519.22181292 396.79292992 515.41015625 400.55859375 C512.73145468 403.27202727 510.25391882 406.10777023 507.77734375 409.00390625 C505.04900715 412.06803813 502.10332092 414.90481832 499.18359375 417.78515625 C497.22025329 419.77659461 495.37920331 421.81302578 493.5625 423.9375 C490.0553056 428.03058303 486.24274842 431.77224704 482.41015625 435.55859375 C479.73145468 438.27202727 477.25391882 441.10777023 474.77734375 444.00390625 C472.04900715 447.06803813 469.10332092 449.90481832 466.18359375 452.78515625 C464.22025329 454.77659461 462.37920331 456.81302578 460.5625 458.9375 C457.0553056 463.03058303 453.24274842 466.77224704 449.41015625 470.55859375 C446.73145468 473.27202727 444.25391882 476.10777023 441.77734375 479.00390625 C439.05022777 482.06666727 436.10595363 484.90223493 433.1875 487.78125 C431.20279658 489.79430632 429.33903084 491.85446403 427.5 494 C424.95308392 496.97140209 422.28621141 499.7514401 419.5 502.5 C416.73439592 505.22829407 414.08712969 507.98516834 411.5625 510.9375 C408.0553056 515.03058303 404.24274842 518.77224704 400.41015625 522.55859375 C397.73145468 525.27202727 395.25391882 528.10777023 392.77734375 531.00390625 C390.05022777 534.06666727 387.10595363 536.90223493 384.1875 539.78125 C382.20279658 541.79430632 380.33903084 543.85446403 378.5 546 C374.57443992 550.57676281 370.29843892 554.77653385 366 559 C364.99889319 559.99889197 363.99841898 560.99842147 363 562 C357.11602922 557.22443253 351.2743378 552.40719587 345.5 547.5 C341.53093394 544.12719816 337.53983111 540.78823463 333.5 537.5 C328.8954642 533.75212202 324.35980809 529.93016556 319.8359375 526.0859375 C316.4194046 523.18755177 312.97495162 520.328449 309.5 517.5 C304.8954642 513.75212202 300.35980809 509.93016556 295.8359375 506.0859375 C292.4194046 503.18755177 288.97495162 500.328449 285.5 497.5 C280.8954642 493.75212202 276.35980809 489.93016556 271.8359375 486.0859375 C268.4194046 483.18755177 264.97495162 480.328449 261.5 477.5 C256.8954642 473.75212202 252.35980809 469.93016556 247.8359375 466.0859375 C244.4194046 463.18755177 240.97495162 460.328449 237.5 457.5 C232.8954642 453.75212202 228.35980809 449.93016556 223.8359375 446.0859375 C220.4194046 443.18755177 216.97495162 440.328449 213.5 437.5 C208.8954642 433.75212202 204.35980809 429.93016556 199.8359375 426.0859375 C196.4194046 423.18755177 192.97495162 420.328449 189.5 417.5 C184.8954642 413.75212202 180.35980809 409.93016556 175.8359375 406.0859375 C172.4194046 403.18755177 168.97495162 400.328449 165.5 397.5 C160.46483179 393.39754023 155.49229597 389.2270563 150.54907227 385.01464844 C148.3060165 383.10519625 146.05404373 381.20744968 143.79199219 379.32055664 C135.59221354 372.44058294 127.8930505 365.1777965 120.36547852 357.57128906 C118.54440913 355.73172541 116.71522496 353.90052859 114.88476562 352.0703125 C109.04910691 346.2175727 103.30438435 340.34577325 98 334 C97.46818115 333.37496582 96.9363623 332.74993164 96.38842773 332.10595703 C55.45766628 283.80680667 30.70494347 228.69601656 14 168 C13.68337402 166.8557959 13.36674805 165.7115918 13.04052734 164.53271484 C3.01345994 127.78076387 -2.23972521 90.46198256 -2.125 52.375 C-2.12378143 51.49223389 -2.12256287 50.60946777 -2.12130737 49.69995117 C-2.10186553 37.62806044 -1.94674563 25.5659063 -1.5625 13.5 C-1.52334473 12.23720215 -1.48418945 10.9744043 -1.44384766 9.67333984 C-1.12862936 1.12862936 -1.12862936 1.12862936 0 0 Z " fill="#FEFEFE" transform="translate(110,487)"/>
<path d="M0 0 C1.20914062 0.11746582 2.41828125 0.23493164 3.6640625 0.35595703 C18.88432332 2.00932332 18.88432332 2.00932332 24 7.125 C26.38186602 11.03126027 26.68763356 14.26957832 26.69392776 18.7984972 C26.69776891 19.83671299 26.70161005 20.87492878 26.7055676 21.94460565 C26.70470112 23.08379109 26.70383463 24.22297653 26.70294189 25.39668274 C26.70739858 27.21362342 26.70739858 27.21362342 26.7119453 29.06726998 C26.71912586 32.43100138 26.72180463 35.79468171 26.72254276 39.15841711 C26.72439402 42.78565059 26.73194168 46.41287301 26.73867798 50.0401001 C26.75225847 57.97189693 26.75828546 65.90368871 26.76268864 73.83549523 C26.76545131 78.78782969 26.76968869 83.7401622 26.77419281 88.69249535 C26.78638468 102.40343382 26.79668443 116.11437074 26.8000679 129.82531452 C26.80028747 130.70279365 26.80050703 131.58027277 26.80073325 132.48434217 C26.80095153 133.36392111 26.80116981 134.24350004 26.8013947 135.14973289 C26.80183817 136.93209732 26.80228473 138.71446174 26.80273438 140.49682617 C26.8029558 141.38094058 26.80317723 142.26505499 26.80340537 143.17596074 C26.807354 157.50405687 26.82481034 171.83210215 26.8480939 186.16017864 C26.87180447 200.86971252 26.8842696 215.57922089 26.88543582 230.28877419 C26.8863527 238.54803148 26.89210836 246.80722252 26.91025543 255.06646156 C26.92565239 262.09882245 26.93077926 269.1310966 26.92251733 276.16347114 C26.91860949 279.75117859 26.91954684 283.33871135 26.93357468 286.92639732 C26.94864699 290.81679583 26.94045109 294.70694822 26.92999268 298.59736633 C26.94207728 300.29610625 26.94207728 300.29610625 26.95440602 302.02916414 C26.91663161 308.02528687 26.53080044 312.42467562 23.5625 317.6875 C16.76096353 324.14023973 5.8563797 324.06097076 -3.05859375 323.875 C-22.29432753 322.80758356 -47.0627925 320.43777177 -62.4375 307.6875 C-67.7848793 301.662041 -72.30964124 295.09665143 -76.625 288.3125 C-77.91262152 286.31417493 -79.20184039 284.3168787 -80.4921875 282.3203125 C-81.03523277 281.47880646 -81.03523277 281.47880646 -81.58924866 280.62030029 C-87.10556752 272.08562097 -92.71496597 263.61163293 -98.31021118 255.12860107 C-100.2097639 252.24850583 -102.10826936 249.36772265 -104.0065918 246.48681641 C-109.12556736 238.72082261 -114.24733479 230.95698661 -119.4140625 223.22265625 C-125.34233224 214.3483247 -131.21460975 205.43706737 -137.08764648 196.52612305 C-138.99962494 193.62556898 -140.91287466 190.72585617 -142.82617188 187.82617188 C-143.44809418 186.88270905 -144.07001648 185.93924622 -144.71078491 184.9671936 C-145.93706717 183.10700781 -147.16428448 181.24743805 -148.39248657 179.38851929 C-151.01556478 175.40978334 -153.61968459 171.4250649 -156.13232422 167.37548828 C-156.53305649 166.73358047 -156.93378876 166.09167267 -157.34666443 165.43031311 C-158.3701819 163.78140817 -159.3809453 162.12460409 -160.39038086 160.46704102 C-163.36681828 156.4256886 -166.42590532 153.09802953 -171.5 152.0625 C-175.49357847 152.91219755 -176.86084085 154.56506089 -179.4375 157.6875 C-180.17230953 160.67900889 -180.17230953 160.67900889 -180.04981995 163.96748352 C-180.0640802 165.86625748 -180.0640802 165.86625748 -180.07862854 167.8033905 C-180.06399807 169.19876556 -180.04892275 170.59413601 -180.03344727 171.98950195 C-180.03535188 173.4649296 -180.03950885 174.94035579 -180.04574585 176.41577148 C-180.05453125 179.58944889 -180.04779197 182.76257924 -180.02908516 185.93621254 C-179.99996837 190.9586909 -180.00779326 195.98069904 -180.02098083 201.0032196 C-180.04164277 210.76243984 -180.02605193 220.52143236 -180.00550842 230.28063965 C-179.98036787 242.69185692 -179.96755175 255.10294602 -179.99546474 267.51416749 C-180.0053973 272.5022912 -179.99533914 277.489849 -179.96955693 282.47791064 C-179.95734685 285.58782601 -179.96160735 288.69756654 -179.97013474 291.80748749 C-179.97066781 293.24415974 -179.96438531 294.68085409 -179.95059395 296.11746025 C-179.87829161 304.03680518 -179.97047246 309.99379586 -184.4375 316.6875 C-189.28547743 320.62648166 -193.11098231 321.80470604 -199.23095703 321.83276367 C-200.65361374 321.84233345 -200.65361374 321.84233345 -202.10501099 321.85209656 C-203.63471024 321.85376579 -203.63471024 321.85376579 -205.1953125 321.85546875 C-206.25354218 321.85879715 -207.31177185 321.86212555 -208.40206909 321.86555481 C-210.64304165 321.87061695 -212.88402173 321.87296335 -215.125 321.87280273 C-218.52877505 321.87497844 -221.93222024 321.89311211 -225.3359375 321.91210938 C-227.51822807 321.91504571 -229.70052016 321.9170289 -231.8828125 321.91796875 C-232.89046661 321.92515427 -233.89812073 321.93233978 -234.93630981 321.93974304 C-250.74007493 321.88947965 -250.74007493 321.88947965 -256.5 317.1875 C-259.13592591 313.78630528 -259.56382497 312.17133796 -259.58454514 307.94588661 C-259.59186968 306.93912018 -259.59919422 305.93235376 -259.60674071 304.89507926 C-259.60976518 303.78071537 -259.61278965 302.66635148 -259.61590576 301.51821899 C-259.62296044 300.34074675 -259.63001511 299.16327451 -259.63728356 297.95012128 C-259.6558564 294.67135537 -259.66992896 291.3926052 -259.68208575 288.1138103 C-259.69622953 284.58118581 -259.71603123 281.0485923 -259.73503113 277.51599121 C-259.77546537 269.78416649 -259.80835447 262.05232064 -259.83961773 254.32045412 C-259.85915404 249.49103995 -259.8801365 244.66163274 -259.90137482 239.8322258 C-259.95990388 226.45852059 -260.01650583 213.08481029 -260.06621933 199.71106911 C-260.06940651 198.85455083 -260.07259368 197.99803256 -260.07587744 197.11555918 C-260.07907067 196.25698598 -260.08226389 195.39841277 -260.08555388 194.5138222 C-260.09202618 192.77402598 -260.09850171 191.03422978 -260.10498047 189.29443359 C-260.10819251 188.43143404 -260.11140456 187.56843448 -260.11471394 186.67928343 C-260.16705846 172.71329082 -260.23302284 158.74739863 -260.30489931 144.78149422 C-260.37851518 130.439293 -260.4406642 116.09707903 -260.49140286 101.75477827 C-260.52015147 93.70377913 -260.55377845 85.65286697 -260.60005951 77.60194778 C-260.63944158 70.74172954 -260.6683014 63.88156641 -260.68368712 57.02125068 C-260.69184035 53.5240444 -260.70480367 50.0270389 -260.73119926 46.52991867 C-260.75726513 42.72871008 -260.76443303 38.92790438 -260.76702881 35.12661743 C-260.77897616 34.03456076 -260.79092351 32.94250409 -260.80323291 31.8173548 C-260.78049547 24.25752486 -260.6406431 14.89569833 -255.88580871 8.6489321 C-245.2299306 -1.6725227 -227.22459715 0.27158686 -213.6953125 0.4140625 C-192.66907345 0.95872784 -177.56634736 10.06359764 -163.33203125 24.87890625 C-157.34744595 31.77660353 -153.18556748 39.90770136 -148.73828125 47.83203125 C-137.1335342 68.49228584 -124.27441727 88.20295546 -111.03369141 107.83349609 C-107.39616614 113.228438 -103.79200756 118.64545313 -100.1875 124.0625 C-98.92466721 125.9571566 -97.66164589 127.85168755 -96.3984375 129.74609375 C-87.3984375 143.24609375 -87.3984375 143.24609375 -78.3984375 156.74609375 C-77.72329102 157.75712158 -77.04814453 158.76814941 -76.35253906 159.80981445 C-75.11895139 161.66349853 -73.89126026 163.52112707 -72.67089844 165.38354492 C-71.8786084 166.58974487 -71.8786084 166.58974487 -71.0703125 167.8203125 C-70.6180127 168.51398926 -70.16571289 169.20766602 -69.69970703 169.92236328 C-66.39927926 174.53785511 -62.6788264 176.02438682 -57.4375 177.6875 C-55.77825008 161.18677887 -55.17478675 144.89290166 -55.27734375 128.31640625 C-55.28364196 125.97004957 -55.28887268 123.62368981 -55.29310608 121.27732849 C-55.30623817 115.17341982 -55.33058706 109.06961651 -55.35845947 102.96575928 C-55.40203047 93.17771982 -55.43154091 83.38965259 -55.4545002 73.60154533 C-55.46456526 70.22240517 -55.48161888 66.84335524 -55.49949646 63.46424866 C-55.68827339 16.05957925 -55.68827339 16.05957925 -44.375 3.375 C-31.03516847 -4.28830748 -14.56750938 -1.46013349 0 0 Z " fill="#FFFFFF" transform="translate(1636.4375,111.3125)"/>
<path d="M0 0 C0.76732452 -0.00979385 1.53464905 -0.01958771 2.32522583 -0.02967834 C51.31695911 -0.52581358 95.2888318 12.23563444 131 47.05078125 C155.17878117 71.52313278 169.04639794 104.50093411 173.75 138.23828125 C173.8442627 138.88780762 173.93852539 139.53733398 174.03564453 140.20654297 C179.59087651 182.90928322 169.17466987 228.478162 143.234375 263.08203125 C140.26563767 266.919554 137.07060277 270.53057202 133.7578125 274.07421875 C132.03645685 275.92953203 130.45342909 277.82548999 128.875 279.80078125 C124.77041542 284.6157747 119.71563805 288.35867208 114.75 292.23828125 C113.39068359 293.33849609 113.39068359 293.33849609 112.00390625 294.4609375 C78.02354596 321.18335676 33.34150844 330.25825798 -9.02612305 325.41381836 C-51.98017043 319.68892202 -92.07818979 299.63156636 -118.8359375 264.93359375 C-128.88455182 251.50406542 -136.45283316 236.94901241 -142.25 221.23828125 C-142.60553955 220.28864502 -142.60553955 220.28864502 -142.96826172 219.31982422 C-154.23941648 188.56348971 -154.83031673 151.94231755 -147.25 120.23828125 C-147.06808105 119.46194336 -146.88616211 118.68560547 -146.69873047 117.88574219 C-140.06357404 90.57427614 -125.38167021 66.5262612 -106.25 46.23828125 C-105.62867188 45.56410156 -105.00734375 44.88992187 -104.3671875 44.1953125 C-78.40127488 16.97999405 -37.42807922 0.39739576 0 0 Z M-40.25 90.23828125 C-40.87648438 90.71136719 -41.50296875 91.18445313 -42.1484375 91.671875 C-59.58829596 105.4927905 -67.93300145 128.69041899 -70.5625 150.05078125 C-73.31373985 176.45421848 -67.12239121 201.85510141 -51.25 223.23828125 C-50.58291016 224.181875 -50.58291016 224.181875 -49.90234375 225.14453125 C-38.07458124 240.48083493 -17.9833708 249.90302535 0.82128906 252.52734375 C21.17862372 254.84854789 42.84501366 250.80633035 59.35302734 237.99414062 C63.01576301 234.93308409 66.39540751 231.63148775 69.75 228.23828125 C70.49121094 227.50738281 71.23242188 226.77648437 71.99609375 226.0234375 C88.66280468 208.57699741 95.13032808 183.53884969 94.90234375 159.98046875 C93.84826577 134.08798924 84.63911174 109.89129194 65.765625 91.80859375 C57.15668649 84.47092336 47.48710703 78.86472137 36.75 75.23828125 C35.82832031 74.91988281 34.90664062 74.60148437 33.95703125 74.2734375 C8.70924639 67.03596152 -20.33098325 73.18432855 -40.25 90.23828125 Z " fill="#FFFFFF" transform="translate(1162.25,109.76171875)"/>
<path d="M0 0 C1.80853641 -0.00128164 1.80853641 -0.00128164 3.65360892 -0.00258917 C6.99213747 -0.00394998 10.33060722 -0.00083041 13.66912866 0.0041889 C17.27232883 0.00851163 20.87552721 0.00704568 24.47872925 0.00628662 C30.71884973 0.00576254 36.95895975 0.00889723 43.19907761 0.01452446 C52.22121464 0.02265517 61.24334661 0.02525629 70.26548691 0.02651245 C84.90368888 0.0287005 99.54188528 0.03535389 114.18008423 0.04481506 C128.39883394 0.05399557 142.61758215 0.06107328 156.83633423 0.06532288 C157.71293459 0.0655856 158.58953495 0.06584832 159.49269895 0.06611901 C163.89039209 0.06742406 168.28808523 0.06868776 172.68577838 0.06993091 C209.16288919 0.08029583 245.63998968 0.09873 282.11709595 0.12025452 C282.11709595 26.19025452 282.11709595 52.26025452 282.11709595 79.12025452 C242.84709595 79.12025452 203.57709595 79.12025452 163.11709595 79.12025452 C163.11709595 193.30025452 163.11709595 307.48025452 163.11709595 425.12025452 C95.88915477 425.12025452 95.88915477 425.12025452 78.40615845 408.60853577 C66.44548044 395.60691138 62.78771924 380.82633869 62.87658691 363.6424408 C62.87487806 362.4210815 62.87316921 361.1997222 62.87140858 359.94135201 C62.86869839 356.57758978 62.87489341 353.21406384 62.8849647 349.85033035 C62.89364423 346.21311724 62.89067587 342.57591075 62.88916016 338.93869019 C62.88811414 332.64569771 62.89436103 326.35274687 62.90563583 320.05976486 C62.92192641 310.9613028 62.92710247 301.86286078 62.92961182 292.76438572 C62.93398335 278.00083579 62.94727772 263.23730804 62.96621704 248.47377014 C62.98458988 234.1368572 62.99873951 219.7999503 63.00723267 205.46302795 C63.00775811 204.5785175 63.00828356 203.69400705 63.00882493 202.78269325 C63.0114351 198.34513047 63.0139625 193.90756765 63.01644874 189.4700048 C63.03716436 152.68673501 63.074025 115.90350625 63.11709595 79.12025452 C23.84709595 79.12025452 -15.42290405 79.12025452 -55.88290405 79.12025452 C-55.88290405 29.42448732 -55.88290405 29.42448732 -41.63290405 14.37025452 C-29.45799493 2.80817639 -16.2925248 -0.04212974 0 0 Z " fill="#FFFFFF" transform="translate(1066.8829040527344,513.8797454833984)"/>
<path d="M0 0 C5.58265355 -0.07504601 11.1650033 -0.12901841 16.74804688 -0.16479492 C18.64100266 -0.17973424 20.53392475 -0.20009315 22.42675781 -0.22631836 C36.6631621 -0.41839683 50.37519907 -0.22614327 63.25 6.6875 C64.25365601 7.21186646 64.25365601 7.21186646 65.27758789 7.74682617 C81.31187114 16.37828962 92.311532 29.94102212 97.8125 47.3125 C100.05067853 55.08508362 100.1416644 62.6699628 100.12025452 70.69944763 C100.12110894 71.87332458 100.12196337 73.04720153 100.12284368 74.25665051 C100.12420273 77.50170014 100.12108989 80.74670953 100.11606562 83.99175441 C100.11173768 87.4960949 100.11320921 91.00043359 100.1139679 94.504776 C100.11449164 100.57190327 100.1113604 106.63901977 100.10573006 112.70614433 C100.09759489 121.47813266 100.09499777 130.2501158 100.09374207 139.02210749 C100.09155472 153.25489427 100.08490322 167.48767532 100.07543945 181.72045898 C100.06625714 195.54435192 100.05918031 209.3682433 100.05493164 223.19213867 C100.05466892 224.04458034 100.05440619 224.89702201 100.05413551 225.77529525 C100.05283045 230.05184518 100.05156675 234.32839512 100.05032361 238.60494506 C100.03996087 274.06996747 100.02235117 309.5349832 100 345 C101.24677521 344.99333817 102.49355042 344.98667633 103.77810669 344.97981262 C115.57606616 344.91877549 127.37399324 344.87391932 139.17207527 344.84456348 C145.23636627 344.82896361 151.30052893 344.80782978 157.36474609 344.77368164 C163.22622805 344.74088483 169.08758721 344.72310437 174.9491539 344.71536827 C177.17605393 344.70986105 179.40294788 344.69910767 181.62979507 344.68280983 C196.38169839 344.57921987 210.78752201 344.4872543 224.1875 351.5625 C224.85402588 351.90909668 225.52055176 352.25569336 226.20727539 352.61279297 C240.81048237 360.55195668 250.61299553 373.58782303 255.34375 389.37890625 C256.55912758 394.23318216 257.1205972 398.58921259 257.09765625 403.61328125 C257.09443359 404.86044922 257.09121094 406.10761719 257.08789062 407.39257812 C257.07951172 408.68615234 257.07113281 409.97972656 257.0625 411.3125 C257.05798828 412.62541016 257.05347656 413.93832031 257.04882812 415.29101562 C257.03705949 418.5273901 257.0206176 421.76367178 257 425 C233.5637718 425.07026936 210.12755954 425.12307568 186.69124699 425.15543652 C175.80788196 425.17086563 164.92458262 425.19187901 154.04125977 425.22631836 C144.54867345 425.25634237 135.05613474 425.27560371 125.56350225 425.28226548 C120.54329781 425.28615583 115.52322948 425.29521503 110.50306892 425.31719017 C105.76462705 425.33776137 101.02637559 425.34379273 96.2878933 425.33932304 C94.56152431 425.34013912 92.83514802 425.34598058 91.10881805 425.35761642 C64.88469718 425.52549671 42.12190288 419.6038355 22.7890625 400.87890625 C5.29046481 383.23201536 -0.17391629 360.73575567 -0.12025452 336.71264648 C-0.12069099 335.25793692 -0.1215673 333.80322744 -0.12284368 332.34851837 C-0.1250737 328.36463064 -0.12108783 324.38076993 -0.11606562 320.39688563 C-0.11173984 316.09569092 -0.11320906 311.79449767 -0.1139679 307.49330139 C-0.11449178 300.04566081 -0.11135911 292.598029 -0.10573006 285.15039062 C-0.09759674 274.38240756 -0.09499796 263.61442874 -0.09374207 252.84644294 C-0.09155443 235.37532804 -0.08490215 217.90421782 -0.07543945 200.43310547 C-0.06625789 183.46337914 -0.05918069 166.49365409 -0.05493164 149.52392578 C-0.05466892 148.47759212 -0.05440619 147.43125846 -0.05413551 146.35321772 C-0.05283045 141.10397379 -0.05156675 135.85472986 -0.05032361 130.60548592 C-0.03995997 87.07032071 -0.02234948 43.53516059 0 0 Z " fill="#FFFFFF" transform="translate(2907,514)"/>
<path d="M0 0 C3.35008777 3.54826198 4.40698263 6.85594518 4.32421875 11.65625 C2.16523955 17.74818568 -1.59569862 22.21973748 -6.05078125 26.7734375 C-6.72794189 27.47910858 -7.40510254 28.18477966 -8.1027832 28.91183472 C-19.79443677 41.01819841 -31.74776839 52.87547023 -43.65826416 64.76568604 C-46.36458447 67.4693864 -49.06716406 70.17681113 -51.76979065 72.88420296 C-54.3983744 75.51641334 -57.02935102 78.1462216 -59.66104126 80.77532578 C-60.90557967 82.01920345 -62.14939338 83.2638067 -63.39242554 84.50918961 C-75.02708036 96.16105853 -75.02708036 96.16105853 -81.16748047 101.36813354 C-83.11264664 103.02934104 -84.8997537 104.81679289 -86.67578125 106.65625 C-89.21550311 109.2355006 -91.80029439 111.67842389 -94.55078125 114.03125 C-98.67878619 117.57533283 -102.46052532 121.41933719 -106.2734375 125.296875 C-108.81804812 127.79597226 -111.46598613 130.04686285 -114.30078125 132.20703125 C-117.80197716 135.89721217 -118.07691143 140.81650951 -118.55053711 145.66650391 C-118.62121714 146.37305492 -118.69189716 147.07960594 -118.76471901 147.8075676 C-119.0020704 150.20695 -119.22781247 152.60727149 -119.453125 155.0078125 C-119.62299758 156.76220446 -119.79316883 158.51656752 -119.96360779 160.27090454 C-122.8557374 190.33124686 -125.37874002 220.42937345 -127.96948242 250.51708984 C-128.50664901 256.7549878 -129.04899246 262.9924144 -129.5968346 269.22938406 C-129.88299048 272.48974824 -130.1658142 275.75034396 -130.44369698 279.01142502 C-132.41274577 302.104948 -132.41274577 302.104948 -134.16381836 312.84619141 C-134.27395799 313.52897345 -134.38409761 314.21175549 -134.49757481 314.91522789 C-137.83334866 333.81655972 -148.22872083 351.16076317 -163.67578125 362.65625 C-166.43937839 364.31440828 -167.39181909 364.65625 -170.67578125 364.65625 C-173.94360178 359.18355091 -174.7434409 353.70675309 -175.69921875 347.4609375 C-175.88179733 346.32036392 -176.06437592 345.17979034 -176.25248718 344.00465393 C-176.7558737 340.84554265 -177.2501628 337.68516623 -177.74043655 334.52399826 C-178.15716035 331.84818123 -178.5814798 329.17359309 -179.00597477 326.4989996 C-180.44777547 317.41460264 -181.86423047 308.32632027 -183.27515411 299.23708344 C-183.6900185 296.56453385 -184.10521268 293.89203563 -184.52044678 291.21954346 C-187.18141742 274.08986304 -189.83735003 256.9594079 -192.47216797 239.82568359 C-192.74719894 238.03889175 -193.02224839 236.25210275 -193.2973175 234.46531677 C-193.81143606 231.12571742 -194.32408307 227.78589682 -194.83586121 224.44593811 C-195.06638149 222.94759281 -195.29695398 221.44925555 -195.52758789 219.95092773 C-195.72614883 218.65678452 -195.92470978 217.3626413 -196.12928772 216.02928162 C-196.58426527 213.22109894 -197.09255767 210.44011653 -197.67578125 207.65625 C-202.71265769 211.28280104 -207.4391409 215.14519384 -212.11328125 219.21875 C-219.3742924 225.52394876 -226.98008583 231.31814399 -234.64892578 237.11425781 C-237.66336726 239.40758621 -240.64067458 241.74659152 -243.61328125 244.09375 C-255.1268337 253.16937349 -266.65987375 262.21581582 -278.42089844 270.96972656 C-282.25718005 273.82853947 -286.06535739 276.71961661 -289.8515625 279.64453125 C-331.64763576 311.90625171 -331.64763576 311.90625171 -358.67578125 309.65625 C-369.2581024 307.30758856 -377.33253624 301.36046007 -384.70703125 293.6640625 C-386.63944084 291.69331145 -388.64390391 289.89008134 -390.73828125 288.09375 C-393.32531863 285.86980559 -395.78524958 283.59014732 -398.17578125 281.15625 C-400.54620482 278.74292283 -402.98314433 276.48353147 -405.55078125 274.28125 C-408.56045655 271.68990795 -411.38666741 268.98370217 -414.17578125 266.15625 C-416.84332211 263.45241607 -419.53037617 260.86369465 -422.42578125 258.40625 C-426.27379927 255.08791867 -429.92541412 251.58900194 -433.55078125 248.03125 C-434.40881348 247.20512207 -434.40881348 247.20512207 -435.28417969 246.36230469 C-438.94071993 242.73636311 -441.46542633 239.7576366 -441.828125 234.41015625 C-441.27497756 228.76805231 -440.0095497 225.61316902 -435.67578125 221.65625 C-424.36954609 215.98944449 -413.39359364 217.80165739 -401.75 221.52856445 C-393.42793275 224.34906486 -385.23301808 227.38150096 -377.13696289 230.79589844 C-367.46035421 234.8344963 -358.83572008 236.96535181 -348.4296875 233.609375 C-342.08723339 230.73305186 -337.16008567 226.77736311 -332.15234375 221.9921875 C-329.69046974 219.67010445 -327.13851467 217.57173758 -324.48828125 215.46875 C-318.41970727 210.56389404 -312.78871461 205.22869999 -307.11328125 199.87890625 C-304.03806059 196.98307346 -300.89698599 194.18103404 -297.6953125 191.42578125 C-294.98091889 189.04740541 -292.33007368 186.60114371 -289.67578125 184.15625 C-285.74300595 180.53527107 -281.77363902 176.96665892 -277.734375 173.46484375 C-275.18621475 171.2261375 -272.68167532 168.94214788 -270.17578125 166.65625 C-266.41227604 163.22360239 -262.61448774 159.8406999 -258.76953125 156.5 C-255.24765655 153.39864765 -251.79501103 150.22111667 -248.328125 147.05859375 C-246.15117129 145.08683156 -243.95739451 143.14259663 -241.73828125 141.21875 C-238.32889545 138.2574149 -234.99783815 135.21472514 -231.67578125 132.15625 C-227.71715939 128.51210671 -223.72401365 124.91711283 -219.66015625 121.390625 C-215.62203434 117.86124286 -211.65663444 114.24990774 -207.67578125 110.65625 C-205.17890133 108.40828023 -202.68124974 106.16116993 -200.18359375 103.9140625 C-198.48985231 102.38916756 -196.79716956 100.86309598 -195.10546875 99.3359375 C-191.3384101 95.93752068 -187.56662539 92.5480839 -183.73828125 89.21875 C-180.51018613 86.40802475 -177.33839682 83.540451 -174.17578125 80.65625 C-170.38643999 77.20049587 -166.56494427 73.7910211 -162.6953125 70.42578125 C-158.64913036 66.88048046 -154.66834938 63.26166001 -150.67578125 59.65625 C-143.67993849 53.33879199 -136.66811136 47.04971382 -129.48828125 40.94140625 C-128.30058873 39.92991351 -127.11309518 38.9181871 -125.92578125 37.90625 C-125.01747559 37.1323291 -125.01747559 37.1323291 -124.09082031 36.34277344 C-120.20001604 33.01045782 -116.41858879 29.59137363 -112.67578125 26.09375 C-87.07324359 2.38785447 -33.89573566 -27.17979736 0 0 Z " fill="#FFFFFF" transform="translate(636.67578125,270.34375)"/>
<path d="M0 0 C0.68637324 -0.00453111 1.37274649 -0.00906223 2.07991892 -0.01373065 C4.36125641 -0.02630912 6.64235316 -0.02475859 8.92372131 -0.02310181 C10.56692814 -0.02909105 12.21013216 -0.03589751 13.85333252 -0.04345703 C18.30374158 -0.06108114 22.75407368 -0.06581082 27.20451427 -0.0670886 C29.98746139 -0.06851247 32.77038909 -0.07278647 35.55333138 -0.07808304 C45.26892968 -0.09656944 54.98447319 -0.10475514 64.7000885 -0.10317993 C73.74616787 -0.101978 82.79200885 -0.12309409 91.83802789 -0.15466726 C99.61488652 -0.1808403 107.39166731 -0.19154684 115.16856962 -0.19026911 C119.80890613 -0.1897599 124.44903054 -0.1954207 129.08932304 -0.21662521 C133.45363893 -0.23602568 137.8175407 -0.23611983 142.18187141 -0.22159195 C143.7797926 -0.21950519 145.37773984 -0.22419686 146.97561646 -0.23631287 C162.03962061 -0.343104 162.03962061 -0.343104 168.8341217 4.26742554 C173.62720456 9.30630752 174.01957976 13.63436826 174.22084045 20.33773804 C174.25912712 21.53123367 174.25912712 21.53123367 174.29818726 22.74884033 C174.3501874 24.43497301 174.39961535 26.12118668 174.44667053 27.8074646 C174.52074931 30.36233803 174.61164941 32.916254 174.70326233 35.47055054 C174.75183111 37.11374921 174.79938843 38.75697816 174.84584045 40.40023804 C174.8894294 41.53043869 174.8894294 41.53043869 174.93389893 42.68347168 C175.09707157 49.71730349 174.45510046 57.65623704 169.8341217 63.26742554 C163.64981397 66.95169397 158.51430989 67.40728759 151.44471741 67.33334351 C150.60027573 67.32867065 149.75583405 67.3239978 148.88580322 67.31918335 C147.05353826 67.30868999 145.2212847 67.29603033 143.38904762 67.28145981 C140.48362658 67.25941365 137.57827106 67.24534858 134.67279053 67.23376465 C126.41210471 67.20020039 118.1515267 67.15871029 109.89100647 67.09603882 C104.83543358 67.05825547 99.77997263 67.03532525 94.7242794 67.02173233 C92.80304537 67.01370856 90.8818258 67.00014314 88.96067238 66.98080063 C86.26380981 66.95413168 83.56747739 66.94641123 80.87049866 66.94271851 C79.69416367 66.9241832 79.69416367 66.9241832 78.49406433 66.90527344 C72.9651771 66.92509972 67.8324696 67.79409639 62.8341217 70.26742554 C58.4122142 75.57371454 57.67143639 80.02603285 57.6309967 86.71664429 C57.62529663 87.44809158 57.61959656 88.17953888 57.61372375 88.93315125 C57.6042819 90.48230549 57.597743 92.03147974 57.59388733 93.58065796 C57.58422798 95.92908779 57.55321768 98.27662462 57.5216217 100.62484741 C57.51508634 102.13460788 57.50983796 103.64437456 57.5059967 105.15414429 C57.4874765 106.19365486 57.4874765 106.19365486 57.46858215 107.25416565 C57.49614915 113.41238344 58.7777627 118.96914194 62.9591217 123.64242554 C71.04300954 128.21157953 80.26277566 127.49165806 89.24566841 127.3566246 C91.66396651 127.32146328 94.08199373 127.30112857 96.50048828 127.28479004 C103.37017865 127.23620624 110.23950031 127.16476544 117.10877991 127.07553101 C121.32718972 127.0217595 125.54539285 126.98781461 129.76408195 126.96579361 C131.36242282 126.95344387 132.960725 126.93352141 134.55887032 126.90563583 C150.24950599 126.63413566 150.24950599 126.63413566 156.8341217 131.26742554 C161.64905985 138.72281363 161.05217489 146.60366364 161.07435608 155.17391968 C161.08401533 157.43007942 161.11503898 159.68530923 161.1466217 161.94125366 C161.27618967 179.27550257 161.27618967 179.27550257 156.45252991 184.86972046 C151.45877795 189.35571292 147.29687022 189.39121944 140.82167053 189.33334351 C139.77446335 189.32633423 139.77446335 189.32633423 138.70610046 189.31918335 C137.19304653 189.30870003 135.68000643 189.29604372 134.16698647 189.28145981 C131.76563909 189.25937843 129.36437141 189.2453359 126.96295166 189.23376465 C120.13596213 189.20023679 113.30910343 189.15878266 106.48231506 189.09603882 C102.30206323 189.05819562 98.12194724 189.03530712 93.9415493 189.02173233 C92.35523892 189.01372325 90.76894577 189.00017911 89.18273354 188.98080063 C75.29330225 188.41888233 75.29330225 188.41888233 63.3966217 194.57992554 C57.79662227 204.21192457 58.61118303 216.07341689 58.5216217 226.89242554 C58.4926178 228.06805054 58.46361389 229.24367554 58.43373108 230.45492554 C58.38192871 237.54786542 58.87746741 242.30081898 62.8341217 248.26742554 C68.86731343 253.07014627 74.85907637 253.40738337 82.26771545 253.32992554 C84.02861954 253.32104457 85.78952454 253.31234542 87.5504303 253.30380249 C88.48232178 253.29756866 89.41421326 253.29133484 90.37434387 253.28491211 C106.82899865 253.18559975 123.28427319 253.2381787 139.73674011 253.52987671 C141.71035273 253.56310831 143.68405999 253.59114576 145.65782166 253.61386108 C148.42277396 253.64694162 151.18675811 253.69878754 153.9513092 253.75570679 C154.76506516 253.76209671 155.57882111 253.76848663 156.41723633 253.77507019 C162.30483222 253.92840661 166.30419464 255.36998024 171.0841217 258.95492554 C175.09445337 264.25429237 175.14304015 271.1974549 175.13490295 277.60726929 C175.13918808 278.37366226 175.14347321 279.14005524 175.14788818 279.92967224 C175.15359103 281.53891011 175.15416188 283.14817373 175.14979553 284.75741577 C175.14663399 287.19545164 175.17014985 289.63227332 175.19544983 292.07015991 C175.27235035 310.73871719 175.27235035 310.73871719 169.4591217 316.70492554 C164.45456022 319.68383118 160.67730875 320.51843554 154.83282471 320.52812195 C154.13999321 320.5319475 153.44716171 320.53577304 152.73333532 320.53971452 C150.41813879 320.55001055 148.10319185 320.54605887 145.78797913 320.54208374 C144.12536388 320.54643217 142.46275064 320.55161575 140.80014038 320.55757141 C136.28762394 320.57096035 131.77519127 320.57154007 127.26265883 320.56900811 C123.49291222 320.56793807 119.72318252 320.57282275 115.95343953 320.57761353 C107.05712735 320.58870891 98.16085738 320.58914631 89.26454163 320.58309937 C80.09471153 320.57706217 70.92503498 320.58936405 61.75523108 320.61066943 C53.87650424 320.6283003 45.9978262 320.63428435 38.11908036 320.63103169 C33.4161587 320.62922066 28.7133465 320.63183687 24.01044273 320.64574623 C19.58546828 320.65834368 15.16073254 320.65636236 10.73576164 320.64333534 C9.11527169 320.64097398 7.49476485 320.64368845 5.87429428 320.65195847 C-11.85374502 320.73588057 -11.85374502 320.73588057 -19.0408783 314.95492554 C-23.94627386 308.75104291 -23.45432011 302.06812705 -23.43330383 294.51428223 C-23.4401005 292.72646326 -23.4401005 292.72646326 -23.44703448 290.90252674 C-23.45749427 287.60219584 -23.45900613 284.30208312 -23.45664573 281.00175118 C-23.45623712 277.43928233 -23.46728084 273.87684582 -23.47676086 270.31439209 C-23.4933617 263.33812958 -23.49886998 256.36190087 -23.49998562 249.38562025 C-23.50093644 243.71458337 -23.50504843 238.04355762 -23.51138687 232.37252426 C-23.52899606 216.28993451 -23.53822614 200.20737143 -23.53672592 184.12477197 C-23.53664601 183.25806347 -23.5365661 182.39135496 -23.53648376 181.49838257 C-23.536402 180.63061455 -23.53632024 179.76284653 -23.536236 178.86878251 C-23.53542299 164.8033609 -23.55456542 150.73804635 -23.5827605 136.67265572 C-23.61149045 122.22634097 -23.62530076 107.78007844 -23.62357295 93.33373439 C-23.62290913 85.22480489 -23.62839795 77.11598765 -23.64992905 69.00708389 C-23.66814222 62.10359886 -23.67248705 55.20027699 -23.6589102 48.29677834 C-23.65238142 44.77571799 -23.65225969 41.25497067 -23.6696167 37.73394012 C-23.68825333 33.91399397 -23.67579059 30.09450456 -23.66035461 26.27453613 C-23.67064174 25.16577468 -23.68092887 24.05701323 -23.69152772 22.91465294 C-23.62247728 15.18663786 -22.33830536 9.52559388 -16.8533783 3.89242554 C-11.51259831 0.66311671 -6.14899554 0.01686475 0 0 Z " fill="#FFFFFF" transform="translate(1737.1658782958984,112.73257446289063)"/>
<path d="M0 0 C0.33 0 0.66 0 1 0 C2.00281228 79.16817229 -10.67934537 157.88585467 -47.0625 273 C-47.4164534 274.04096832 -47.4164534 274.04096832 -47.77755737 275.10296631 C-48.44154884 277.04965199 -49.1120077 278.99396444 -49.78515625 280.9375 C-50.16551025 282.03964844 -50.54586426 283.14179687 -50.93774414 284.27734375 C-52 287 -52 287 -54 290 C-56.55932617 290.60009766 -56.55932617 290.60009766 -59.79296875 290.9140625 C-60.98212891 291.03523438 -62.17128906 291.15640625 -63.39648438 291.28125 C-64.64751953 291.3946875 -65.89855469 291.508125 -67.1875 291.625 C-68.38826172 291.74617188 -69.58902344 291.86734375 -70.82617188 291.9921875 C-74.54868611 292.35827121 -78.27283669 292.68500436 -82 293 C-83.0921582 293.09933838 -84.18431641 293.19867676 -85.30957031 293.30102539 C-97.08488062 294.24571798 -108.87794399 294.18608595 -120.68408203 294.18530273 C-124.33247816 294.18747469 -127.98056389 294.20564607 -131.62890625 294.22460938 C-151.460291 294.27263416 -171.18953249 293.32989273 -190.8125 290.3125 C-191.92971436 290.14733887 -193.04692871 289.98217773 -194.19799805 289.81201172 C-207.14323788 287.87465227 -220.06811492 285.79419578 -232.99047852 283.71044922 C-242.20353039 282.22664256 -251.41830949 280.77354605 -260.65234375 279.42578125 C-310.96152603 272.05534058 -310.96152603 272.05534058 -325 264 C-325.33 263.34 -325.66 262.68 -326 262 C-325.14696289 261.88519287 -324.29392578 261.77038574 -323.41503906 261.65209961 C-251.53610706 251.80889826 -186.82366173 222.08825971 -129.81494141 177.42041016 C-127.71777276 175.7791232 -125.61500674 174.14515614 -123.51171875 172.51171875 C-119.73758229 169.58026818 -115.96554465 166.64615087 -112.19604492 163.70874023 C-110.69001328 162.5368986 -109.18227308 161.36725044 -107.6730957 160.19946289 C-89.48401025 146.11223104 -71.90643505 130.41386151 -58 112 C-56.99257336 110.7187231 -55.9832994 109.43889756 -54.97265625 108.16015625 C-29.56922633 75.7916932 -11.85079253 39.29885183 0 0 Z " fill="#E1980E" transform="translate(732,530)"/>
<path d="M0 0 C0 4.2093466 -1.77278303 5.13959803 -4.6875 8.125 C-11.77630968 15.58996961 -17.88566129 23.73228235 -24 32 C-24.44730469 32.60070312 -24.89460937 33.20140625 -25.35546875 33.8203125 C-36.01648023 48.18807566 -45.42836829 63.42902681 -53.97949219 79.13525391 C-54.95333707 80.9147341 -55.94880968 82.6823272 -56.9453125 84.44921875 C-82.6445026 130.90544701 -96.47434196 183.61286116 -103 236 C-103.15098145 237.1461377 -103.30196289 238.29227539 -103.45751953 239.47314453 C-114.34510557 325.1526916 -100.90387627 413.63718092 -67 535 C-66.73638672 535.80932983 -66.47277344 536.61865967 -66.20117188 537.45251465 C-53.48873266 576.39945767 -38.56596755 614.3096946 -20.77734375 651.234375 C-19.39769082 654.11476552 -18.13500033 657.01253799 -17 660 C-16.34 660 -15.68 660 -15 660 C-14.67 661.65 -14.34 663.3 -14 665 C-32.47226204 656.40155286 -49.68752935 636.80762361 -62 621 C-63.05665174 619.67136582 -64.11399583 618.34328209 -65.171875 617.015625 C-119.45378288 548.52487755 -150.5948483 467.57625353 -160 381 C-160.10602539 380.03835938 -160.21205078 379.07671875 -160.32128906 378.0859375 C-163.19536701 347.30548984 -162.48507473 314.58152031 -158 284 C-157.85434601 282.99208405 -157.85434601 282.99208405 -157.70574951 281.96380615 C-148.63079461 219.50083575 -128.18741324 158.34119355 -94 105 C-93.56880859 104.32485352 -93.13761719 103.64970703 -92.69335938 102.95410156 C-78.30982805 80.58340192 -61.90948339 58.27083394 -42.75 39.75 C-40.9315887 37.9315887 -39.28301828 36.0275587 -37.625 34.0625 C-34.29224777 30.19680766 -30.62878184 26.85348022 -26.80078125 23.484375 C-24.23520044 21.20862968 -21.72251429 18.88893604 -19.21801758 16.546875 C-13.01706674 10.75285871 -6.65091352 5.27807967 0 0 Z " fill="#F7AF28" transform="translate(161,105)"/>
<path d="M0 0 C0.75050629 -0.00983917 1.50101257 -0.01967834 2.27426147 -0.02981567 C18.81907767 -0.20200415 34.82107521 -0.16874379 50.8984375 4.23828125 C51.75711426 4.46902344 52.61579102 4.69976562 53.50048828 4.9375 C72.20857801 10.14586525 89.9892841 18.71130663 104.8984375 31.23828125 C105.75840332 31.94452637 105.75840332 31.94452637 106.63574219 32.66503906 C113.6051571 38.39004708 120.34390412 44.085321 125.8984375 51.23828125 C126.59066406 52.10582031 127.28289063 52.97335938 127.99609375 53.8671875 C150.8984375 83.36917748 150.8984375 83.36917748 150.8984375 95.23828125 C140.18401202 99.15819301 129.51690074 99.51894378 118.8984375 95.23828125 C110.50523066 90.14710406 105.10884908 83.06644109 99.7109375 75.05078125 C84.03179919 52.05051561 61.33349995 38.36212109 34.21826172 32.67626953 C2.27214867 26.72255503 -32.86877557 32.15255503 -60.1015625 50.23828125 C-63.9315239 53.0721721 -67.52652195 56.0927295 -71.1015625 59.23828125 C-71.70871094 59.70234375 -72.31585937 60.16640625 -72.94140625 60.64453125 C-95.08587228 77.73484856 -107.4704446 109.33408382 -111.27685547 136.24023438 C-113.63617097 156.36444145 -113.84401215 178.48441033 -109.1015625 198.23828125 C-108.86808105 199.26816162 -108.86808105 199.26816162 -108.62988281 200.31884766 C-101.49759837 230.86239312 -82.76817008 258.45048933 -56.11621094 275.13769531 C-38.62553333 285.66722693 -18.62120005 292.43290298 1.8984375 293.23828125 C2.77757813 293.27824219 3.65671875 293.31820313 4.5625 293.359375 C36.36968097 294.08811095 65.84923947 282.63648324 89.15161133 261.10913086 C95.28776345 255.17070852 100.06389286 248.2402457 104.8984375 241.23828125 C110.14711717 233.65329905 115.53202425 228.11929549 124.8984375 226.23828125 C126.92312461 226.15737033 128.95028369 226.13069226 130.9765625 226.140625 C132.13671875 226.14384766 133.296875 226.14707031 134.4921875 226.15039062 C136.30203125 226.16295898 136.30203125 226.16295898 138.1484375 226.17578125 C139.98148438 226.18254883 139.98148438 226.18254883 141.8515625 226.18945312 C144.86723696 226.2012331 147.88281248 226.21768272 150.8984375 226.23828125 C147.37139109 244.98534261 134.69145226 262.55483137 121.8984375 276.23828125 C121.40118164 276.77791504 120.90392578 277.31754883 120.39160156 277.87353516 C101.18643072 298.53878366 76.8841967 312.17614358 49.5859375 319.11328125 C48.83554199 319.3043042 48.08514648 319.49532715 47.31201172 319.69213867 C34.92970237 322.61975953 22.46923715 323.60712117 9.7734375 323.55078125 C9.10378967 323.5486261 8.43414185 323.54647095 7.74420166 323.54425049 C-34.80293034 323.32617643 -72.39530874 308.28580249 -102.9765625 278.73828125 C-112.13301891 269.26608497 -119.61201762 258.69351027 -126.1015625 247.23828125 C-126.42866211 246.66335938 -126.75576172 246.0884375 -127.09277344 245.49609375 C-149.60822015 205.25385144 -152.11417526 154.17351675 -140.03051758 110.20483398 C-133.79540269 88.93728209 -124.47137068 69.20744204 -110.1015625 52.23828125 C-109.64942383 51.70106445 -109.19728516 51.16384766 -108.73144531 50.61035156 C-82.37388126 19.70395251 -40.66940431 0.44170806 0 0 Z " fill="#FFFFFF" transform="translate(2738.1015625,111.76171875)"/>
<path d="M0 0 C1.15461227 0.00323273 1.15461227 0.00323273 2.33255005 0.00653076 C40.82768587 0.17925991 76.45679646 12.86128401 104.8125 39.3125 C106.13121094 40.50939453 106.13121094 40.50939453 107.4765625 41.73046875 C122.70486025 56.16109376 134.79815857 75.18864136 140.8125 95.3125 C130.71238077 98.65691034 117.61458413 99.45721576 107.89453125 94.60546875 C100.29241321 89.88445361 95.97468577 83.84847837 91.09228516 76.50878906 C74.06761839 51.16784471 48.48320183 37.90269851 19.17944336 31.76611328 C-9.7316057 26.22545014 -42.33917832 32.64321979 -67.01953125 48.734375 C-74.25186362 53.67595394 -80.85740318 59.26003901 -87.1875 65.3125 C-87.86039063 65.92222656 -88.53328125 66.53195313 -89.2265625 67.16015625 C-108.76285476 85.49002409 -119.54691395 113.02666616 -122.1875 139.3125 C-122.25453125 139.96669922 -122.3215625 140.62089844 -122.390625 141.29492188 C-126.0705856 179.82835543 -118.09959306 221.91202844 -93.1875 252.3125 C-92.49011719 253.17488281 -91.79273438 254.03726563 -91.07421875 254.92578125 C-73.15137077 275.9941382 -43.91891861 289.15721191 -16.62695312 292.11767578 C-1.69966186 293.30982735 13.26093741 293.0085969 27.8125 289.3125 C28.47507812 289.14621094 29.13765625 288.97992188 29.8203125 288.80859375 C58.58022292 281.3132503 79.78023627 263.69320186 97.5 240.5 C102.97047719 233.47381601 107.60851519 227.68303872 116.8125 226.3125 C124.87542036 225.78586781 132.83929845 226.01502363 140.8125 227.3125 C140.25459547 232.28014304 138.63799099 236.28793601 136.375 240.6875 C135.84700806 241.72318115 135.84700806 241.72318115 135.30834961 242.77978516 C129.0755511 254.77836351 122.20387519 265.53055722 112.8125 275.3125 C111.72426687 276.6209403 110.64074785 277.93331897 109.5625 279.25 C85.57210876 306.59684506 47.75648333 321.22165122 12.1875 324.0625 C10.06329618 324.16412469 7.93819746 324.24941478 5.8125 324.3125 C4.96816406 324.35246094 4.12382812 324.39242188 3.25390625 324.43359375 C-36.51108116 325.4882034 -76.84626588 311.76451678 -105.92919922 284.40942383 C-107.35276689 283.04809253 -108.77021341 281.68036934 -110.1875 280.3125 C-111.03957031 279.52359375 -111.89164063 278.7346875 -112.76953125 277.921875 C-137.38705036 254.50615603 -151.29318715 220.44594168 -156.1875 187.3125 C-156.2817627 186.6848877 -156.37602539 186.05727539 -156.47314453 185.41064453 C-157.47230222 177.83027288 -157.43116022 170.19538057 -157.4375 162.5625 C-157.43851212 161.46551788 -157.43851212 161.46551788 -157.43954468 160.34637451 C-157.42169599 148.12686502 -156.7276387 136.30065462 -154.1875 124.3125 C-154.02121094 123.52311035 -153.85492187 122.7337207 -153.68359375 121.92041016 C-144.72022575 81.11218752 -121.07822348 45.72125445 -85.8046875 23.140625 C-59.86859245 7.0021302 -30.40025843 -0.15359266 0 0 Z " fill="#FFFFFF" transform="translate(2109.1875,111.6875)"/>
<path d="M0 0 C2.7026208 3.61072828 3.37778648 6.21963577 3.39872742 10.68843079 C3.41126556 11.82280075 3.42380371 12.95717072 3.4367218 14.12591553 C3.43528671 15.36093811 3.43385162 16.59596069 3.43237305 17.8684082 C3.44766052 19.82997108 3.44766052 19.82997108 3.46325684 21.8311615 C3.49080817 25.40928589 3.50010874 28.98725136 3.50611091 32.56546807 C3.51549949 36.30780334 3.54170326 40.05002013 3.56611633 43.7922821 C3.60977176 50.87528553 3.63832456 57.95826595 3.66143972 65.04136294 C3.68849655 73.10668988 3.73240774 81.17189757 3.77772844 89.23713934 C3.87056099 105.8246991 3.94224804 122.41228023 4 139 C6.5105521 136.33346081 9.02091602 133.66674453 11.53125 131 C12.2315332 130.25621094 12.93181641 129.51242188 13.65332031 128.74609375 C18.27488826 123.83634489 22.89021881 118.92081608 27.5 114 C32.65959748 108.49331987 37.82656676 102.99368446 43 97.5 C48.19346071 91.98473705 53.38150828 86.46447797 58.5625 80.9375 C59.4891748 79.95003784 59.4891748 79.95003784 60.43457031 78.94262695 C63.50104259 75.67356853 66.56031422 72.39830717 69.60546875 69.109375 C77.35121107 60.7638817 85.27748938 52.63430123 93.39160156 44.64526367 C98.15278599 39.93724006 102.67235092 35.10918119 107 30 C107.45117188 29.47035645 107.90234375 28.94071289 108.3671875 28.39501953 C109.58536388 26.95694718 110.7928737 25.50986032 112 24.0625 C112.42732422 23.55307861 112.85464844 23.04365723 113.29492188 22.51879883 C115.82198508 19.48774801 118.18763016 16.38336963 120.5 13.1875 C127.78133734 3.81850649 137.95456774 -0.77881832 149.5 -2.53125 C159.1980252 -3.4353032 168.40662246 -2.42080622 178 -1 C175.1655031 3.55954871 172.05531898 7.16936402 168.1875 10.875 C164.18564089 14.7363517 160.4469731 18.72539661 156.81030273 22.93359375 C153.77734262 26.39562672 150.60418332 29.72315985 147.4375 33.0625 C146.02187522 34.56095214 144.60651555 36.05965478 143.19140625 37.55859375 C142.48773926 38.30351074 141.78407227 39.04842773 141.05908203 39.81591797 C137.98643036 43.07510007 134.92928709 46.34861448 131.875 49.625 C131.30579834 50.23545166 130.73659668 50.84590332 130.15014648 51.47485352 C129.00591891 52.70221498 127.86179406 53.9296722 126.71777344 55.15722656 C123.2356138 58.89277815 119.75051604 62.62559067 116.26489258 66.35791016 C113.25739429 69.57881109 110.25312577 72.80263724 107.25390625 76.03125 C106.63580078 76.69576172 106.01769531 77.36027344 105.38085938 78.04492188 C104.21313285 79.30044738 103.04638125 80.55688074 101.88085938 81.81445312 C99.15018241 84.74837375 96.383396 87.62519124 93.52734375 90.4375 C91.090921 92.85202762 88.79972976 95.33750196 86.5625 97.9375 C82.28755992 102.88994174 77.62857657 107.42177931 72.9609375 112 C69.67246798 115.25037914 66.49189609 118.52831224 63.4765625 122.03515625 C59.41982694 126.74883907 54.95627599 131.00913092 50.4296875 135.26757812 C45.02720681 140.52060495 39.90792559 146.63989507 39.3125 154.4375 C40.20433623 166.64287855 52.26564493 175.6980889 60.4375 183.625 C63.02372055 186.15460199 65.60442941 188.68976833 68.18359375 191.2265625 C68.79810394 191.82929993 69.41261414 192.43203735 70.04574585 193.05303955 C73.70860585 196.66376924 77.19385995 200.35654915 80.51586914 204.28662109 C83.17497193 207.35646537 86.09952609 210.1605887 89 213 C93.27746004 217.22816505 97.40971307 221.48420636 101.296875 226.078125 C104.23378548 229.39225334 107.43694414 232.44374844 110.5859375 235.5546875 C113.28751294 238.29123479 115.79078735 241.14979366 118.2890625 244.0703125 C120.74451277 246.83970162 123.39096339 249.40035124 126.02734375 251.99609375 C128.57337829 254.58246151 130.92021557 257.3153528 133.28515625 260.06640625 C135.5004738 262.56431556 137.8689817 264.88024989 140.25 267.21875 C142.70634849 269.71896185 144.96309368 272.37680516 147.25 275.03125 C148.93798286 276.93023071 150.68769734 278.72005988 152.5 280.5 C154.93389732 282.89053167 157.21355559 285.35046262 159.4375 287.9375 C161.85617779 290.74576347 164.35899683 293.39970593 167 296 C171.73099815 300.66656822 176.30717211 305.46075817 180 311 C169.62769579 315.57601656 155.27653551 315.74791566 144.5 312.375 C131.59647903 307.2632888 121.62385132 298.59506657 112.734375 288.0546875 C110.74604357 285.69914171 108.69141986 283.41231302 106.625 281.125 C104.36277587 278.61862352 102.10064758 276.11233804 99.84765625 273.59765625 C93.63525041 266.66627396 87.33093339 259.82292675 81 253 C80.40928711 252.36271973 79.81857422 251.72543945 79.20996094 251.06884766 C77.37084472 249.08597434 75.52952522 247.10517094 73.6875 245.125 C73.12522705 244.51889893 72.5629541 243.91279785 71.98364258 243.28833008 C68.59867379 239.6563487 65.14315598 236.1141761 61.60131836 232.63476562 C59.94365795 230.94248112 58.40442402 229.18340441 56.875 227.375 C53.59487432 223.5605552 50.07474968 220.03436844 46.5 216.5 C42.46699707 212.51224816 38.60597523 208.48505077 34.9375 204.15625 C31.70254998 200.55606369 28.22076458 197.20122709 24.77978516 193.79931641 C21.145763 190.19067003 17.66967091 186.50442817 14.3671875 182.5859375 C13.91601562 182.06257812 13.46484375 181.53921875 13 181 C12.56945313 180.41476562 12.13890625 179.82953125 11.6953125 179.2265625 C9.92227573 177.64665812 9.92227573 177.64665812 6.89404297 178.42333984 C5.93900879 178.6136377 4.98397461 178.80393555 4 179 C3.99761165 179.64991504 3.99522329 180.29983007 3.99276257 180.96943951 C3.93361896 196.78546562 3.85807312 212.60131554 3.76428509 228.41717052 C3.71932509 236.06561594 3.67991094 243.71401478 3.65356445 251.36254883 C3.63058597 258.02924472 3.59718974 264.69579322 3.55129844 271.36237222 C3.52736402 274.89209288 3.50863676 278.42166756 3.50238609 281.95146751 C3.49521192 285.89253116 3.46477873 289.83322896 3.43237305 293.77416992 C3.43380814 294.94373734 3.43524323 296.11330475 3.4367218 297.3183136 C3.42418365 298.39378448 3.41164551 299.46925537 3.39872742 300.57731628 C3.39181397 301.97521534 3.39181397 301.97521534 3.38476086 303.40135479 C2.91782951 306.55497315 1.85892224 308.42809153 0 311 C-4.56268137 314.04178758 -8.71029419 314.46495304 -14.0625 314.375 C-14.75666016 314.38660156 -15.45082031 314.39820313 -16.16601562 314.41015625 C-20.63250348 314.38470618 -23.4821573 313.77163364 -27 311 C-29.78814048 307.91630064 -30.37531215 305.9533686 -30.37752342 301.82374001 C-30.38534666 300.77097394 -30.39316991 299.71820787 -30.40123022 298.6335398 C-30.39453805 297.47810844 -30.38784589 296.32267709 -30.38095093 295.13223267 C-30.3856309 293.9038991 -30.39031087 292.67556554 -30.39513266 291.41000974 C-30.40504193 287.99858247 -30.40145731 284.58764933 -30.39217401 281.17625189 C-30.38539739 277.49790066 -30.39585793 273.8195932 -30.40411377 270.14125061 C-30.41746896 262.9340837 -30.41456521 255.72701039 -30.40587585 248.51983978 C-30.39910567 242.66233139 -30.3981797 236.80484928 -30.4014473 230.9473381 C-30.401907 230.11422867 -30.40236669 229.28111923 -30.40284032 228.42276406 C-30.40379949 226.73038757 -30.40477213 225.03801109 -30.4057581 223.34563462 C-30.41431749 207.46726244 -30.4044698 191.58894216 -30.388357 175.71057849 C-30.37495824 162.08502109 -30.37727719 148.45954038 -30.39111328 134.83398438 C-30.40716789 119.01623311 -30.41348827 103.19852741 -30.40427649 87.38076913 C-30.40332083 85.6939439 -30.40237772 84.00711867 -30.4014473 82.32029343 C-30.40098447 81.49032046 -30.40052164 80.66034749 -30.40004479 79.80522383 C-30.39745418 73.95550213 -30.40182754 68.1058093 -30.40888596 62.25609207 C-30.41730005 55.12597401 -30.41502295 47.99595503 -30.39904372 40.86584832 C-30.39115899 37.22764302 -30.38807269 33.58960292 -30.39799118 29.95139885 C-30.40857882 26.00808401 -30.39593692 22.0650397 -30.38095093 18.12173462 C-30.38764309 16.97076471 -30.39433526 15.8197948 -30.40123022 14.63394701 C-30.3600426 9.06391129 -30.3224351 4.72323319 -27 0 C-18.97420262 -5.12284939 -8.21816788 -4.33321579 0 0 Z " fill="#FFFFFF" transform="translate(2982,119)"/>
<path d="M0 0 C3.4103093 4.26065374 3.44166196 8.37802578 3.43237305 13.62036133 C3.44257036 14.49198599 3.45276768 15.36361065 3.463274 16.26164818 C3.49379907 19.20184064 3.5028071 22.14169925 3.51171875 25.08203125 C3.52861907 27.21585508 3.54669387 29.34966988 3.56584167 31.48347473 C3.61436468 37.3573195 3.64336924 43.23112747 3.66915131 49.10511017 C3.69369623 54.06446064 3.73068764 59.02368752 3.76749039 63.98295975 C3.98903154 94.27319598 4.0156984 124.56246399 3.95883369 154.85334587 C3.95066799 159.22107459 3.94377081 163.58880409 3.9373942 167.95653576 C3.93104444 172.29744045 3.92419598 176.6383443 3.91723633 180.97924805 C3.91588507 181.83523043 3.91453381 182.69121282 3.91314161 183.57313406 C3.89633172 193.87467089 3.86716025 204.1760415 3.81994706 214.47748488 C3.79053207 221.00745872 3.77126051 227.53741248 3.75950831 234.06744176 C3.75072687 238.60313719 3.72932525 243.13852616 3.69800526 247.67411894 C3.6782997 251.09866319 3.67828198 254.52315528 3.67529297 257.94775391 C3.66293956 259.16144559 3.65058615 260.37513727 3.63785839 261.62560749 C3.65334338 268.13684949 4.11636259 273.11873956 7 279 C11.02049419 282.91998183 14.20620545 284.13187328 19.73876953 284.09765625 C20.70874878 284.09441849 21.67872803 284.09118073 22.67810059 284.08784485 C23.73565552 284.07948105 24.79321045 284.07111725 25.8828125 284.0625 C28.17008396 284.0534564 30.45735613 284.04459358 32.74462891 284.03588867 C34.55220673 284.02650772 34.55220673 284.02650772 36.39630127 284.01693726 C54.59036523 283.93429247 72.79417245 283.87519563 90.98675537 284.15258789 C92.7368642 284.17574723 94.48711199 284.19015879 96.23736572 284.19555664 C98.65142391 284.20463227 101.06301712 284.24458506 103.4765625 284.29296875 C104.52124695 284.28706978 104.52124695 284.28706978 105.58703613 284.28105164 C109.36714298 284.39617715 110.93182126 284.94474144 113.90771484 287.35668945 C117.06703025 291.34804394 117.18186576 294.41255611 117.25 299.375 C117.27578125 300.49648438 117.3015625 301.61796875 117.328125 302.7734375 C116.95824883 306.41055317 116.25732793 308.14398945 114 311 C110.40217844 313.56356734 107.93895878 314.37565364 103.54176331 314.38095093 C102.45813507 314.3894104 101.37450684 314.39786987 100.25804138 314.40658569 C99.07919876 314.400513 97.90035614 314.39444031 96.68579102 314.38818359 C95.43648804 314.39344055 94.18718506 314.39869751 92.90002441 314.40411377 C89.48041316 314.41504587 86.06134734 314.41249638 82.64176679 314.40297651 C79.05844734 314.39536856 75.47515083 314.40242883 71.89183044 314.40713501 C65.87372669 314.41258997 59.85573345 314.40540855 53.83764648 314.39111328 C46.88763582 314.3747946 39.9378893 314.38007049 32.98788506 314.3965925 C27.01404394 314.41022367 21.04028216 314.41211886 15.06643051 314.40427649 C11.50151902 314.39960795 7.93673152 314.39895231 4.37182808 314.40888596 C0.3956495 314.41919196 -3.58023532 314.4048915 -7.55639648 314.38818359 C-8.73321487 314.39425629 -9.91003326 314.40032898 -11.12251282 314.40658569 C-21.67136459 314.32444857 -21.67136459 314.32444857 -26 311 C-29.89918615 305.33571395 -29.41966081 299.56958587 -29.38095093 292.96092224 C-29.3856309 291.73834137 -29.39031087 290.51576049 -29.39513266 289.25613171 C-29.40502047 285.8700935 -29.40147266 282.48455529 -29.39217401 279.09854758 C-29.38538383 275.44410912 -29.39586453 271.78971422 -29.40411377 268.13528442 C-29.41745325 260.97952761 -29.41457254 253.82386521 -29.40587585 246.6681047 C-29.39910108 240.85306496 -29.39818168 235.03805167 -29.4014473 229.22300911 C-29.401907 228.39543265 -29.40236669 227.5678562 -29.40284032 226.71520166 C-29.4037995 225.03401652 -29.40477214 223.35283138 -29.4057581 221.67164624 C-29.41431248 205.90774968 -29.40447682 190.14390545 -29.388357 174.38001747 C-29.37495129 160.85138193 -29.37728389 147.3228236 -29.39111328 133.79418945 C-29.40716396 118.08520472 -29.41349112 102.37626585 -29.40427649 86.66727406 C-29.40332084 84.99257442 -29.40237772 83.31787478 -29.4014473 81.64317513 C-29.40098447 80.81917964 -29.40052164 79.99518416 -29.40004479 79.14621912 C-29.39745355 73.33708143 -29.40182874 67.52797282 -29.40888596 61.71883965 C-29.41729536 54.64107605 -29.41503255 47.56341227 -29.39904372 40.48566013 C-29.3911538 36.87389287 -29.38808162 33.26229211 -29.39799118 29.65052605 C-29.40856472 25.73762102 -29.39594841 21.82498929 -29.38095093 17.91209412 C-29.38764309 16.7673575 -29.39433526 15.62262089 -29.40123022 14.44319528 C-29.39340697 13.39540496 -29.38558373 12.34761463 -29.37752342 11.26807308 C-29.37703637 10.36493309 -29.37654931 9.4617931 -29.37604749 8.53128523 C-28.78825775 4.57470124 -27.00082738 1.90397311 -24.0625 -0.75 C-17.02736143 -5.01372035 -6.82787468 -4.12517428 0 0 Z " fill="#FFFFFF" transform="translate(2342,119)"/>
<path d="M0 0 C4.39668451 4.39668451 5.12299207 8.05107597 5.13142776 14.07976246 C5.13526891 15.11101146 5.13911005 16.14226045 5.1430676 17.20475942 C5.14220112 18.33616296 5.14133463 19.46756651 5.14044189 20.633255 C5.14341302 21.83638169 5.14638414 23.03950837 5.1494453 24.27909344 C5.15662566 27.6200218 5.15930462 30.96089874 5.16004276 34.30183113 C5.16189407 37.90452454 5.16944176 41.50720682 5.17617798 45.1098938 C5.18975827 52.98797333 5.19578543 60.86604776 5.20018864 68.74413705 C5.20295135 73.66296957 5.20718873 78.58180013 5.21169281 83.50063133 C5.22388465 97.11892352 5.23418441 110.73721414 5.2375679 124.35551167 C5.23789725 125.66282752 5.23789725 125.66282752 5.23823325 126.99655379 C5.23856067 128.30699735 5.23856067 128.30699735 5.2388947 129.64391452 C5.23933817 131.41422101 5.23978473 133.1845275 5.24023438 134.95483398 C5.2404558 135.83296716 5.24067723 136.71110034 5.24090537 137.61584362 C5.24485398 151.84694201 5.26231029 166.07798921 5.2855939 180.30906782 C5.30930475 194.91916063 5.32176962 209.52922774 5.32293582 224.1393401 C5.32385268 232.34270623 5.32960796 240.54600565 5.34775543 248.74935341 C5.36315277 255.73413732 5.36827904 262.7188339 5.36001733 269.70363156 C5.35610962 273.26703626 5.35704619 276.83026507 5.37107468 280.39364815 C5.38614799 284.25777279 5.3779507 288.12164967 5.36749268 291.98579407 C5.37554908 293.11050545 5.38360548 294.23521682 5.39190602 295.39401037 C5.35398331 301.37358061 4.93850845 305.74252249 2 311 C-2.41044563 315.13479278 -7.02068301 315.23373549 -12.8125 315.3125 C-13.51181641 315.34150391 -14.21113281 315.37050781 -14.93164062 315.40039062 C-20.0361469 315.46246601 -23.07470069 314.53805005 -27 311 C-29.7271656 305.28731982 -29.28140333 299.27663184 -29.26069641 293.08827209 C-29.26452196 291.87935301 -29.26834751 290.67043392 -29.27228898 289.42488092 C-29.28081497 286.07701007 -29.28038812 282.72935914 -29.27610838 279.38149464 C-29.27364053 275.76792378 -29.28265603 272.15437868 -29.29014587 268.54081726 C-29.30289301 261.46462164 -29.30468657 254.38846396 -29.30234561 247.31225879 C-29.3005624 241.56064562 -29.30231216 235.80904397 -29.30657005 230.05743217 C-29.30716524 229.23875925 -29.30776043 228.42008632 -29.30837366 227.57660512 C-29.30958541 225.91346244 -29.31079954 224.25031977 -29.31201603 222.58717709 C-29.32289152 206.99157666 -29.32072897 191.39599785 -29.31463119 175.8003962 C-29.30946137 161.53385546 -29.32071916 147.26738299 -29.33972941 133.00085575 C-29.35910203 118.35001476 -29.36736486 103.69920607 -29.36360615 89.04835218 C-29.36169332 80.8237826 -29.36418974 72.59927113 -29.37832069 64.37471199 C-29.39022809 57.37350121 -29.39164657 50.37238432 -29.37953053 43.37117226 C-29.37363746 39.79965736 -29.37255411 36.22831426 -29.38453293 32.65681076 C-29.39737124 28.78402568 -29.38693746 24.91150154 -29.3742218 21.03871155 C-29.38159609 19.91147346 -29.38897037 18.78423537 -29.39656812 17.62283856 C-29.35515703 11.63907 -28.94125681 7.26096396 -26 2 C-19.48336752 -4.10934295 -7.80283742 -3.41374137 0 0 Z " fill="#FFFFFF" transform="translate(2531,118)"/>
<path d="M0 0 C-1.42486563 2.97981977 -2.75508734 4.96478401 -5.1953125 7.20703125 C-6.1392688 8.08137817 -6.1392688 8.08137817 -7.10229492 8.97338867 C-7.7697876 9.58029541 -8.43728027 10.18720215 -9.125 10.8125 C-9.80860596 11.44196533 -10.49221191 12.07143066 -11.1965332 12.7199707 C-15.07116607 16.27706368 -18.9799908 19.78981666 -22.96875 23.21875 C-26.27047499 26.11410884 -29.48482392 29.10560056 -32.7019043 32.09448242 C-34.12365453 33.4082696 -35.5616075 34.70445475 -37 36 C-37.73863281 36.76957031 -38.47726562 37.53914063 -39.23828125 38.33203125 C-47.03975003 43.04380942 -58.54519081 38.9715213 -66.87890625 37.26171875 C-68.30023402 36.976767 -69.72169995 36.69250362 -71.14329529 36.40888977 C-74.10711548 35.81546814 -77.06952363 35.21557459 -80.03100586 34.6105957 C-83.80329425 33.84026327 -87.57815325 33.08355137 -91.35409641 32.33136272 C-94.28487178 31.74644271 -97.21443863 31.15564855 -100.14365959 30.56299782 C-101.53425601 30.28209125 -102.92514643 30.00263559 -104.31634712 29.72473717 C-119.40605762 26.70115966 -119.40605762 26.70115966 -126 24 C-126.33 23.01 -126.66 22.02 -127 21 C-122.03073561 12.17427947 -111.42337191 6.66495358 -102 4 C-97.45732566 3.26581226 -92.98657728 2.82231492 -88.39160156 2.61108398 C-87.11786682 2.55109726 -85.84413208 2.49111053 -84.53179932 2.42930603 C-83.15141902 2.36798387 -81.77102722 2.30692043 -80.390625 2.24609375 C-78.94072924 2.18038626 -77.49083921 2.11455216 -76.04095459 2.04859924 C-72.99485271 1.9109414 -69.94864354 1.77602539 -66.90234375 1.64282227 C-63.83637575 1.50845841 -60.77065374 1.36984148 -57.70507812 1.22680664 C-38.45325043 0.32903403 -19.27727889 -0.22914108 0 0 Z " fill="#EFEAE9" transform="translate(425,363)"/>
<path d="M0 0 C0.99 0.495 0.99 0.495 2 1 C-11.92178771 14.0027933 -11.92178771 14.0027933 -17.93359375 19.18359375 C-21.24423525 22.09370396 -24.47250713 25.09417706 -27.70166016 28.09423828 C-29.12348585 29.40811318 -30.56152208 30.70437782 -32 32 C-32.73863281 32.76957031 -33.47726562 33.53914063 -34.23828125 34.33203125 C-42.36491414 39.24019567 -53.91212215 34.85239306 -62.625 33 C-64.02455284 32.71003471 -65.42429166 32.42096552 -66.82421875 32.1328125 C-70.21834979 31.43218135 -73.60981181 30.71949808 -77 30 C-77 29.67 -77 29.34 -77 29 C-75.55947266 28.90525391 -75.55947266 28.90525391 -74.08984375 28.80859375 C-48.34289735 26.6859594 -23.50840726 16.21818602 -2.44921875 1.484375 C-1.64097656 0.99453125 -0.83273437 0.5046875 0 0 Z " fill="#CECECD" transform="translate(420,367)"/>
</svg>
